<?xml version="1.0" standalone="no"?>
<!DOCTYPE svg PUBLIC "-//W3C//DTD SVG 20010904//EN"
 "http://www.w3.org/TR/2001/REC-SVG-20010904/DTD/svg10.dtd">
<svg version="1.0" xmlns="http://www.w3.org/2000/svg"
 width="388.000000pt" height="87.000000pt" viewBox="0 0 388.000000 87.000000"
 preserveAspectRatio="xMidYMid meet">

<g transform="translate(0.000000,87.000000) scale(0.100000,-0.100000)"
fill="#000000" stroke="none">
<path d="M80 435 l0 -355 1860 0 1860 0 0 355 0 355 -1860 0 -1860 0 0 -355z
m1611 165 c21 -11 51 -39 66 -62 23 -34 28 -53 28 -103 0 -50 -5 -69 -28 -103
-53 -81 -166 -110 -253 -65 -66 35 -70 45 -26 80 37 30 38 30 61 12 33 -27 84
-24 118 5 23 20 28 32 28 71 0 39 -5 51 -28 71 -29 25 -75 31 -105 15 -13 -7
-27 -1 -56 24 l-39 33 34 17 c76 40 129 41 200 5z m-1189 10 c68 -19 100 -95
62 -148 -15 -22 -15 -25 5 -46 31 -33 29 -96 -5 -130 -26 -25 -30 -26 -155
-26 l-129 0 0 173 c0 96 3 177 7 180 10 11 174 8 215 -3z m278 -130 l0 -140
100 0 100 0 0 -39 0 -40 -150 -3 -150 -3 0 183 0 182 50 0 50 0 0 -140z m485
123 c22 -57 125 -334 125 -338 0 -3 -22 -5 -49 -5 l-49 0 -38 112 -37 112 -37
-112 c-21 -62 -39 -114 -41 -115 -2 -1 -25 0 -51 3 l-46 5 63 167 c35 92 66
172 70 178 11 18 82 12 90 -7z m687 -42 l3 -60 50 59 50 60 58 0 c31 0 57 -4
57 -8 0 -5 -14 -21 -31 -38 -17 -16 -49 -50 -71 -76 l-40 -48 71 -90 71 -90
-57 0 -58 -1 -52 58 -53 58 0 -57 0 -58 -50 0 -50 0 0 175 0 175 50 0 49 0 3
-59z m530 49 c49 -14 88 -61 88 -106 0 -78 -49 -121 -146 -131 l-54 -6 0 -53
0 -54 -50 0 -50 0 0 180 0 180 88 0 c48 0 104 -5 124 -10z m263 -170 l0 -175
-47 -3 -48 -3 0 181 0 181 48 -3 47 -3 0 -175z m195 83 l0 -98 66 98 65 98 47
-3 47 -3 0 -175 0 -175 -47 -3 -47 -3 -3 97 -3 98 -64 -97 -64 -97 -48 0 -49
0 0 180 0 180 50 0 50 0 0 -97z m430 35 l0 -62 38 44 c20 24 44 52 52 63 12
15 26 18 74 15 l59 -3 -72 -79 c-39 -43 -71 -82 -71 -86 0 -5 28 -44 61 -87
34 -43 66 -84 72 -90 7 -10 -4 -13 -50 -13 l-59 0 -50 60 -49 60 -3 -60 -3
-60 -49 0 -50 0 0 180 0 180 50 0 50 0 0 -62z"/>
<path d="M387 543 c-4 -3 -7 -21 -7 -40 0 -32 1 -33 45 -33 34 0 47 5 55 20 8
15 6 24 -10 40 -19 19 -69 27 -83 13z"/>
<path d="M380 370 l0 -40 43 0 c62 0 86 30 51 64 -9 9 -32 16 -55 16 -39 0
-39 0 -39 -40z"/>
<path d="M2370 499 l0 -40 41 3 c52 4 80 36 54 62 -10 9 -33 16 -56 16 -39 0
-39 0 -39 -41z"/>
</g>
</svg>
