<?xml version="1.0" encoding="utf-8"?>
<!-- Generator: Adobe Illustrator 24.0.1, SVG Export Plug-In . SVG Version: 6.00 Build 0)  -->
<svg version="1.1" id="Layer_1" xmlns="http://www.w3.org/2000/svg" xmlns:xlink="http://www.w3.org/1999/xlink" x="0px" y="0px"
	 viewBox="0 0 595.28 841.89" style="enable-background:new 0 0 595.28 841.89;" xml:space="preserve">
<style type="text/css">
	.st0{fill:#DA3694;}
	.st1{fill:#3B8BCA;}
</style>
<path class="st0" d="M512,373.5c0,39.21-31.79,71-71,71s-71-31.79-71-71c0-39.21-31.79-71-71-71s-71,31.79-71,71
	c0-78.42,63.58-142,142-142S512,295.08,512,373.5z"/>
<path class="st1" d="M415,457.5c0,78.42-63.58,142-142,142s-142-63.58-142-142c0-39.21,31.79-71,71-71s71,31.79,71,71
	c0,39.21,31.79,71,71,71S415,496.71,415,457.5z"/>
</svg>
