<?xml version="1.0" encoding="utf-8"?>
<!-- Generator: Adobe Illustrator 19.2.0, SVG Export Plug-In . SVG Version: 6.00 Build 0)  -->
<svg version="1.1" id="Layer_1" xmlns="http://www.w3.org/2000/svg" xmlns:xlink="http://www.w3.org/1999/xlink" x="0px" y="0px"
	 viewBox="0 0 391 380" style="enable-background:new 0 0 391 380;" xml:space="preserve">
<style type="text/css">
	.st0{fill:#4AA3DF;}
	.st1{fill:#4F504F;}
	.st2{fill:#BDE2EF;}
</style>
<path class="st0" d="M249.3,338.7c-8.8-2.3-12-5.2-12.7-6.4c0.7-0.9,3.4-2.9,9.6-4.2c8,0.6,15.6,1.2,22.9,1.6
	C262.7,333.2,256.1,336.2,249.3,338.7z"/>
<path class="st0" d="M320.9,218.5c-0.6-4-1.3-7.3-1.8-9.5c13.8-32.9,20.5-61.6,23.7-83c2.8,6.7,5.1,13.7,7,20.9
	c-2.5,14.2-6.6,27.9-12.1,40.9C332.3,200.3,326.2,210.6,320.9,218.5z"/>
<path class="st0" d="M173.6,347.6c-1.4-0.2-2.8-0.4-4.2-0.6c-5.9-0.9-11.7-2.1-17.5-3.6c-5.9-10.7-9.8-20.5-11.7-30.1
	c-0.7-3.6-1.3-6.6-1-9.1c0.2-2,0.8-4.3,1.9-7.3c2.6-7.4,6.3-14.8,9.7-20.9c3.7-6.9,8.1-14.3,13.3-22.6c5.9-9.4,11.4-17.5,16.8-25
	l2.4-3.3l-1.3-3.9c-20.2-61-7.6-114.4,6.6-148.4c5.9-14.2,13.2-27.8,21.6-40.7c4.5,0.3,8.9,0.8,13.2,1.4c2.4,0.4,4.9,0.8,7.4,1.3
	C203,78,195.7,119.6,194.6,147.4c-1.5,37.7,7.1,63.2,7.5,64.3l8.3,24c-2.7,2.4-5.4,4.9-8.4,7.7c-27.1,25.9-39.7,58.8-39.7,73
	C162.3,324.1,166.6,335.8,173.6,347.6z"/>
<path class="st0" d="M45.8,231.3c-1.7-5.8-2.9-11.8-3.8-17.8c-1-6.6-1.5-13.2-1.6-19.9c3.9-9.2,8.9-18.4,14.9-27.1
	c7-10.1,14.4-18.4,20.9-24.8c-1,6-1.4,12.1-1.3,18.2c0.1,4.9,0.5,9.7,0.9,14.3c0.3,4,0.7,8.2,0.8,12.1c0.2,8.5-1,15.2-3.7,20.4
	c-2.8,5.4-7.6,10.7-14.6,16.1C54.3,226,50.1,228.8,45.8,231.3z"/>
<path class="st1" d="M353.3,200.9c0,0,18.6-41,16.3-85.5l-4.5-25.1l-1.1,21.9v31.6l-7.8,33l-9.3,28.6L353.3,200.9z"/>
<path class="st2" d="M133.5,294.3c2.6-7.7,6.3-15,10.2-22.2c4.2-7.8,8.8-15.5,13.6-23c5.4-8.6,11.1-17.1,17-25.4
	C133.6,100.9,218.7,7.3,218.7,7.3c-37-7.5-138.2-1.8-190.1,90.6c-51.9,92.4-5.7,191.5-5.7,191.5C-3.2,177.5,93.5,112.5,93.5,112.5
	c-0.8,2-1.6,4.1-2.3,6.2c-4.2,12.1-6.1,24.8-5.9,37.5c0.1,10,1.6,20,1.9,30c0.3,9.3-0.8,18.9-5.1,27.2c-4.4,8.4-11.4,15.3-18.9,21
	c-9.8,7.5-20.8,13.9-32.3,18.5c8.6,20.2,20.5,38.8,35,55.3c12.8,14.6,27.6,27.5,43.5,38.5c11.8,8.1,24.2,15.3,37.2,21.3
	c3.9,1.8,7.9,3.5,12,5.1c0.3,0.1,5.2,2.1,5.4,1.9c0.1-0.2-2.1-2.6-2.3-2.9c-0.9-1.1-1.7-2.1-2.5-3.2c-1.5-2-3-4-4.5-6.1
	c-2.8-4-5.5-8.1-8-12.3c-6.4-11-11.8-22.9-14.3-35.5c-0.8-3.8-1.5-7.8-1.1-11.7C131.6,300.2,132.5,297.2,133.5,294.3z"/>
<path class="st2" d="M313.3,241.1c2.3-15.2-2.7-32.8-2.7-32.8C344.1,130.2,337,75,337,75c-27-39.9-81.3-60.2-81.3-60.2
	c-80.2,95.4-46,194.3-46,194.3c4.3-81.5,51.2-60.6,45.4-25.3c-5.8,35.3-21.1,40.1-47.6,65.4c-26.5,25.3-37.2,56.6-37.2,67.2
	c0,10.5,11.9,36.9,36.1,58.1c57.3,5.2,93.6-26.2,93.6-26.2c-73.5,8.4-88.3-21.8-54.3-28.2c75.4,6.1,91.8-0.7,91.8-0.7
	c101.3-118.7,15.1-264.6,15.1-264.6C384.5,170.1,313.3,241.1,313.3,241.1z M218.7,136.8c0,0,6.7-57.2,42.6-97.9
	c0,0,33.8,8.7,56.2,39.7c0,0-30.7,40.1-44.1,100c5.2-56.7,22.9-93.1,22.9-93.1c-16.7-19.8-34.5-23.1-34.5-23.1
	C230.6,93.6,218.7,136.8,218.7,136.8z M368.6,116.3l-2.1-1.9l-0.5,3.3l0-11.7L368.6,116.3z"/>
<path class="st0" d="M222.5,204.8c1.3-25.8,8.9-32.6,12.7-32.6c1.4,0,2.9,0.8,4.2,2.3c2.5,2.9,3.5,7.5,2.7,12.2
	c-2.7,16.5-8.3,21.4-19.5,31.1c-0.3,0.3-0.6,0.5-0.9,0.8L222.5,204.8z"/>
</svg>
