<?xml version="1.0" encoding="utf-8"?>
<!-- Generator: Adobe Illustrator 16.0.0, SVG Export Plug-In . SVG Version: 6.00 Build 0)  -->
<!DOCTYPE svg PUBLIC "-//W3C//DTD SVG 1.1//EN" "http://www.w3.org/Graphics/SVG/1.1/DTD/svg11.dtd">
<svg version="1.1" id="Layer_1" xmlns="http://www.w3.org/2000/svg" xmlns:xlink="http://www.w3.org/1999/xlink" x="0px" y="0px"
	 width="841.89px" height="595.281px" viewBox="0 0 841.89 595.281" enable-background="new 0 0 841.89 595.281"
	 xml:space="preserve">
<path fill="#F935AF" d="M505.224,530.583c-13.785-3.604-18.799-8.146-19.895-10.027c1.096-1.408,5.326-4.543,15.039-6.578
	c12.531,0.939,24.438,1.879,35.873,2.506C526.216,521.966,515.876,526.666,505.224,530.583z"/>
<path fill="#F935AF" d="M617.388,342.287c-0.941-6.266-2.037-11.436-2.82-14.883c21.617-51.539,32.113-96.498,37.127-130.021
	c4.385,10.496,7.988,21.461,10.965,32.741c-3.916,22.245-10.338,43.706-18.955,64.071
	C635.246,313.775,625.689,329.91,617.388,342.287z"/>
<path fill="#F935AF" d="M386.638,544.525c-2.193-0.313-4.386-0.627-6.579-0.939c-9.243-1.41-18.329-3.291-27.415-5.641
	c-9.242-16.762-15.352-32.113-18.328-47.152c-1.097-5.639-2.037-10.338-1.566-14.256c0.313-3.133,1.253-6.734,2.976-11.436
	c4.073-11.592,9.869-23.184,15.195-32.74c5.796-10.809,12.689-22.4,20.835-35.402c9.243-14.727,17.858-27.414,26.318-39.164
	l3.759-5.17l-2.036-6.109c-31.644-95.558-11.906-179.21,10.339-232.472c9.243-22.245,20.678-43.549,33.836-63.757
	c7.051,0.47,13.943,1.253,20.68,2.193c3.758,0.627,7.676,1.253,11.592,2.037c-43.551,67.674-54.986,132.841-56.708,176.391
	c-2.35,59.058,11.123,99.003,11.75,100.728l13.002,37.596c-4.23,3.76-8.459,7.676-13.16,12.063
	c-42.452,40.572-62.19,92.111-62.19,114.357C368.936,507.71,375.672,526.041,386.638,544.525z"/>
<path fill="#F935AF" d="M186.436,362.337c-2.663-9.086-4.543-18.484-5.953-27.885c-1.566-10.338-2.35-20.678-2.506-31.174
	c6.109-14.411,13.942-28.823,23.341-42.452c10.965-15.822,22.558-28.824,32.74-38.85c-1.566,9.399-2.193,18.955-2.037,28.511
	c0.157,7.676,0.783,15.195,1.41,22.401c0.47,6.266,1.097,12.845,1.253,18.955c0.313,13.316-1.566,23.812-5.796,31.957
	c-4.386,8.461-11.906,16.762-22.871,25.223C199.751,354.035,193.172,358.421,186.436,362.337z"/>
<path fill="#4F504F" d="M668.142,314.714c0,0,29.139-64.227,25.535-133.937l-7.049-39.32l-1.725,34.307v49.502l-12.219,51.695
	l-14.568,44.803L668.142,314.714z"/>
<path fill="#EDBEED" d="M323.82,461.029c4.073-12.063,9.869-23.498,15.979-34.777c6.579-12.219,13.785-24.281,21.305-36.029
	c8.459-13.473,17.389-26.787,26.631-39.791c-63.758-192.369,69.554-338.996,69.554-338.996
	c-57.962-11.749-216.494-2.82-297.797,141.927c-81.303,144.748-8.929,299.99-8.929,299.99
	c-40.886-175.294,110.597-277.119,110.597-277.119c-1.253,3.133-2.506,6.423-3.603,9.712c-6.58,18.955-9.556,38.85-9.243,58.745
	c0.157,15.666,2.506,31.331,2.977,46.996c0.47,14.568-1.253,29.607-7.989,42.609c-6.893,13.16-17.858,23.969-29.607,32.898
	c-15.352,11.748-32.584,21.773-50.599,28.98c13.472,31.643,32.114,60.781,54.829,86.629c20.052,22.871,43.236,43.078,68.144,60.311
	c18.485,12.689,37.91,23.969,58.275,33.367c6.109,2.82,12.375,5.482,18.798,7.988c0.47,0.158,8.146,3.291,8.459,2.977
	c0.157-0.313-3.29-4.072-3.603-4.543c-1.41-1.723-2.663-3.289-3.916-5.012c-2.35-3.133-4.7-6.266-7.05-9.557
	c-4.386-6.266-8.616-12.688-12.532-19.268c-10.025-17.232-18.485-35.873-22.401-55.611c-1.253-5.953-2.35-12.219-1.723-18.328
	C320.844,470.271,322.253,465.572,323.82,461.029z"/>
<path fill="#EDBEED" d="M605.482,377.689c3.604-23.811-4.23-51.381-4.23-51.381c52.479-122.346,41.357-208.818,41.357-208.818
	C600.312,54.985,515.25,23.185,515.25,23.185C389.614,172.631,443.189,327.56,443.189,327.56
	c6.736-127.671,80.207-94.931,71.121-39.632s-33.055,62.818-74.566,102.451c-41.514,39.633-58.275,88.666-58.275,105.271
	c0,16.447,18.642,57.805,56.551,91.014c89.764,8.146,146.627-41.043,146.627-41.043c-115.139,13.16-138.324-34.15-85.063-44.176
	c118.117,9.557,143.809-1.096,143.809-1.096c158.689-185.947,23.654-414.503,23.654-414.503
	C717.019,266.466,605.482,377.689,605.482,377.689z M457.289,214.301c0,0,10.496-89.605,66.734-153.363
	c0,0,52.947,13.629,88.039,62.191c0,0-48.094,62.818-69.084,156.653c8.145-88.822,35.873-145.844,35.873-145.844
	c-26.162-31.017-54.045-36.187-54.045-36.187C475.929,146.627,457.289,214.301,457.289,214.301z M692.111,182.187l-3.289-2.976
	l-0.783,5.169v-18.329L692.111,182.187z"/>
<path fill="#F935AF" d="M463.242,320.826c2.035-40.417,13.941-51.07,19.895-51.07c2.193,0,4.543,1.253,6.578,3.603
	c3.918,4.543,5.484,11.749,4.23,19.112c-4.23,25.847-13.002,33.523-30.547,48.718c-0.471,0.471-0.939,0.783-1.41,1.254
	L463.242,320.826z"/>
</svg>
