<?xml version="1.0" encoding="utf-8"?>
<!-- Generator: Adobe Illustrator 16.0.0, SVG Export Plug-In . SVG Version: 6.00 Build 0)  -->
<!DOCTYPE svg PUBLIC "-//W3C//DTD SVG 1.1//EN" "http://www.w3.org/Graphics/SVG/1.1/DTD/svg11.dtd">
<svg version="1.1" id="Layer_1" xmlns="http://www.w3.org/2000/svg" xmlns:xlink="http://www.w3.org/1999/xlink" x="0px" y="0px"
	 width="841.89px" height="595.281px" viewBox="0 0 841.89 595.281" enable-background="new 0 0 841.89 595.281"
	 xml:space="preserve">
<path fill="#062538" d="M27.579,394.892c0-0.482,0.484-0.482,0.484-0.967C29.031,389.57,28.063,391.505,27.579,394.892z"/>
<path fill="#FFFFFF" d="M17.418,387.152c0-0.484,0.484-0.484,0.484-0.969C18.87,381.83,18.386,383.765,17.418,387.152z"/>
<image overflow="visible" width="2413" height="983" xlink:href="9BFD99CA.jpg"  transform="matrix(0.24 0 0 0.24 102.8335 213.3218)">
</image>
<g>
	<g>
		<g enable-background="new    ">
			<g enable-background="new    ">
				<defs>
					<path id="SVGID_1_" enable-background="new    " d="M447.285,316.071c-7.599-4.134-15.195-8.267-22.794-12.399
						c-0.754-0.41-1.536-0.997-2.345-1.757c-6.969-6.548-14.535-12.042-22.698-16.483c7.598,4.133,15.195,8.266,22.793,12.399
						c8.163,4.44,15.729,9.935,22.698,16.483C445.748,315.074,446.531,315.661,447.285,316.071z"/>
				</defs>
				<clipPath id="SVGID_2_">
					<use xlink:href="#SVGID_1_"  overflow="visible"/>
				</clipPath>
				<g clip-path="url(#SVGID_2_)" enable-background="new    ">
					<path fill="#858585" d="M447.285,316.071l-22.794-12.399c-0.754-0.41-1.536-0.997-2.345-1.757
						c-6.969-6.549-14.536-12.042-22.698-16.483l22.793,12.399c8.163,4.44,15.729,9.935,22.698,16.483
						C445.748,315.074,446.531,315.661,447.285,316.071"/>
				</g>
			</g>
			<g enable-background="new    ">
				<defs>
					<path id="SVGID_3_" enable-background="new    " d="M392.096,138.055c7.598,4.133,15.195,8.266,22.793,12.399
						c-1.425-0.775-3.408-1.069-5.945-0.887l-22.793-12.399C388.688,136.986,390.671,137.28,392.096,138.055z"/>
				</defs>
				<clipPath id="SVGID_4_">
					<use xlink:href="#SVGID_3_"  overflow="visible"/>
				</clipPath>
				<g clip-path="url(#SVGID_4_)" enable-background="new    ">
					<path fill="#A8A8A8" d="M408.944,149.568l-22.793-12.399c1.714-0.124,3.176-0.029,4.383,0.284l22.793,12.399
						C412.12,149.539,410.658,149.445,408.944,149.568"/>
					<path fill="#A3A3A3" d="M413.327,149.852l-22.793-12.399c0.491,0.127,0.939,0.291,1.346,0.49l22.793,12.399
						C414.266,150.143,413.817,149.979,413.327,149.852"/>
					<path fill="#9E9E9E" d="M414.672,150.342l-22.793-12.399c0.073,0.036,0.146,0.074,0.216,0.112l22.793,12.399
						C414.818,150.416,414.746,150.378,414.672,150.342"/>
				</g>
			</g>
			<g enable-background="new    ">
				<defs>
					<path id="SVGID_5_" enable-background="new    " d="M391.399,257.733c7.598,4.133,15.195,8.266,22.793,12.399
						c-8.026-4.366-16.252-8.173-24.679-11.422c-9.243-3.559-18.135-6.536-26.675-8.931c-8.541-2.378-15.648-4.578-21.346-6.603
						l-22.793-12.399c5.698,2.025,12.806,4.225,21.346,6.603c8.54,2.396,17.432,5.373,26.675,8.931
						C375.146,249.56,383.373,253.367,391.399,257.733z"/>
				</defs>
				<clipPath id="SVGID_6_">
					<use xlink:href="#SVGID_5_"  overflow="visible"/>
				</clipPath>
				<g clip-path="url(#SVGID_6_)" enable-background="new    ">
					<path fill="#A3A3A3" d="M341.492,243.176l-22.793-12.399c5.698,2.025,12.806,4.225,21.346,6.603
						c8.54,2.396,17.432,5.373,26.675,8.931c5.761,2.221,11.429,4.703,17.003,7.447l22.793,12.399
						c-5.574-2.743-11.241-5.226-17.002-7.446c-9.243-3.559-18.135-6.536-26.675-8.931
						C354.297,247.401,347.19,245.202,341.492,243.176"/>
					<path fill="#9E9E9E" d="M406.516,266.157l-22.793-12.399c2.579,1.269,5.138,2.594,7.676,3.976l22.793,12.399
						C411.654,268.751,409.095,267.426,406.516,266.157"/>
				</g>
			</g>
			<g enable-background="new    ">
				<defs>
					<path id="SVGID_7_" enable-background="new    " d="M318.444,267.672c-2.659-1.446-5.318-2.893-7.978-4.339
						c-0.342-0.186-0.798-0.434-1.14-0.62c-4.559-2.48-9.117-4.96-13.676-7.439c-1.829-0.995-3.057-2.399-3.682-4.213l22.793,12.399
						C315.388,265.273,316.615,266.678,318.444,267.672z"/>
				</defs>
				<clipPath id="SVGID_8_">
					<use xlink:href="#SVGID_7_"  overflow="visible"/>
				</clipPath>
				<g clip-path="url(#SVGID_8_)" enable-background="new    ">
					<path fill="#858585" d="M318.444,267.672l-22.793-12.399c-1.829-0.995-3.057-2.399-3.682-4.213l22.793,12.399
						C315.388,265.273,316.615,266.678,318.444,267.672"/>
				</g>
			</g>
			<g enable-background="new    ">
				<defs>
					<path id="SVGID_9_" enable-background="new    " d="M314.763,263.459l-22.793-12.399c-0.949-2.174-1.001-4.535-0.163-7.091
						c0.83-2.545,1.61-4.764,2.327-6.663l22.793,12.399c-0.716,1.898-1.497,4.117-2.327,6.663
						C313.762,258.924,313.813,261.285,314.763,263.459z"/>
				</defs>
				<clipPath id="SVGID_10_">
					<use xlink:href="#SVGID_9_"  overflow="visible"/>
				</clipPath>
				<g clip-path="url(#SVGID_10_)" enable-background="new    ">
					<path fill="#858585" d="M314.763,263.459l-22.793-12.399c-0.949-2.174-1.001-4.535-0.163-7.091
						c0.693-2.126,1.352-4.025,1.968-5.699l22.793,12.399c-0.616,1.674-1.275,3.572-1.968,5.699
						C313.762,258.924,313.813,261.285,314.763,263.459"/>
					<path fill="#8A8A8A" d="M316.567,250.669l-22.793-12.399c0.122-0.33,0.241-0.651,0.359-0.963l22.793,12.399
						C316.808,250.018,316.688,250.339,316.567,250.669"/>
				</g>
			</g>
			<g enable-background="new    ">
				<defs>
					<path id="SVGID_11_" enable-background="new    " d="M324.088,226.805l-22.793-12.399c5.94-7.24,12.065-15.465,18.377-24.676
						c6.295-9.2,12.846-17.745,19.62-25.611c6.782-7.868,14.025-14.392,21.747-19.574c5.618-3.771,11.577-6.102,17.883-6.988
						c2.36-0.332,4.77-0.461,7.229-0.387l22.793,12.399c-2.458-0.073-4.868,0.056-7.229,0.388
						c-6.306,0.886-12.265,3.217-17.883,6.988c-7.721,5.182-14.965,11.706-21.747,19.574c-6.774,7.867-13.324,16.411-19.62,25.611
						C336.153,211.34,330.028,219.565,324.088,226.805z"/>
				</defs>
				<clipPath id="SVGID_12_">
					<use xlink:href="#SVGID_11_"  overflow="visible"/>
				</clipPath>
				<g clip-path="url(#SVGID_12_)" enable-background="new    ">
					<path fill="#949494" d="M324.088,226.805l-22.793-12.399c5.059-6.166,10.252-13.047,15.581-20.643l22.793,12.399
						C334.34,213.758,329.147,220.639,324.088,226.805"/>
					<path fill="#8F8F8F" d="M339.669,206.162l-22.793-12.399c0.928-1.323,1.86-2.667,2.796-4.033
						c0.698-1.021,1.4-2.033,2.104-3.037l22.793,12.399c-0.705,1.004-1.406,2.017-2.104,3.037
						C341.529,203.495,340.597,204.839,339.669,206.162"/>
					<path fill="#949494" d="M344.569,199.092l-22.793-12.399c5.647-8.05,11.494-15.58,17.516-22.574
						c0.342-0.396,0.685-0.79,1.029-1.18l22.793,12.399c-0.344,0.39-0.687,0.783-1.029,1.18
						C356.063,183.512,350.217,191.042,344.569,199.092"/>
					<path fill="#999999" d="M363.114,175.338l-22.793-12.399c3.069-3.476,6.232-6.68,9.49-9.613l22.793,12.399
						C369.346,168.658,366.183,171.863,363.114,175.338"/>
					<path fill="#9E9E9E" d="M372.604,165.725l-22.793-12.399c3.276-2.95,6.648-5.625,10.119-8.026l22.793,12.399
						C379.253,160.101,375.88,162.776,372.604,165.725"/>
					<path fill="#A3A3A3" d="M382.723,157.7L359.93,145.3c0.369-0.255,0.738-0.507,1.109-0.756c1.966-1.319,3.973-2.462,6.023-3.429
						l22.793,12.399c-2.05,0.966-4.058,2.11-6.023,3.429C383.461,157.192,383.091,157.444,382.723,157.7"/>
					<path fill="#A8A8A8" d="M389.855,153.515l-22.793-12.399c3.808-1.796,7.761-2.983,11.86-3.559
						c2.36-0.332,4.77-0.461,7.229-0.387l22.793,12.399c-2.458-0.073-4.868,0.056-7.229,0.388
						C397.616,150.532,393.663,151.718,389.855,153.515"/>
				</g>
			</g>
			<g enable-background="new    ">
				<defs>
					<path id="SVGID_13_" enable-background="new    " d="M316.926,249.706l-22.793-12.399c1.665-3.821,2.737-7.55,3.224-11.215
						c0.479-3.646,1.792-7.547,3.938-11.686l22.793,12.399c-2.146,4.139-3.458,8.04-3.938,11.686
						C319.663,242.156,318.591,245.885,316.926,249.706z"/>
				</defs>
				<clipPath id="SVGID_14_">
					<use xlink:href="#SVGID_13_"  overflow="visible"/>
				</clipPath>
				<g clip-path="url(#SVGID_14_)" enable-background="new    ">
					<path fill="#8A8A8A" d="M316.926,249.706l-22.793-12.399c0.387-0.888,0.742-1.77,1.064-2.648l22.793,12.399
						C317.667,247.936,317.313,248.818,316.926,249.706"/>
					<path fill="#858585" d="M317.99,247.058l-22.793-12.399c1.067-2.902,1.786-5.753,2.16-8.567
						c0.278-2.118,0.838-4.322,1.679-6.609l22.793,12.399c-0.841,2.287-1.401,4.491-1.679,6.609
						C319.776,241.304,319.058,244.156,317.99,247.058"/>
					<path fill="#8A8A8A" d="M321.83,231.882l-22.793-12.399c0.606-1.649,1.359-3.342,2.259-5.077l22.793,12.399
						C323.189,228.54,322.436,230.232,321.83,231.882"/>
				</g>
			</g>
			<g>
				<path fill="#DFDFDF" d="M451,306.926c0.469,2.242,0.289,4.058-0.539,5.453c-0.836,1.405-1.134,2.467-0.895,3.203
					c0.153,0.663,0.02,1.021-0.401,1.08c-0.211,0.03-0.494-0.016-0.85-0.136c-1.065-0.36-2.192-1.101-3.376-2.213
					c-7.586-7.129-15.88-13.008-24.881-17.638c-9.017-4.619-18.556-8.594-28.632-11.915c-10.084-3.319-20.754-6.116-32.018-8.371
					c-11.271-2.262-22.831-4.604-34.687-7.036c-5.461-0.512-8.781-2.475-9.959-5.896c-0.949-2.174-1.001-4.536-0.164-7.091
					c0.83-2.546,1.611-4.764,2.327-6.663c1.665-3.821,2.737-7.55,3.224-11.215c0.479-3.646,1.792-7.547,3.938-11.686
					c5.94-7.24,12.065-15.465,18.377-24.676c6.295-9.2,12.846-17.745,19.62-25.611c6.782-7.868,14.025-14.392,21.747-19.574
					c5.619-3.771,11.578-6.102,17.883-6.988c2.361-0.332,4.771-0.461,7.229-0.388c3.788-0.272,6.342,0.518,7.643,2.383
					c1.302,1.875,1.243,3.542-0.185,5.022c-0.483,1.606-1.255,3.055-2.323,4.363c-1.067,1.299-2.319,2.374-3.746,3.214
					c-1.418,0.839-2.79,1.481-4.095,1.916c-1.307,0.443-2.196,0.698-2.668,0.764c-3.092,0.435-6.115,2.199-9.091,5.305
					c-2.969,3.105-6.002,6.549-9.093,10.311l-43.894,60.33c5.698,2.025,12.806,4.225,21.346,6.603
					c8.541,2.396,17.432,5.373,26.675,8.931c9.251,3.566,18.26,7.806,27.028,12.719c8.768,4.914,16.229,10.78,22.391,17.598
					c4.503,2.704,7.407,4.854,8.709,6.46c1.303,1.615,1.956,3.061,1.954,4.34c-0.002,1.28-0.133,2.448-0.367,3.509
					C448.987,304.392,449.584,305.587,451,306.926z"/>
			</g>
			<g enable-background="new    ">
				<defs>
					<path id="SVGID_15_" enable-background="new    " d="M311.778,339.554l-22.793-12.399c-9-13.335-15.555-28.481-19.671-45.45
						c-4.125-16.958-6.583-34.54-7.374-52.744c-0.807-18.194-0.236-36.59,1.704-55.179c1.924-18.578,4.456-36.281,7.57-53.116
						l22.793,12.399c-3.114,16.835-5.646,34.539-7.57,53.116c-1.941,18.588-2.512,36.985-1.704,55.178
						c0.791,18.205,3.249,35.786,7.374,52.745C296.223,311.073,302.778,326.219,311.778,339.554z"/>
				</defs>
				<clipPath id="SVGID_16_">
					<use xlink:href="#SVGID_15_"  overflow="visible"/>
				</clipPath>
				<g clip-path="url(#SVGID_16_)" enable-background="new    ">
					<path fill="#858585" d="M311.778,339.554l-22.793-12.399c-9-13.335-15.555-28.481-19.671-45.45
						c-4.125-16.958-6.583-34.54-7.374-52.744c-0.807-18.194-0.236-36.59,1.704-55.179c1.924-18.578,4.456-36.281,7.57-53.116
						l22.793,12.399c-3.114,16.835-5.646,34.539-7.57,53.116c-1.941,18.588-2.512,36.985-1.704,55.178
						c0.791,18.205,3.249,35.786,7.374,52.745C296.223,311.073,302.778,326.219,311.778,339.554"/>
				</g>
			</g>
			<g>
				<path fill="#DFDFDF" d="M311.851,300.362c3.07,2.896,4.851,5.913,5.317,9.046c0.467,3.141,0.701,6.376,0.695,9.695
					c-0.004,2.058-0.779,5.365-2.333,9.939c-1.555,4.575-2.802,8.07-3.752,10.512c-9-13.335-15.555-28.481-19.672-45.45
					c-4.125-16.958-6.583-34.54-7.374-52.745c-0.808-18.193-0.237-36.59,1.704-55.178c1.924-18.578,4.456-36.281,7.57-53.116
					c1.423,1.338,2.364,3.195,2.841,5.557c0.468,2.372,0.936,4.933,1.403,7.677c0.47,1.222,0.883,3.083,1.239,5.591
					c0.348,2.51,0.575,5.235,0.697,8.166c0.106,2.924,0.222,5.855,0.336,8.786c0.115,2.932,0.166,5.543,0.162,7.852
					c-0.012,6.406,0.864,13.388,2.636,20.944c1.764,7.575,2.637,15.958,2.62,25.183c-0.024,13.064,0.184,26.095,0.64,39.091
					C307.029,274.91,308.783,287.732,311.851,300.362z"/>
			</g>
		</g>
	</g>
</g>
<g>
	<g>
		<g enable-background="new    ">
			<g enable-background="new    ">
				<defs>
					<path id="SVGID_17_" enable-background="new    " d="M564.553,277.965l-22.793-12.399c4.322-3.028,8.235-5.773,11.731-8.235
						l22.793,12.399C572.789,272.192,568.875,274.938,564.553,277.965z"/>
				</defs>
				<clipPath id="SVGID_18_">
					<use xlink:href="#SVGID_17_"  overflow="visible"/>
				</clipPath>
				<g clip-path="url(#SVGID_18_)" enable-background="new    ">
					<path fill="#9E9E9E" d="M564.553,277.965l-22.793-12.399c4.322-3.028,8.235-5.773,11.731-8.235l22.793,12.399
						C572.789,272.192,568.875,274.938,564.553,277.965"/>
				</g>
			</g>
			<g enable-background="new    ">
				<defs>
					<path id="SVGID_19_" enable-background="new    " d="M567.558,247.708c-7.598-4.133-15.195-8.266-22.793-12.399
						c0.117,0.063,0.215,0.089,0.294,0.078c0.038-0.005,0.072,0,0.103,0.017l22.793,12.399c-0.029-0.016-0.063-0.021-0.102-0.016
						C567.773,247.796,567.675,247.771,567.558,247.708z"/>
				</defs>
				<clipPath id="SVGID_20_">
					<use xlink:href="#SVGID_19_"  overflow="visible"/>
				</clipPath>
				<g clip-path="url(#SVGID_20_)" enable-background="new    ">
					<path fill="#9E9E9E" d="M567.558,247.708l-22.793-12.399c0.012,0.007,0.024,0.013,0.036,0.019l22.793,12.399
						C567.583,247.72,567.571,247.714,567.558,247.708"/>
					<path fill="#A3A3A3" d="M567.594,247.726l-22.793-12.399c0.045,0.022,0.087,0.039,0.126,0.049l22.794,12.399
						C567.681,247.765,567.639,247.749,567.594,247.726"/>
					<path fill="#A8A8A8" d="M567.721,247.775l-22.794-12.399c0.049,0.013,0.093,0.016,0.132,0.01
						c0.024-0.003,0.048-0.002,0.068,0.003l22.794,12.399c-0.021-0.005-0.044-0.006-0.068-0.003
						C567.813,247.791,567.769,247.788,567.721,247.775"/>
					<path fill="#A3A3A3" d="M567.921,247.788l-22.794-12.399c0.01,0.002,0.02,0.006,0.028,0.01l22.793,12.399
						C567.94,247.794,567.931,247.791,567.921,247.788"/>
					<polyline fill="#9E9E9E" points="567.949,247.798 545.156,235.399 545.162,235.402 567.955,247.801 567.949,247.798 					"/>
				</g>
			</g>
			<g enable-background="new    ">
				<defs>
					<path id="SVGID_21_" enable-background="new    " d="M536.618,296.542l-22.793-12.399c0.665-0.266,2.453-1.373,5.364-3.303
						c2.902-1.929,6.317-4.208,10.223-6.813c3.904-2.614,8.026-5.432,12.349-8.46l22.793,12.399
						c-4.322,3.028-8.443,5.846-12.349,8.46c-3.904,2.606-7.32,4.884-10.223,6.813C539.071,295.169,537.283,296.276,536.618,296.542
						z"/>
				</defs>
				<clipPath id="SVGID_22_">
					<use xlink:href="#SVGID_21_"  overflow="visible"/>
				</clipPath>
				<g clip-path="url(#SVGID_22_)" enable-background="new    ">
					<path fill="#A8A8A8" d="M536.618,296.542l-22.793-12.399c0.052-0.021,0.11-0.046,0.176-0.077l22.793,12.399
						C536.728,296.496,536.669,296.522,536.618,296.542"/>
					<path fill="#A3A3A3" d="M536.793,296.465L514,284.066c0.774-0.366,2.504-1.446,5.188-3.226
						c2.902-1.929,6.317-4.208,10.223-6.813c2.858-1.914,5.833-3.937,8.918-6.072l22.793,12.399
						c-3.084,2.135-6.06,4.158-8.918,6.072c-3.904,2.606-7.32,4.884-10.223,6.813C539.298,295.019,537.569,296.099,536.793,296.465"
						/>
					<path fill="#9E9E9E" d="M561.123,280.354l-22.793-12.399c1.129-0.781,2.272-1.577,3.431-2.388l22.793,12.399
						C563.396,278.777,562.251,279.573,561.123,280.354"/>
				</g>
			</g>
			<g enable-background="new    ">
				<defs>
					<path id="SVGID_23_" enable-background="new    " d="M529.199,299.076l-22.793-12.399c2.514-0.452,4.926-1.284,7.419-2.533
						l22.793,12.399C534.125,297.792,531.713,298.624,529.199,299.076z"/>
				</defs>
				<clipPath id="SVGID_24_">
					<use xlink:href="#SVGID_23_"  overflow="visible"/>
				</clipPath>
				<g clip-path="url(#SVGID_24_)" enable-background="new    ">
					<path fill="#A8A8A8" d="M529.199,299.076l-22.793-12.399c2.271-0.408,4.46-1.127,6.699-2.183l22.794,12.399
						C533.659,297.949,531.47,298.667,529.199,299.076"/>
					<path fill="#A3A3A3" d="M535.899,296.892l-22.794-12.399c0.239-0.113,0.479-0.229,0.72-0.35l22.793,12.399
						C536.377,296.663,536.138,296.78,535.899,296.892"/>
				</g>
			</g>
			<g enable-background="new    ">
				<defs>
					<path id="SVGID_25_" enable-background="new    " d="M527.199,298.795l-22.793-12.399c0.547,0.297,1.214,0.391,2,0.28
						l22.793,12.399C528.413,299.186,527.746,299.093,527.199,298.795z"/>
				</defs>
				<clipPath id="SVGID_26_">
					<use xlink:href="#SVGID_25_"  overflow="visible"/>
				</clipPath>
				<g clip-path="url(#SVGID_26_)" enable-background="new    ">
					<path fill="#9E9E9E" d="M527.199,298.795l-22.793-12.399c0.03,0.017,0.062,0.033,0.093,0.048l22.793,12.399
						C527.26,298.828,527.23,298.812,527.199,298.795"/>
					<path fill="#A3A3A3" d="M527.292,298.843l-22.793-12.399c0.156,0.077,0.321,0.137,0.495,0.182l22.794,12.399
						C527.613,298.98,527.448,298.919,527.292,298.843"/>
					<path fill="#A8A8A8" d="M527.788,299.025l-22.794-12.399c0.418,0.107,0.889,0.124,1.412,0.05l22.793,12.399
						C528.675,299.149,528.205,299.132,527.788,299.025"/>
				</g>
			</g>
			<g>
				<polygon fill="#B1B1B1" points="554.897,247.186 532.103,234.787 544.308,234.956 567.101,247.355 				"/>
			</g>
			<g enable-background="new    ">
				<defs>
					<path id="SVGID_27_" enable-background="new    " d="M515.433,316.249l-22.793-12.399c-0.232-0.127-0.449-0.293-0.65-0.5
						c-1.078-1.102-1.78-2.792-2.112-5.079l22.793,12.399c0.332,2.287,1.034,3.978,2.113,5.079
						C514.984,315.955,515.201,316.122,515.433,316.249z"/>
				</defs>
				<clipPath id="SVGID_28_">
					<use xlink:href="#SVGID_27_"  overflow="visible"/>
				</clipPath>
				<g clip-path="url(#SVGID_28_)" enable-background="new    ">
					<path fill="#858585" d="M515.433,316.249l-22.793-12.399c-0.232-0.127-0.449-0.293-0.65-0.5
						c-1.078-1.102-1.78-2.792-2.112-5.079l22.793,12.399c0.332,2.287,1.034,3.978,2.113,5.079
						C514.984,315.955,515.201,316.122,515.433,316.249"/>
				</g>
			</g>
			<g enable-background="new    ">
				<defs>
					<path id="SVGID_29_" enable-background="new    " d="M525.988,250.445l-22.793-12.399c5.487-0.771,10.718-1.463,15.7-2.077
						c4.982-0.605,9.388-1,13.208-1.182l22.794,12.399c-3.82,0.182-8.226,0.577-13.209,1.182
						C536.707,248.982,531.475,249.674,525.988,250.445z"/>
				</defs>
				<clipPath id="SVGID_30_">
					<use xlink:href="#SVGID_29_"  overflow="visible"/>
				</clipPath>
				<g clip-path="url(#SVGID_30_)" enable-background="new    ">
					<path fill="#A8A8A8" d="M525.988,250.445l-22.793-12.399c5.487-0.771,10.718-1.463,15.7-2.077
						c4.982-0.605,9.388-1,13.208-1.182l22.794,12.399c-3.82,0.182-8.226,0.577-13.209,1.182
						C536.707,248.982,531.475,249.674,525.988,250.445"/>
				</g>
			</g>
			<g enable-background="new    ">
				<defs>
					<path id="SVGID_31_" enable-background="new    " d="M512.67,310.669l-22.793-12.399c-0.652-6.538-1.096-13.563-1.33-21.059
						c-0.235-7.496-0.261-15.107-0.078-22.843l22.794,12.399c-0.184,7.736-0.157,15.347,0.077,22.843
						S512.018,304.131,512.67,310.669z"/>
				</defs>
				<clipPath id="SVGID_32_">
					<use xlink:href="#SVGID_31_"  overflow="visible"/>
				</clipPath>
				<g clip-path="url(#SVGID_32_)" enable-background="new    ">
					<path fill="#858585" d="M512.67,310.669l-22.793-12.399c-0.652-6.538-1.096-13.563-1.33-21.059
						c-0.235-7.496-0.261-15.107-0.078-22.843l22.794,12.399c-0.184,7.736-0.157,15.347,0.077,22.843
						S512.018,304.131,512.67,310.669"/>
				</g>
			</g>
			<g enable-background="new    ">
				<defs>
					<path id="SVGID_33_" enable-background="new    " d="M511.229,160.257c7.598,4.133,15.195,8.267,22.793,12.399
						c-0.479-0.26-1.03-0.535-1.657-0.823l-22.793-12.399C510.198,159.723,510.75,159.997,511.229,160.257z"/>
				</defs>
				<clipPath id="SVGID_34_">
					<use xlink:href="#SVGID_33_"  overflow="visible"/>
				</clipPath>
				<g clip-path="url(#SVGID_34_)" enable-background="new    ">
					<path fill="#A3A3A3" d="M532.365,171.834l-22.793-12.399c0.279,0.128,0.544,0.254,0.794,0.377l22.793,12.399
						C532.909,172.088,532.644,171.962,532.365,171.834"/>
					<path fill="#9E9E9E" d="M533.159,172.211l-22.793-12.399c0.311,0.153,0.598,0.301,0.863,0.445l22.793,12.399
						C533.757,172.513,533.469,172.364,533.159,172.211"/>
				</g>
			</g>
			<g enable-background="new    ">
				<defs>
					<path id="SVGID_35_" enable-background="new    " d="M527.129,174.99l-22.793-12.399c0.657-0.456,1.371-1.048,2.117-1.775
						c0.746-0.736,1.788-1.193,3.118-1.38l22.793,12.399c-1.33,0.187-2.372,0.644-3.118,1.38
						C528.5,173.941,527.788,174.534,527.129,174.99z"/>
				</defs>
				<clipPath id="SVGID_36_">
					<use xlink:href="#SVGID_35_"  overflow="visible"/>
				</clipPath>
				<g clip-path="url(#SVGID_36_)" enable-background="new    ">
					<path fill="#9E9E9E" d="M527.129,174.99l-22.793-12.399c0.48-0.333,0.99-0.738,1.521-1.216l22.794,12.399
						C528.12,174.251,527.61,174.657,527.129,174.99"/>
					<path fill="#999999" d="M528.651,173.773l-22.794-12.399c0.196-0.177,0.396-0.363,0.597-0.559
						c0.044-0.044,0.09-0.086,0.136-0.128l22.794,12.399c-0.047,0.042-0.092,0.084-0.137,0.128
						C529.045,173.411,528.847,173.597,528.651,173.773"/>
					<path fill="#9E9E9E" d="M529.383,173.086l-22.794-12.399c0.133-0.119,0.273-0.23,0.422-0.333l22.794,12.399
						C529.656,172.856,529.515,172.967,529.383,173.086"/>
					<path fill="#A3A3A3" d="M529.805,172.753l-22.794-12.399c0.207-0.143,0.43-0.27,0.668-0.382l22.793,12.399
						C530.234,172.483,530.011,172.61,529.805,172.753"/>
					<path fill="#A8A8A8" d="M530.472,172.37l-22.793-12.399c0.547-0.258,1.178-0.436,1.893-0.537l22.793,12.399
						C531.651,171.934,531.019,172.113,530.472,172.37"/>
				</g>
			</g>
			<g enable-background="new    ">
				<defs>
					<path id="SVGID_37_" enable-background="new    " d="M511.786,252.708l-22.794-12.399c0.685-14.972,1.88-28.944,3.562-41.913
						c1.683-12.968,3.694-22.75,6.037-29.354l22.793,12.399c-2.342,6.604-4.354,16.386-6.036,29.354
						C513.665,223.765,512.47,237.737,511.786,252.708z"/>
				</defs>
				<clipPath id="SVGID_38_">
					<use xlink:href="#SVGID_37_"  overflow="visible"/>
				</clipPath>
				<g clip-path="url(#SVGID_38_)" enable-background="new    ">
					<path fill="#858585" d="M511.786,252.708l-22.794-12.399c0.685-14.972,1.88-28.944,3.562-41.913
						c1.683-12.968,3.694-22.75,6.037-29.354l22.793,12.399c-2.342,6.604-4.354,16.386-6.036,29.354
						C513.665,223.765,512.47,237.737,511.786,252.708"/>
				</g>
			</g>
			<g enable-background="new    ">
				<defs>
					<path id="SVGID_39_" enable-background="new    " d="M477.366,267.725c-7.598-4.133-15.195-8.267-22.793-12.399
						c-0.967-0.525-1.878-1.191-2.731-1.999l22.793,12.399C475.488,266.534,476.399,267.2,477.366,267.725z"/>
				</defs>
				<clipPath id="SVGID_40_">
					<use xlink:href="#SVGID_39_"  overflow="visible"/>
				</clipPath>
				<g clip-path="url(#SVGID_40_)" enable-background="new    ">
					<path fill="#858585" d="M477.366,267.725l-22.793-12.399c-0.967-0.525-1.878-1.191-2.731-1.999l22.793,12.399
						C475.488,266.534,476.399,267.2,477.366,267.725"/>
				</g>
			</g>
			<g enable-background="new    ">
				<defs>
					<path id="SVGID_41_" enable-background="new    " d="M521.383,181.442l-22.793-12.399c0.003-1.617,0.63-2.82,1.873-3.626
						c1.251-0.798,2.533-1.739,3.873-2.826l22.793,12.399c-1.339,1.087-2.622,2.028-3.873,2.826
						C522.013,178.622,521.386,179.825,521.383,181.442z"/>
				</defs>
				<clipPath id="SVGID_42_">
					<use xlink:href="#SVGID_41_"  overflow="visible"/>
				</clipPath>
				<g clip-path="url(#SVGID_42_)" enable-background="new    ">
					<path fill="#858585" d="M521.383,181.442l-22.793-12.399c0.001-0.617,0.093-1.173,0.275-1.671l22.793,12.399
						C521.476,180.268,521.384,180.825,521.383,181.442"/>
					<path fill="#8A8A8A" d="M521.659,179.771l-22.793-12.399c0.063-0.173,0.138-0.339,0.223-0.498l22.794,12.399
						C521.796,179.432,521.722,179.598,521.659,179.771"/>
					<path fill="#8F8F8F" d="M521.882,179.273l-22.794-12.399c0.07-0.129,0.146-0.254,0.231-0.375l22.793,12.399
						C522.029,179.019,521.952,179.144,521.882,179.273"/>
					<path fill="#949494" d="M522.113,178.899L499.32,166.5c0.08-0.115,0.167-0.225,0.261-0.331l22.793,12.399
						C522.28,178.674,522.193,178.784,522.113,178.899"/>
					<path fill="#999999" d="M522.374,178.568l-22.793-12.399c0.1-0.113,0.206-0.22,0.32-0.323l22.794,12.399
						C522.581,178.347,522.473,178.455,522.374,178.568"/>
					<path fill="#9E9E9E" d="M522.695,178.245l-22.794-12.399c0.135-0.121,0.28-0.235,0.435-0.343l22.794,12.399
						C522.974,178.009,522.829,178.124,522.695,178.245"/>
					<path fill="#A3A3A3" d="M523.129,177.901l-22.794-12.399c0.042-0.029,0.085-0.057,0.128-0.085
						c0.354-0.226,0.711-0.463,1.071-0.712l22.793,12.399c-0.36,0.249-0.717,0.487-1.071,0.713
						C523.213,177.844,523.17,177.873,523.129,177.901"/>
					<path fill="#9E9E9E" d="M524.328,177.103l-22.793-12.399c0.911-0.63,1.842-1.334,2.802-2.114l22.793,12.399
						C526.169,175.769,525.239,176.473,524.328,177.103"/>
				</g>
			</g>
			<g enable-background="new    ">
				<defs>
					<path id="SVGID_43_" enable-background="new    " d="M473.454,265.617c-7.598-4.133-15.195-8.267-22.793-12.399
						c-0.504-0.274-0.568-0.934-0.185-1.98c0.588-1.604,1.038-2.973,1.377-4.092l22.793,12.399
						c-0.338,1.119-0.789,2.488-1.377,4.092C472.886,264.683,472.95,265.342,473.454,265.617z"/>
				</defs>
				<clipPath id="SVGID_44_">
					<use xlink:href="#SVGID_43_"  overflow="visible"/>
				</clipPath>
				<g clip-path="url(#SVGID_44_)" enable-background="new    ">
					<path fill="#858585" d="M473.454,265.617l-22.793-12.399c-0.504-0.274-0.568-0.934-0.185-1.98
						c0.588-1.604,1.038-2.973,1.377-4.092l22.793,12.399c-0.338,1.119-0.789,2.488-1.377,4.092
						C472.886,264.683,472.95,265.342,473.454,265.617"/>
				</g>
			</g>
			<g>
				<path fill="#DFDFDF" d="M564.553,277.965c4.322-3.027,8.235-5.773,11.731-8.235c-0.004,2.507-1.259,5.104-3.754,7.789
					c-1.332,1.44-2.792,2.813-4.372,4.106c-1.58,1.302-3.2,2.697-4.861,4.184c-1.836,1.511-3.081,3.026-3.748,4.555
					c-0.668,1.528-2.168,3.261-4.495,5.204c-4.322,3.659-8.981,7.088-13.969,10.305c-4.987,3.208-9.477,5.627-13.468,7.269
					c-1.331,0.55-2.701,0.916-4.11,1.114c-1.418,0.199-2.788,0.659-4.119,1.383c-0.832,0.49-1.584,0.784-2.256,0.879
					c-0.94,0.132-1.724-0.125-2.349-0.769c-1.079-1.102-1.781-2.792-2.113-5.079c-0.652-6.538-1.096-13.563-1.33-21.059
					s-0.261-15.107-0.077-22.843c-3.967,0.839-7.69,1.507-11.179,1.998c-0.901,0.127-1.786,0.242-2.656,0.345
					c-4.238,0.509-7.689,0.683-10.34,0.511c-2.49-0.004-4.78-0.262-6.854-0.783c-2.073-0.513-3.945-1.546-5.601-3.111
					c-1.489,0.209-1.953-0.486-1.365-2.09s1.039-2.973,1.377-4.092c3.493-0.672,8.604-1.616,15.333-2.83
					c6.729-1.213,13.996-2.546,21.807-4.007c0.685-14.972,1.879-28.943,3.562-41.912c1.682-12.968,3.694-22.75,6.036-29.354
					c0.003-1.617,0.63-2.82,1.873-3.626c1.251-0.798,2.534-1.739,3.873-2.826c0.658-0.456,1.371-1.048,2.117-1.775
					c0.746-0.736,1.788-1.193,3.118-1.38c1.497,0.688,2.568,1.298,3.231,1.828c0.664,0.538,0.999,1.251,0.997,2.15
					c-0.002,0.899-0.251,2.006-0.759,3.331c-0.498,1.323-1.086,3.022-1.747,5.086c-0.338,0.583-0.838,2.901-1.51,6.937
					c-0.673,4.036-1.387,9.115-2.143,15.22c-0.764,6.115-1.563,13.038-2.409,20.781s-1.526,15.496-2.038,23.278
					c5.487-0.771,10.719-1.463,15.7-2.077c4.983-0.605,9.389-1,13.209-1.182l12.204,0.169c0.336,0.315,0.584,0.454,0.752,0.43
					c0.16-0.022,0.248,0.146,0.247,0.501c-0.169,0.387-0.546,0.846-1.123,1.368c-0.586,0.532-1.62,0.997-3.118,1.38
					c-0.497,0.251-1.163,0.665-1.996,1.223c-0.835,0.567-1.5,0.98-1.997,1.223c-4.487,1.703-9.76,3.438-15.826,5.181
					c-6.073,1.752-12.339,3.445-18.82,5.065c-0.349,6.325-0.487,12.17-0.409,17.535c0.07,5.375,0.27,10.006,0.599,13.901
					c0.313,2.923,1.577,4.225,3.79,3.914c2.515-0.452,4.926-1.284,7.419-2.533c0.665-0.266,2.453-1.373,5.364-3.304
					c2.902-1.929,6.318-4.207,10.223-6.813C556.11,283.811,560.231,280.993,564.553,277.965z"/>
			</g>
			<g enable-background="new    ">
				<defs>
					<path id="SVGID_45_" enable-background="new    " d="M474.646,259.545l-22.793-12.399c3.492-0.672,8.604-1.615,15.333-2.83
						c6.729-1.213,13.995-2.546,21.806-4.006l22.794,12.399c-7.811,1.461-15.077,2.793-21.807,4.007
						C483.25,257.929,478.139,258.873,474.646,259.545z"/>
				</defs>
				<clipPath id="SVGID_46_">
					<use xlink:href="#SVGID_45_"  overflow="visible"/>
				</clipPath>
				<g clip-path="url(#SVGID_46_)" enable-background="new    ">
					<path fill="#A8A8A8" d="M474.646,259.545l-22.793-12.399c3.492-0.672,8.604-1.615,15.333-2.83
						c6.729-1.213,13.995-2.546,21.806-4.006l22.794,12.399c-7.811,1.461-15.077,2.793-21.807,4.007
						C483.25,257.929,478.139,258.873,474.646,259.545"/>
				</g>
			</g>
		</g>
	</g>
</g>
</svg>
