<?xml version="1.0" encoding="utf-8"?>
<!-- Generator: Adobe Illustrator 16.0.0, SVG Export Plug-In . SVG Version: 6.00 Build 0)  -->
<!DOCTYPE svg PUBLIC "-//W3C//DTD SVG 1.1//EN" "http://www.w3.org/Graphics/SVG/1.1/DTD/svg11.dtd">
<svg version="1.1" id="Layer_1" xmlns="http://www.w3.org/2000/svg" xmlns:xlink="http://www.w3.org/1999/xlink" x="0px" y="0px"
	 width="841.89px" height="595.281px" viewBox="0 0 841.89 595.281" enable-background="new 0 0 841.89 595.281"
	 xml:space="preserve">
<g>
	<path fill="#FFFFFF" d="M147.226,368.675c-4.209-1.158-5.788-2.527-6.104-3.053c0.316-0.42,1.579-1.367,4.63-2
		c3.789,0.316,7.472,0.527,10.945,0.738C153.645,366.044,150.488,367.517,147.226,368.675z"/>
	<path fill="#FFFFFF" d="M181.427,311.216c-0.316-1.895-0.631-3.473-0.842-4.525c6.63-15.681,9.787-29.467,11.365-39.674
		c1.368,3.262,2.42,6.524,3.368,9.997c-1.158,6.735-3.157,13.365-5.788,19.574C186.899,302.585,183.953,307.533,181.427,311.216z"/>
	<path fill="#FFFFFF" d="M111.024,372.99c-0.632-0.105-1.368-0.211-2-0.316c-2.842-0.42-5.578-1.053-8.314-1.684
		c-2.841-5.051-4.63-9.787-5.578-14.418c-0.315-1.684-0.631-3.156-0.421-4.314c0.105-0.947,0.421-2,0.842-3.473
		c1.263-3.578,3.052-7.051,4.63-9.998c1.789-3.262,3.894-6.84,6.419-10.732c2.841-4.42,5.472-8.42,7.998-11.998l1.158-1.578
		l-0.631-1.895c-9.682-29.15-3.578-54.618,3.157-70.929c2.841-6.735,6.314-13.26,10.313-19.469c2.104,0.105,4.209,0.421,6.314,0.632
		c1.158,0.21,2.315,0.421,3.578,0.631c-13.26,20.626-16.838,40.516-17.364,53.775c-0.737,17.996,3.368,30.203,3.578,30.729
		l3.999,11.471c-1.263,1.158-2.631,2.316-3.999,3.684c-12.944,12.313-18.943,28.098-18.943,34.834
		C105.657,361.728,107.657,367.306,111.024,372.99z"/>
	<path fill="#FFFFFF" d="M49.987,317.425c-0.842-2.736-1.368-5.578-1.789-8.525c-0.421-3.156-0.737-6.314-0.737-9.471
		c1.895-4.42,4.209-8.735,7.156-12.944c3.368-4.841,6.84-8.84,9.998-11.892c-0.421,2.841-0.632,5.788-0.632,8.735
		c0,2.315,0.21,4.63,0.421,6.84c0.21,1.894,0.315,3.894,0.421,5.788c0.105,4.104-0.421,7.262-1.789,9.787
		c-1.368,2.631-3.684,5.156-7.051,7.682C53.986,314.898,51.987,316.162,49.987,317.425z"/>
	<path fill="#FFFFFF" d="M196.897,302.796c0,0,8.945-19.574,7.788-40.832l-2.105-11.997l-0.526,10.418v15.154l-3.789,15.786
		l-4.42,13.681L196.897,302.796z"/>
	<path fill="#FFFFFF" d="M91.871,347.523c1.263-3.684,3.052-7.156,4.841-10.629c2-3.789,4.209-7.367,6.525-11.051
		c2.631-4.104,5.262-8.209,8.103-12.102c-19.469-58.722,21.258-103.448,21.258-103.448c-17.68-3.578-66.088-0.842-90.819,43.252
		c-24.836,44.199-2.736,91.555-2.736,91.555c-12.523-53.459,33.676-84.609,33.676-84.609c-0.421,0.947-0.737,2-1.052,2.947
		c-2,5.788-2.947,11.786-2.841,17.995c0.105,4.841,0.736,9.577,0.842,14.313c0.105,4.419-0.316,9.05-2.42,12.943
		c-2.105,4-5.473,7.262-9.05,9.998c-4.63,3.578-9.998,6.631-15.47,8.84c4.104,9.682,9.787,18.521,16.732,26.414
		c6.104,6.945,13.154,13.154,20.837,18.416c5.577,3.895,11.576,7.262,17.785,10.209c1.895,0.842,3.789,1.684,5.683,2.42
		c0.105,0.105,2.526,1.053,2.526,0.947c0.105-0.105-0.947-1.262-1.158-1.367c-0.421-0.527-0.842-1.053-1.157-1.58
		c-0.737-0.945-1.474-1.893-2.105-2.945c-1.368-1.895-2.631-3.895-3.789-5.895c-3.052-5.262-5.578-10.943-6.84-16.941
		c-0.315-1.789-0.737-3.684-0.526-5.578C90.924,350.363,91.345,348.89,91.871,347.523z"/>
	<path fill="#FFFFFF" d="M177.744,322.054c1.157-7.26-1.263-15.68-1.263-15.68c15.996-37.359,12.628-63.773,12.628-63.773
		c-12.944-19.048-38.832-28.729-38.832-28.729c-38.306,45.567-21.995,92.819-21.995,92.819c2-38.938,24.52-28.94,21.679-12.103
		c-2.736,16.837-10.103,19.153-22.731,31.255s-17.785,27.045-17.785,32.098c0,5.051,5.683,17.68,17.259,27.781
		c27.361,2.422,44.725-12.521,44.725-12.521c-35.149,3.998-42.2-10.42-25.993-13.471c36.096,2.945,43.883-0.316,43.883-0.316
		c48.409-56.723,7.156-126.494,7.156-126.494C211.84,288.063,177.744,322.054,177.744,322.054z M132.598,272.173
		c0,0,3.157-27.361,20.311-46.83c0,0,16.101,4.104,26.835,18.942c0,0-14.628,19.153-21.047,47.777
		c2.42-27.151,10.944-44.515,10.944-44.515c-7.998-9.471-16.522-11.05-16.522-11.05C138.28,251.547,132.598,272.173,132.598,272.173
		z M204.264,262.386l-1.053-0.947l-0.21,1.579v-5.578L204.264,262.386z"/>
	<path fill="#FFFFFF" d="M134.387,304.691c0.631-12.313,4.314-15.575,6.104-15.575c0.737,0,1.368,0.421,2,1.157
		c1.158,1.368,1.684,3.578,1.263,5.894c-1.263,7.893-3.999,10.208-9.261,14.838c-0.105,0.105-0.315,0.211-0.421,0.316
		L134.387,304.691z"/>
</g>
<g>
	<path fill="#FFFFFF" d="M300.367,288.046l29.771,64.902h-20.705l-21.807-50.152l-6.983,11.358v38.794h-18.009V239.516h18.009
		v51.333h0.368c1.96-4.426,4.043-8.703,6.003-12.981l20.215-38.352h21.562L300.367,288.046z"/>
	<path fill="#FFFFFF" d="M395.922,239.516v18.881h-23.277v94.552h-18.132v-94.552h-23.155v-18.881H395.922z"/>
	<path fill="#FFFFFF" d="M516.958,239.516h18.255l-22.298,113.433h-19.234l-8.086-48.087c-2.082-11.801-3.553-23.306-4.777-36.14
		h-0.245c-1.593,12.834-3.308,24.191-5.636,36.14l-9.188,48.087h-19.112l-20.704-113.433h19.234l7.229,48.973
		c1.96,13.57,3.798,27.584,5.146,39.679h0.367c1.348-12.686,3.676-25.813,6.126-39.974l8.575-48.678h17.887l7.964,49.268
		c2.083,13.275,3.92,25.813,5.146,39.089h0.367c1.471-13.423,3.309-26.256,5.269-39.826L516.958,239.516z"/>
	<path fill="#FFFFFF" d="M620.477,294.832c0,39.531-16.662,59.74-40.062,59.74c-24.87,0-38.959-25.076-38.959-57.971
		c0-33.926,15.559-58.854,40.184-58.854C607.736,237.747,620.477,264.592,620.477,294.832z M560.446,296.159
		c0,22.273,7.229,40.564,20.582,40.564c13.477,0,20.46-18.144,20.46-41.007c0-20.799-6.493-40.122-20.337-40.122
		C566.939,255.594,560.446,275.361,560.446,296.159z"/>
	<path fill="#FFFFFF" d="M634.316,240.992c6.248-1.328,15.069-2.36,24.258-2.36c11.884,0,35.896,1.77,35.896,32.156
		c0,13.866-7.351,24.044-16.171,28.174v0.442c6.615,3.098,10.291,10.769,12.496,22.273c2.695,13.424,5.146,26.994,6.983,31.271
		h-18.622c-1.348-3.245-3.676-13.128-5.881-26.846c-2.45-14.604-6.248-19.176-14.824-19.176h-6.125v46.021h-18.01V240.992z
		 M652.326,290.701h7.473c10.291,0,16.539-7.228,16.539-17.995c0-14.604-9.065-17.406-15.682-17.406c-4.043,0-6.86,0.295-8.33,0.885
		V290.701z"/>
	<path fill="#FFFFFF" d="M709.536,240.992c6.615-1.476,15.191-2.36,24.38-2.36c15.682,0,26.341,3.982,34.182,11.801
		c8.943,8.85,14.211,22.863,14.211,43.366c0,24.339-6.983,38.5-14.211,46.317c-8.576,9.293-21.686,13.866-38.102,13.866
		c-8.699,0-15.682-0.738-20.46-1.476V240.992z M727.545,336.133c1.837,0.442,4.532,0.442,6.982,0.442
		c17.274,0.147,28.791-12.686,28.791-42.481c0-25.667-10.414-38.353-27.198-38.353c-3.798,0-6.615,0.442-8.575,0.886V336.133z"/>
</g>
</svg>
