<?xml version="1.0" encoding="UTF-8" standalone="no"?>
<!-- Generator: Adobe Illustrator 19.2.0, SVG Export Plug-In . SVG Version: 6.00 Build 0)  -->
<svg id="Layer_1" style="enable-background:new 0 0 214 214" xmlns="http://www.w3.org/2000/svg" xml:space="preserve" viewBox="0 0 214 214" version="1.1" y="0px" x="0px" xmlns:xlink="http://www.w3.org/1999/xlink">
<style type="text/css">
	.st0{fill:#FFFFFF;}
</style>
			<path class="st0" d="m165 44.3c-12.6 0.5-18 11.9-14 21.6 1.5 3.8 3.5 7.5 5.8 11 8.3 12.6 10.3 26 5.9 40.4-4.2 13.6-8.3 27.2-12.5 41.3-1.7-1.2-1.9-2.9-2.4-4.3-9.3-27.7-18.6-55.4-28-83-1.1-3.4-0.8-4.9 2.9-5 2-0.1 4-0.3 5.9-0.7 1.7-0.3 2.7-1.5 2.6-3.1s-1.1-2.8-2.9-2.8c-0.7 0-1.3-0.1-2 0-14 1.3-27.9 1.3-41.9 0-2.2-0.2-4.6-0.4-4.7 2.9-0.1 3.2 2.3 3.2 4.5 3.2 5.5 0 8.4 2.3 10 7.9 2.5 8.9 6.2 17.5 9.4 26.2 0.6 1.7 1.4 3.3 0.7 5.3-6 17.9-12 35.8-18 53.8-2.3-0.4-1.9-2.3-2.3-3.5-9.5-27.8-18.7-55.7-28.2-83.4-1.6-4.6-0.3-5.6 4-6.1 2.6-0.3 7.7 1.4 6.9-3.8-0.7-4.5-5.3-2.5-8-2.3-6.3 0.4-12.6 0.9-19 0.7-1.2 0-2.9 0.8-3.6-0.7-0.6-1.3 0.8-2.4 1.6-3.4 13.1-17.5 30.2-29.2 51.6-33.4 27.5-5.5 52.4 0.9 74 19.2 0.5 0.3 0.8 0.9 1.7 2z"/>
			<path class="st0" d="m109.1 115c4.3 11.9 8.7 23.8 13 35.7 4.1 11.2 8.2 22.4 12.4 33.6 1 2.7 0.9 3.9-2.3 4.9-15.3 4.6-30.7 4.9-46.2 1.1-2.3-0.6-3.7-1-2.6-4.3 8-22.8 15.8-45.7 23.6-68.6 0.4-0.8 0.4-2 2.1-2.4z"/>
			<path class="st0" d="m29 72.3c3.3 6.4 39.8 107.3 40.3 111-39.9-16.8-60.2-69.7-40.3-111z"/>
			<path class="st0" d="m181.9 66.3c22.8 37.5 8.5 93.6-32.2 114.4 4.3-12.5 8.5-24.5 12.5-36.5 5.9-17.6 12.7-34.9 17.8-52.7 1.8-6.3 2-12.8 1.9-19.3-0.1-1.7 0-3.5 0-5.9z"/>
		<path class="st0" d="m107 207.8c-55.6 0-100.8-45.2-100.8-100.8s45.2-100.8 100.8-100.8 100.8 45.2 100.8 100.8-45.2 100.8-100.8 100.8zm0-194.6c-51.7 0-93.8 42.1-93.8 93.8s42.1 93.8 93.8 93.8 93.8-42.1 93.8-93.8-42.1-93.8-93.8-93.8z"/>
</svg>
