<?xml version="1.0" encoding="utf-8"?>
<!-- Generator: Adobe Illustrator 19.2.0, SVG Export Plug-In . SVG Version: 6.00 Build 0)  -->
<svg version="1.1" id="Layer_1" xmlns="http://www.w3.org/2000/svg" xmlns:xlink="http://www.w3.org/1999/xlink" x="0px" y="0px"
	 viewBox="0 0 800 200" style="enable-background:new 0 0 800 200;" xml:space="preserve">
<style type="text/css">
	.st0{fill:#FFFFFF;}
</style>
<g>
	<g>
		<g>
			<path class="st0" d="M302,153.3c-1.4,0.1-3.7,0.1-5.1,0l-6.2-0.5c-1.4-0.2-3.7-0.6-5-0.9l-5.3-1.5c-1.3-0.5-3.5-1.3-4.8-1.9
				l-4.5-2.3c-1.2-0.7-3.2-2-4.3-2.8l-3.7-2.9c-1.1-0.9-2.7-2.6-3.6-3.6l-3-3.6c-0.8-1.1-2.1-3.1-2.8-4.3l-2.3-4.3
				c-0.6-1.3-1.5-3.4-1.9-4.8l-1.5-5c-0.3-1.4-0.8-3.6-0.9-5l-0.5-5.7c-0.1-1.4-0.1-2.6-0.1-2.6c0,0,0-0.1,0-0.1s0.1-1.2,0.1-2.6
				l0.5-5.3c0.2-1.4,0.6-3.7,1-5l1.5-4.9c0.5-1.3,1.4-3.5,2-4.7l2.3-4.3c0.7-1.2,2-3.1,2.8-4.3l3-3.7c0.9-1.1,2.6-2.7,3.6-3.6
				l3.7-3.1c1.1-0.8,3-2.1,4.3-2.9l4.5-2.4c1.3-0.6,3.4-1.5,4.7-2l5.2-1.6c1.4-0.3,3.6-0.8,5-1l5.9-0.5c1.4-0.1,3.6-0.1,4.8-0.1
				c1.2,0,5.2,0.3,6.3,0.4c1.1,0.1,4.7,0.7,5.7,0.9c1,0.2,4.3,1,5.2,1.3c0.9,0.3,4,1.3,4.8,1.7s3.7,1.7,4.5,2.1
				c0.8,0.4,3.5,2,4.2,2.5c0.8,0.5,3.3,2.3,4.1,2.9c0.7,0.6,1.9,3,1,4.1l-3.7,4.5c-0.9,1.1-2.4,2.9-3.3,4l-3.7,4.5
				c-0.9,1.1-2.1,1.6-2.6,1.2c-0.5-0.4-2.4-1.8-2.9-2.2c-0.5-0.4-2.4-1.6-2.9-1.9c-0.5-0.3-2.4-1.4-3-1.6s-2.5-1.1-3.1-1.3
				s-2.7-0.9-3.3-1.1c-0.6-0.2-2.9-0.6-3.6-0.8c-0.7-0.1-3.2-0.4-3.9-0.4c-0.7,0-3.7,0-4.8,0s-4.7,0.8-5.7,1.1s-4.4,1.8-5.3,2.3
				c-0.9,0.5-3.9,2.6-4.7,3.2c-0.8,0.7-3.4,3.3-4,4.1s-2.7,3.9-3.2,4.9c-0.5,0.9-2,4.5-2.4,5.6c-0.4,1.1-1.1,4.9-1.3,6
				c-0.2,1.1-0.3,4.3-0.3,4.3c0,0,0,0.1,0,0.1c0,0,0,1.1,0.1,2.3c0.1,1.2,0.7,5.3,0.9,6.5c0.3,1.1,1.6,4.9,2,5.9
				c0.5,1,2.4,4.3,3,5.2c0.6,0.9,3.1,3.7,3.9,4.4s3.8,2.9,4.7,3.5c0.9,0.6,4.4,2.1,5.4,2.5s4.9,1.2,6.1,1.4c1.2,0.2,5.5,0.2,6.9,0.1
				l6.3-0.8c1.4-0.3,3.6-0.9,4.9-1.4l4.9-2.3c1.2-0.7,2.2-2.5,2.2-3.9v-2.1c0-1.4,0-3.7,0-5.1v-2.1c0-1.4-1.2-2.6-2.6-2.6h-6
				c-1.4,0-3.7,0-5.1,0h-6c-1.4,0-2.6-1.2-2.6-2.6v-4.4c0-1.4,0-3.7,0-5.1v-4.4c0-1.4,1.2-2.6,2.6-2.6H318c1.4,0,3.7,0,5.1,0h16.7
				c1.4,0,2.6,1.2,2.6,2.6V113c0,1.4,0,3.7,0,5.1v16.7c0,1.4-0.9,3.3-2,4.2l-4.3,3.1c-1.2,0.8-3.1,2-4.4,2.7l-5.4,2.8
				c-1.3,0.6-3.4,1.5-4.7,2l-6.6,2c-1.4,0.3-3.6,0.8-5,1L302,153.3z"/>
			<path class="st0" d="M302,153.3c-1.4,0.1-3.7,0.1-5.1,0l-6.2-0.5c-1.4-0.2-3.7-0.6-5-0.9l-5.3-1.5c-1.3-0.5-3.5-1.3-4.8-1.9
				l-4.5-2.3c-1.2-0.7-3.2-2-4.3-2.8l-3.7-2.9c-1.1-0.9-2.7-2.6-3.6-3.6l-3-3.6c-0.8-1.1-2.1-3.1-2.8-4.3l-2.3-4.3
				c-0.6-1.3-1.5-3.4-1.9-4.8l-1.5-5c-0.3-1.4-0.8-3.6-0.9-5l-0.5-5.7c-0.1-1.4-0.1-2.6-0.1-2.6c0,0,0-0.1,0-0.1s0.1-1.2,0.1-2.6
				l0.5-5.3c0.2-1.4,0.6-3.7,1-5l1.5-4.9c0.5-1.3,1.4-3.5,2-4.7l2.3-4.3c0.7-1.2,2-3.1,2.8-4.3l3-3.7c0.9-1.1,2.6-2.7,3.6-3.6
				l3.7-3.1c1.1-0.8,3-2.1,4.3-2.9l4.5-2.4c1.3-0.6,3.4-1.5,4.7-2l5.2-1.6c1.4-0.3,3.6-0.8,5-1l5.9-0.5c1.4-0.1,3.6-0.1,4.8-0.1
				c1.2,0,5.2,0.3,6.3,0.4c1.1,0.1,4.7,0.7,5.7,0.9c1,0.2,4.3,1,5.2,1.3c0.9,0.3,4,1.3,4.8,1.7s3.7,1.7,4.5,2.1
				c0.8,0.4,3.5,2,4.2,2.5c0.8,0.5,3.3,2.3,4.1,2.9c0.7,0.6,1.9,3,1,4.1l-3.7,4.5c-0.9,1.1-2.4,2.9-3.3,4l-3.7,4.5
				c-0.9,1.1-2.1,1.6-2.6,1.2c-0.5-0.4-2.4-1.8-2.9-2.2c-0.5-0.4-2.4-1.6-2.9-1.9c-0.5-0.3-2.4-1.4-3-1.6s-2.5-1.1-3.1-1.3
				s-2.7-0.9-3.3-1.1c-0.6-0.2-2.9-0.6-3.6-0.8c-0.7-0.1-3.2-0.4-3.9-0.4c-0.7,0-3.7,0-4.8,0s-4.7,0.8-5.7,1.1s-4.4,1.8-5.3,2.3
				c-0.9,0.5-3.9,2.6-4.7,3.2c-0.8,0.7-3.4,3.3-4,4.1s-2.7,3.9-3.2,4.9c-0.5,0.9-2,4.5-2.4,5.6c-0.4,1.1-1.1,4.9-1.3,6
				c-0.2,1.1-0.3,4.3-0.3,4.3c0,0,0,0.1,0,0.1c0,0,0,1.1,0.1,2.3c0.1,1.2,0.7,5.3,0.9,6.5c0.3,1.1,1.6,4.9,2,5.9
				c0.5,1,2.4,4.3,3,5.2c0.6,0.9,3.1,3.7,3.9,4.4s3.8,2.9,4.7,3.5c0.9,0.6,4.4,2.1,5.4,2.5s4.9,1.2,6.1,1.4c1.2,0.2,5.5,0.2,6.9,0.1
				l6.3-0.8c1.4-0.3,3.6-0.9,4.9-1.4l4.9-2.3c1.2-0.7,2.2-2.5,2.2-3.9v-2.1c0-1.4,0-3.7,0-5.1v-2.1c0-1.4-1.2-2.6-2.6-2.6h-6
				c-1.4,0-3.7,0-5.1,0h-6c-1.4,0-2.6-1.2-2.6-2.6v-4.4c0-1.4,0-3.7,0-5.1v-4.4c0-1.4,1.2-2.6,2.6-2.6H318c1.4,0,3.7,0,5.1,0h16.7
				c1.4,0,2.6,1.2,2.6,2.6V113c0,1.4,0,3.7,0,5.1v16.7c0,1.4-0.9,3.3-2,4.2l-4.3,3.1c-1.2,0.8-3.1,2-4.4,2.7l-5.4,2.8
				c-1.3,0.6-3.4,1.5-4.7,2l-6.6,2c-1.4,0.3-3.6,0.8-5,1L302,153.3z"/>
		</g>
		<g>
			<path class="st0" d="M362.4,49.2c0-1.4,1.2-2.6,2.6-2.6h5.8c1.4,0,3.7,0,5.1,0h5.8c1.4,0,2.6,1.2,2.6,2.6v47.4c0,1.4,0,3.7,0,5.1
				v47.4c0,1.4-1.2,2.6-2.6,2.6h-5.8c-1.4,0-3.7,0-5.1,0H365c-1.4,0-2.6-1.2-2.6-2.6v-47.4c0-1.4,0-3.7,0-5.1V49.2z"/>
			<path class="st0" d="M362.4,49.2c0-1.4,1.2-2.6,2.6-2.6h5.8c1.4,0,3.7,0,5.1,0h5.8c1.4,0,2.6,1.2,2.6,2.6v47.4c0,1.4,0,3.7,0,5.1
				v47.4c0,1.4-1.2,2.6-2.6,2.6h-5.8c-1.4,0-3.7,0-5.1,0H365c-1.4,0-2.6-1.2-2.6-2.6v-47.4c0-1.4,0-3.7,0-5.1V49.2z"/>
		</g>
		<g>
			<path class="st0" d="M444,153.3c-1.4,0.1-3.7,0.1-5.1,0l-3.2-0.3c-1.4-0.2-3.7-0.6-5.1-0.9l-2.8-0.8c-1.3-0.4-3.5-1.3-4.8-1.9
				c0,0-1.1-0.5-2.3-1.2c-1.2-0.7-3.1-1.9-4.3-2.7c-1.1-0.8-4.6-4.1-5.5-5.1s-3.7-4.9-4.4-6.1c-0.7-1.2-2.7-5.7-3.2-7l-0.8-2.8
				c-0.3-1.4-0.8-3.6-0.9-5l-0.3-3.4c-0.1-1.4-0.1-2.6-0.1-2.6c0,0,0-0.1,0-0.1c0,0,0.1-1.2,0.1-2.6l0.3-2.9
				c0.2-1.4,0.6-3.7,0.9-5.1l0.7-2.6c0.4-1.3,1.3-3.5,1.8-4.8c0,0,0.5-1.1,1.1-2.3c0.7-1.2,1.8-3.1,2.6-4.3c0.8-1.1,3.9-4.7,4.8-5.6
				c1-0.9,4.7-3.8,5.8-4.5c1.1-0.7,5.5-2.8,6.8-3.3c1.3-0.5,6.1-1.6,7.5-1.8l3-0.3c1.4-0.1,3.7-0.1,5.1,0l3.9,0.4
				c1.4,0.2,3.7,0.7,5,1l2.8,0.9c1.3,0.5,3.4,1.5,4.6,2.2c0,0,1,0.6,2.2,1.4c1.1,0.8,2.9,2.2,3.9,3.1c1,0.9,4.1,4.5,4.9,5.6
				c0.8,1.1,3.1,5.3,3.7,6.5c0.6,1.3,2.1,5.9,2.4,7.3l0.6,2.7c0.2,1.4,0.6,3.7,0.7,5.1l0.2,2.9c0,1.4,0.1,2.8,0.1,3s0,1.1,0,1.4
				c0,0.3-0.1,1.2-0.1,1.4s-0.1,1.2-0.1,1.5c0,0.3-1.2,1-2.7,1h-21.7c-1.4,0-3.7,0-5.1,0h-21.7c-1.4,0-2.3,1.1-1.9,2.3s2.3,5,3,6
				c0.7,1,3.7,3.5,4.6,4.1c1,0.6,4.8,2,6,2.2c1.2,0.3,5.4,0.4,6.4,0.4c1,0,4.1-0.6,5-0.8s3.7-1.3,4.5-1.7c0.8-0.4,3.6-2.2,4.4-2.8
				s3.9-1.7,5-0.8l2.4,2.1c1.1,0.9,2.8,2.5,3.8,3.4l2.4,2.1c1.1,0.9,1.2,2.6,0.2,3.6l-2.4,2.4c-1.1,0.9-2.9,2.4-4,3.2l-2.9,1.8
				c-1.2,0.7-3.3,1.7-4.6,2.2l-3.6,1.2c-1.4,0.4-3.6,0.8-5,1.1L444,153.3z M453,107.1c1.4,0,2.4-1,2.1-2.3s-1.8-5.1-2.3-6.2
				c-0.5-1-3.1-4-3.9-4.7c-0.8-0.7-4.2-2.3-5.3-2.6c-1.1-0.3-5.3-0.5-6.5-0.4s-4.8,1.3-5.8,1.9c-1,0.5-3.7,3.1-4.5,4s-2.6,4.6-3,5.7
				s-0.1,4.6,1.3,4.6h11.3c1.4,0,3.7,0,5.1,0H453z"/>
			<path class="st0" d="M444,153.3c-1.4,0.1-3.7,0.1-5.1,0l-3.2-0.3c-1.4-0.2-3.7-0.6-5.1-0.9l-2.8-0.8c-1.3-0.4-3.5-1.3-4.8-1.9
				c0,0-1.1-0.5-2.3-1.2c-1.2-0.7-3.1-1.9-4.3-2.7c-1.1-0.8-4.6-4.1-5.5-5.1s-3.7-4.9-4.4-6.1c-0.7-1.2-2.7-5.7-3.2-7l-0.8-2.8
				c-0.3-1.4-0.8-3.6-0.9-5l-0.3-3.4c-0.1-1.4-0.1-2.6-0.1-2.6c0,0,0-0.1,0-0.1c0,0,0.1-1.2,0.1-2.6l0.3-2.9
				c0.2-1.4,0.6-3.7,0.9-5.1l0.7-2.6c0.4-1.3,1.3-3.5,1.8-4.8c0,0,0.5-1.1,1.1-2.3c0.7-1.2,1.8-3.1,2.6-4.3c0.8-1.1,3.9-4.7,4.8-5.6
				c1-0.9,4.7-3.8,5.8-4.5c1.1-0.7,5.5-2.8,6.8-3.3c1.3-0.5,6.1-1.6,7.5-1.8l3-0.3c1.4-0.1,3.7-0.1,5.1,0l3.9,0.4
				c1.4,0.2,3.7,0.7,5,1l2.8,0.9c1.3,0.5,3.4,1.5,4.6,2.2c0,0,1,0.6,2.2,1.4c1.1,0.8,2.9,2.2,3.9,3.1c1,0.9,4.1,4.5,4.9,5.6
				c0.8,1.1,3.1,5.3,3.7,6.5c0.6,1.3,2.1,5.9,2.4,7.3l0.6,2.7c0.2,1.4,0.6,3.7,0.7,5.1l0.2,2.9c0,1.4,0.1,2.8,0.1,3s0,1.1,0,1.4
				c0,0.3-0.1,1.2-0.1,1.4s-0.1,1.2-0.1,1.5c0,0.3-1.2,1-2.7,1h-21.7c-1.4,0-3.7,0-5.1,0h-21.7c-1.4,0-2.3,1.1-1.9,2.3s2.3,5,3,6
				c0.7,1,3.7,3.5,4.6,4.1c1,0.6,4.8,2,6,2.2c1.2,0.3,5.4,0.4,6.4,0.4c1,0,4.1-0.6,5-0.8s3.7-1.3,4.5-1.7c0.8-0.4,3.6-2.2,4.4-2.8
				s3.9-1.7,5-0.8l2.4,2.1c1.1,0.9,2.8,2.5,3.8,3.4l2.4,2.1c1.1,0.9,1.2,2.6,0.2,3.6l-2.4,2.4c-1.1,0.9-2.9,2.4-4,3.2l-2.9,1.8
				c-1.2,0.7-3.3,1.7-4.6,2.2l-3.6,1.2c-1.4,0.4-3.6,0.8-5,1.1L444,153.3z M453,107.1c1.4,0,2.4-1,2.1-2.3s-1.8-5.1-2.3-6.2
				c-0.5-1-3.1-4-3.9-4.7c-0.8-0.7-4.2-2.3-5.3-2.6c-1.1-0.3-5.3-0.5-6.5-0.4s-4.8,1.3-5.8,1.9c-1,0.5-3.7,3.1-4.5,4s-2.6,4.6-3,5.7
				s-0.1,4.6,1.3,4.6h11.3c1.4,0,3.7,0,5.1,0H453z"/>
		</g>
		<g>
			<path class="st0" d="M532.2,153.3c-1.4,0.1-3.7,0.1-5.1,0l-3.2-0.3c-1.4-0.2-3.7-0.6-5.1-0.9l-2.8-0.8c-1.3-0.4-3.5-1.3-4.8-1.9
				c0,0-1.1-0.5-2.3-1.2c-1.2-0.7-3.1-1.9-4.3-2.7c-1.1-0.8-4.6-4.1-5.5-5.1s-3.7-4.9-4.4-6.1c-0.7-1.2-2.7-5.7-3.2-7l-0.8-2.8
				c-0.3-1.4-0.8-3.6-0.9-5l-0.3-3.4c-0.1-1.4-0.1-2.6-0.1-2.6c0,0,0-0.1,0-0.1c0,0,0.1-1.2,0.1-2.6l0.3-2.9
				c0.2-1.4,0.6-3.7,0.9-5.1l0.7-2.6c0.4-1.3,1.3-3.5,1.8-4.8c0,0,0.5-1.1,1.1-2.3c0.7-1.2,1.8-3.1,2.6-4.3c0.8-1.1,3.9-4.7,4.8-5.6
				c1-0.9,4.7-3.8,5.8-4.5c1.1-0.7,5.5-2.8,6.8-3.3c1.3-0.5,6.1-1.6,7.5-1.8l3-0.3c1.4-0.1,3.7-0.1,5.1,0l3.9,0.4
				c1.4,0.2,3.7,0.7,5,1l2.8,0.9c1.3,0.5,3.4,1.5,4.6,2.2c0,0,1,0.6,2.2,1.4s2.9,2.2,3.9,3.1c1,0.9,4.1,4.5,4.9,5.6
				c0.8,1.1,3.1,5.3,3.7,6.5c0.6,1.3,2.1,5.9,2.4,7.3l0.6,2.7c0.2,1.4,0.6,3.7,0.7,5.1l0.2,2.9c0,1.4,0.1,2.8,0.1,3s0,1.1,0,1.4
				c0,0.3-0.1,1.2-0.1,1.4c0,0.3-0.1,1.2-0.1,1.5s-1.2,1-2.7,1h-21.7c-1.4,0-3.7,0-5.1,0h-21.7c-1.4,0-2.3,1.1-1.9,2.3s2.3,5,3,6
				c0.7,1,3.7,3.5,4.6,4.1c1,0.6,4.8,2,6,2.2c1.2,0.3,5.4,0.4,6.4,0.4c1,0,4.1-0.6,5-0.8s3.7-1.3,4.5-1.7c0.8-0.4,3.6-2.2,4.4-2.8
				s3.9-1.7,5-0.8l2.4,2.1c1.1,0.9,2.8,2.5,3.8,3.4l2.4,2.1c1.1,0.9,1.2,2.6,0.2,3.6l-2.4,2.4c-1.1,0.9-2.9,2.4-4,3.2l-2.9,1.8
				c-1.2,0.7-3.3,1.7-4.6,2.2l-3.6,1.2c-1.4,0.4-3.6,0.8-5,1.1L532.2,153.3z M541.2,107.1c1.4,0,2.4-1,2.1-2.3
				c-0.3-1.3-1.8-5.1-2.3-6.2c-0.5-1-3.1-4-3.9-4.7c-0.8-0.7-4.2-2.3-5.3-2.6c-1.1-0.3-5.3-0.5-6.5-0.4s-4.8,1.3-5.8,1.9
				c-1,0.5-3.7,3.1-4.5,4s-2.6,4.6-3,5.7c-0.4,1.2-0.1,4.6,1.3,4.6h11.3c1.4,0,3.7,0,5.1,0H541.2z"/>
			<path class="st0" d="M532.2,153.3c-1.4,0.1-3.7,0.1-5.1,0l-3.2-0.3c-1.4-0.2-3.7-0.6-5.1-0.9l-2.8-0.8c-1.3-0.4-3.5-1.3-4.8-1.9
				c0,0-1.1-0.5-2.3-1.2c-1.2-0.7-3.1-1.9-4.3-2.7c-1.1-0.8-4.6-4.1-5.5-5.1s-3.7-4.9-4.4-6.1c-0.7-1.2-2.7-5.7-3.2-7l-0.8-2.8
				c-0.3-1.4-0.8-3.6-0.9-5l-0.3-3.4c-0.1-1.4-0.1-2.6-0.1-2.6c0,0,0-0.1,0-0.1c0,0,0.1-1.2,0.1-2.6l0.3-2.9
				c0.2-1.4,0.6-3.7,0.9-5.1l0.7-2.6c0.4-1.3,1.3-3.5,1.8-4.8c0,0,0.5-1.1,1.1-2.3c0.7-1.2,1.8-3.1,2.6-4.3c0.8-1.1,3.9-4.7,4.8-5.6
				c1-0.9,4.7-3.8,5.8-4.5c1.1-0.7,5.5-2.8,6.8-3.3c1.3-0.5,6.1-1.6,7.5-1.8l3-0.3c1.4-0.1,3.7-0.1,5.1,0l3.9,0.4
				c1.4,0.2,3.7,0.7,5,1l2.8,0.9c1.3,0.5,3.4,1.5,4.6,2.2c0,0,1,0.6,2.2,1.4s2.9,2.2,3.9,3.1c1,0.9,4.1,4.5,4.9,5.6
				c0.8,1.1,3.1,5.3,3.7,6.5c0.6,1.3,2.1,5.9,2.4,7.3l0.6,2.7c0.2,1.4,0.6,3.7,0.7,5.1l0.2,2.9c0,1.4,0.1,2.8,0.1,3s0,1.1,0,1.4
				c0,0.3-0.1,1.2-0.1,1.4c0,0.3-0.1,1.2-0.1,1.5s-1.2,1-2.7,1h-21.7c-1.4,0-3.7,0-5.1,0h-21.7c-1.4,0-2.3,1.1-1.9,2.3s2.3,5,3,6
				c0.7,1,3.7,3.5,4.6,4.1c1,0.6,4.8,2,6,2.2c1.2,0.3,5.4,0.4,6.4,0.4c1,0,4.1-0.6,5-0.8s3.7-1.3,4.5-1.7c0.8-0.4,3.6-2.2,4.4-2.8
				s3.9-1.7,5-0.8l2.4,2.1c1.1,0.9,2.8,2.5,3.8,3.4l2.4,2.1c1.1,0.9,1.2,2.6,0.2,3.6l-2.4,2.4c-1.1,0.9-2.9,2.4-4,3.2l-2.9,1.8
				c-1.2,0.7-3.3,1.7-4.6,2.2l-3.6,1.2c-1.4,0.4-3.6,0.8-5,1.1L532.2,153.3z M541.2,107.1c1.4,0,2.4-1,2.1-2.3
				c-0.3-1.3-1.8-5.1-2.3-6.2c-0.5-1-3.1-4-3.9-4.7c-0.8-0.7-4.2-2.3-5.3-2.6c-1.1-0.3-5.3-0.5-6.5-0.4s-4.8,1.3-5.8,1.9
				c-1,0.5-3.7,3.1-4.5,4s-2.6,4.6-3,5.7c-0.4,1.2-0.1,4.6,1.3,4.6h11.3c1.4,0,3.7,0,5.1,0H541.2z"/>
		</g>
		<g>
			<path class="st0" d="M610.4,153.1c-1.1,0-3.2,0-4.6,0l-3.2-0.3c-1.4-0.2-3.7-0.6-5.1-0.8l-3.5-0.9c-1.4-0.4-3.5-1.1-4.9-1.6
				l-3.7-1.6c-1.3-0.6-3.3-1.7-4.5-2.4l-3.7-2.4c-1.1-0.8-1.5-2.5-0.7-3.7l1.9-2.9c0.8-1.2,2-3.1,2.8-4.3l1.9-2.9
				c0.8-1.2,2.3-1.5,3.5-0.7c1.2,0.8,5.1,3.1,6.3,3.6s5.1,2.1,6.2,2.5c1.1,0.4,4.9,1.2,5.9,1.3s4.4,0.3,5.2,0.2
				c0.8,0,3.1-0.5,3.7-0.7c0.6-0.2,2.1-1.1,2.5-1.4c0.4-0.3,1.1-1.6,1.3-2c0.2-0.4,0.3-1.6,0.3-1.7c0,0,0-0.1,0-0.1s0-0.3-0.1-0.6
				c0-0.3-0.4-1.3-0.5-1.5c-0.1-0.3-0.9-1.1-1.2-1.3c-0.3-0.2-1.3-0.9-1.7-1.1c-0.3-0.2-1.7-0.8-2.1-1c-0.4-0.2-2-0.7-2.5-0.9
				s-2.3-0.7-2.8-0.9c-0.5-0.2-2.4-0.7-3-0.9c-0.6-0.2-2.7-0.8-3.4-1.1c-0.7-0.2-3.3-1.1-4.1-1.4c-0.7-0.3-3.3-1.3-4.1-1.6
				c-0.7-0.3-3.1-1.7-3.8-2.1s-2.8-2.1-3.4-2.6c-0.6-0.5-2.3-2.5-2.8-3.2c-0.5-0.6-1.8-3.1-2.2-3.8c-0.3-0.8-1.1-3.7-1.2-4.6
				c-0.1-0.9-0.3-3.6-0.3-3.6c0,0,0-0.1,0-0.1c0,0,0-0.9,0.1-2c0.1-1.1,0.7-4.4,0.9-5.3s1.6-3.8,2-4.6s2.3-3.3,2.9-4
				c0.6-0.7,2.9-2.7,3.7-3.3c0.7-0.5,3.5-2.1,4.4-2.5s4-1.5,5-1.7s4.4-0.8,5.4-0.9c1-0.1,4.9-0.2,6.3-0.1c1.4,0.1,6.1,0.7,7.4,1
				c1.4,0.3,6.1,1.7,7.4,2.1l2.5,1c1.3,0.6,3.4,1.5,4.6,2.2c1.2,0.6,3.8,3.6,3.1,4.8l-1.7,3.1c-0.7,1.2-1.8,3.3-2.5,4.5l-1.7,3.1
				c-0.7,1.2-2.1,1.8-3.1,1.2s-4.6-2.3-5.6-2.7s-4.5-1.7-5.5-2s-4.1-1-4.9-1.1c-0.9-0.1-3.5-0.2-4.2-0.2s-2.7,0.5-3.2,0.6
				s-1.9,1.1-2.2,1.4s-1,1.5-1.2,1.8c-0.1,0.4-0.3,1.5-0.3,1.5c0,0,0,0.1,0,0.1c0,0,0,0.3,0.1,0.6s0.4,1.2,0.5,1.4
				c0.1,0.2,0.9,1,1.2,1.3c0.3,0.2,1.3,1,1.7,1.2c0.3,0.2,1.7,0.9,2.1,1.1c0.4,0.2,2,0.9,2.4,1.1c0.5,0.2,2.2,0.8,2.7,1s2.4,0.8,3,1
				c0.6,0.2,2.7,0.9,3.4,1.1c0.7,0.2,3.3,1.2,4.1,1.5s3.4,1.4,4.1,1.8c0.7,0.3,3.1,1.7,3.8,2.1s2.8,2,3.4,2.5
				c0.6,0.5,2.4,2.5,2.8,3.1s1.9,2.9,2.2,3.7c0.3,0.7,1.1,3.5,1.3,4.4c0.1,0.9,0.3,3.4,0.3,3.4c0,0,0,0.1,0,0.1s0,1-0.1,2.2
				s-0.7,4.7-0.9,5.7s-1.6,4-2,4.8s-2.4,3.3-3,4c-0.6,0.7-3.1,2.6-3.9,3.2s-3.7,2-4.6,2.4s-4.3,1.4-5.3,1.6
				C617.1,152.3,611.5,153,610.4,153.1z"/>
			<path class="st0" d="M610.4,153.1c-1.1,0-3.2,0-4.6,0l-3.2-0.3c-1.4-0.2-3.7-0.6-5.1-0.8l-3.5-0.9c-1.4-0.4-3.5-1.1-4.9-1.6
				l-3.7-1.6c-1.3-0.6-3.3-1.7-4.5-2.4l-3.7-2.4c-1.1-0.8-1.5-2.5-0.7-3.7l1.9-2.9c0.8-1.2,2-3.1,2.8-4.3l1.9-2.9
				c0.8-1.2,2.3-1.5,3.5-0.7c1.2,0.8,5.1,3.1,6.3,3.6s5.1,2.1,6.2,2.5c1.1,0.4,4.9,1.2,5.9,1.3s4.4,0.3,5.2,0.2
				c0.8,0,3.1-0.5,3.7-0.7c0.6-0.2,2.1-1.1,2.5-1.4c0.4-0.3,1.1-1.6,1.3-2c0.2-0.4,0.3-1.6,0.3-1.7c0,0,0-0.1,0-0.1s0-0.3-0.1-0.6
				c0-0.3-0.4-1.3-0.5-1.5c-0.1-0.3-0.9-1.1-1.2-1.3c-0.3-0.2-1.3-0.9-1.7-1.1c-0.3-0.2-1.7-0.8-2.1-1c-0.4-0.2-2-0.7-2.5-0.9
				s-2.3-0.7-2.8-0.9c-0.5-0.2-2.4-0.7-3-0.9c-0.6-0.2-2.7-0.8-3.4-1.1c-0.7-0.2-3.3-1.1-4.1-1.4c-0.7-0.3-3.3-1.3-4.1-1.6
				c-0.7-0.3-3.1-1.7-3.8-2.1s-2.8-2.1-3.4-2.6c-0.6-0.5-2.3-2.5-2.8-3.2c-0.5-0.6-1.8-3.1-2.2-3.8c-0.3-0.8-1.1-3.7-1.2-4.6
				c-0.1-0.9-0.3-3.6-0.3-3.6c0,0,0-0.1,0-0.1c0,0,0-0.9,0.1-2c0.1-1.1,0.7-4.4,0.9-5.3s1.6-3.8,2-4.6s2.3-3.3,2.9-4
				c0.6-0.7,2.9-2.7,3.7-3.3c0.7-0.5,3.5-2.1,4.4-2.5s4-1.5,5-1.7s4.4-0.8,5.4-0.9c1-0.1,4.9-0.2,6.3-0.1c1.4,0.1,6.1,0.7,7.4,1
				c1.4,0.3,6.1,1.7,7.4,2.1l2.5,1c1.3,0.6,3.4,1.5,4.6,2.2c1.2,0.6,3.8,3.6,3.1,4.8l-1.7,3.1c-0.7,1.2-1.8,3.3-2.5,4.5l-1.7,3.1
				c-0.7,1.2-2.1,1.8-3.1,1.2s-4.6-2.3-5.6-2.7s-4.5-1.7-5.5-2s-4.1-1-4.9-1.1c-0.9-0.1-3.5-0.2-4.2-0.2s-2.7,0.5-3.2,0.6
				s-1.9,1.1-2.2,1.4s-1,1.5-1.2,1.8c-0.1,0.4-0.3,1.5-0.3,1.5c0,0,0,0.1,0,0.1c0,0,0,0.3,0.1,0.6s0.4,1.2,0.5,1.4
				c0.1,0.2,0.9,1,1.2,1.3c0.3,0.2,1.3,1,1.7,1.2c0.3,0.2,1.7,0.9,2.1,1.1c0.4,0.2,2,0.9,2.4,1.1c0.5,0.2,2.2,0.8,2.7,1s2.4,0.8,3,1
				c0.6,0.2,2.7,0.9,3.4,1.1c0.7,0.2,3.3,1.2,4.1,1.5s3.4,1.4,4.1,1.8c0.7,0.3,3.1,1.7,3.8,2.1s2.8,2,3.4,2.5
				c0.6,0.5,2.4,2.5,2.8,3.1s1.9,2.9,2.2,3.7c0.3,0.7,1.1,3.5,1.3,4.4c0.1,0.9,0.3,3.4,0.3,3.4c0,0,0,0.1,0,0.1s0,1-0.1,2.2
				s-0.7,4.7-0.9,5.7s-1.6,4-2,4.8s-2.4,3.3-3,4c-0.6,0.7-3.1,2.6-3.9,3.2s-3.7,2-4.6,2.4s-4.3,1.4-5.3,1.6
				C617.1,152.3,611.5,153,610.4,153.1z"/>
		</g>
		<g>
			<path class="st0" d="M654,49.2c0-1.4,1.2-2.6,2.6-2.6h6.4c1.4,0,3.7,0,5.1,0h6.4c1.4,0,2.6,1.2,2.6,2.6v4.6c0,1.4,0,3.7,0,5.1
				v4.6c0,1.4-1.2,2.6-2.6,2.6h-6.4c-1.4,0-3.7,0-5.1,0h-6.4c-1.4,0-2.6-1.2-2.6-2.6v-4.6c0-1.4,0-3.7,0-5.1V49.2z M654.6,77.1
				c0-1.4,1.2-2.6,2.6-2.6h5.8c1.4,0,3.7,0,5.1,0h5.8c1.4,0,2.6,1.2,2.6,2.6v33.4c0,1.4,0,3.7,0,5.1v33.4c0,1.4-1.2,2.6-2.6,2.6
				h-5.8c-1.4,0-3.7,0-5.1,0h-5.8c-1.4,0-2.6-1.2-2.6-2.6v-33.4c0-1.4,0-3.7,0-5.1V77.1z"/>
			<path class="st0" d="M654,49.2c0-1.4,1.2-2.6,2.6-2.6h6.4c1.4,0,3.7,0,5.1,0h6.4c1.4,0,2.6,1.2,2.6,2.6v4.6c0,1.4,0,3.7,0,5.1
				v4.6c0,1.4-1.2,2.6-2.6,2.6h-6.4c-1.4,0-3.7,0-5.1,0h-6.4c-1.4,0-2.6-1.2-2.6-2.6v-4.6c0-1.4,0-3.7,0-5.1V49.2z M654.6,77.1
				c0-1.4,1.2-2.6,2.6-2.6h5.8c1.4,0,3.7,0,5.1,0h5.8c1.4,0,2.6,1.2,2.6,2.6v33.4c0,1.4,0,3.7,0,5.1v33.4c0,1.4-1.2,2.6-2.6,2.6
				h-5.8c-1.4,0-3.7,0-5.1,0h-5.8c-1.4,0-2.6-1.2-2.6-2.6v-33.4c0-1.4,0-3.7,0-5.1V77.1z"/>
		</g>
		<g>
			<path class="st0" d="M697,49.2c0-1.4,1.2-2.6,2.6-2.6h5.8c1.4,0,3.7,0,5.1,0h5.8c1.4,0,2.6,1.2,2.6,2.6v22.9c0,1.4,0,3.7,0,5.1
				v22.9c0,1.4,0.8,1.7,1.7,0.7l9.3-10.2c1-1,2.5-2.8,3.5-3.8l9.3-10.2c1-1,2.9-1.9,4.3-1.9h8c1.4,0,3.7,0,5.1,0h10.5l-12.9,13.3
				c-1,1-2.6,2.7-3.6,3.7l-11.1,11.5c-1,1-1.2,2.8-0.4,4l12.4,19.1c0.8,1.2,2,3.1,2.8,4.3l13.5,20.8c0.2,0.3,0.1,0.5-0.3,0.5h-9.4
				c-1.4,0-3.7,0-5.1,0h-7.4c-1.4,0-3.2-1-4-2.2l-7.3-11.4c-0.8-1.2-2-3.1-2.8-4.3l-7.3-11.4c-0.8-1.2-2.2-1.3-3.1-0.3l-0.3,0.3
				c-1,1-2.6,2.7-3.5,3.7l-0.3,0.3c-1,1-1.8,3-1.8,4.4v6.6c0,1.4,0,3.7,0,5.1v6.6c0,1.4-1.2,2.6-2.6,2.6h-5.8c-1.4,0-3.7,0-5.1,0
				h-5.8c-1.4,0-2.6-1.2-2.6-2.6v-47.4c0-1.4,0-3.7,0-5.1V49.2z"/>
			<path class="st0" d="M697,49.2c0-1.4,1.2-2.6,2.6-2.6h5.8c1.4,0,3.7,0,5.1,0h5.8c1.4,0,2.6,1.2,2.6,2.6v22.9c0,1.4,0,3.7,0,5.1
				v22.9c0,1.4,0.8,1.7,1.7,0.7l9.3-10.2c1-1,2.5-2.8,3.5-3.8l9.3-10.2c1-1,2.9-1.9,4.3-1.9h8c1.4,0,3.7,0,5.1,0h10.5l-12.9,13.3
				c-1,1-2.6,2.7-3.6,3.7l-11.1,11.5c-1,1-1.2,2.8-0.4,4l12.4,19.1c0.8,1.2,2,3.1,2.8,4.3l13.5,20.8c0.2,0.3,0.1,0.5-0.3,0.5h-9.4
				c-1.4,0-3.7,0-5.1,0h-7.4c-1.4,0-3.2-1-4-2.2l-7.3-11.4c-0.8-1.2-2-3.1-2.8-4.3l-7.3-11.4c-0.8-1.2-2.2-1.3-3.1-0.3l-0.3,0.3
				c-1,1-2.6,2.7-3.5,3.7l-0.3,0.3c-1,1-1.8,3-1.8,4.4v6.6c0,1.4,0,3.7,0,5.1v6.6c0,1.4-1.2,2.6-2.6,2.6h-5.8c-1.4,0-3.7,0-5.1,0
				h-5.8c-1.4,0-2.6-1.2-2.6-2.6v-47.4c0-1.4,0-3.7,0-5.1V49.2z"/>
		</g>
	</g>
	<g>
		<path class="st0" d="M139.9,167.5c-4-1.1-5.5-2.4-5.8-2.9c0.3-0.4,1.5-1.3,4.4-1.9c3.6,0.3,7.1,0.5,10.4,0.7
			C146,165,143,166.4,139.9,167.5z"/>
		<path class="st0" d="M172.4,112.9c-0.3-1.8-0.6-3.3-0.8-4.3c6.3-14.9,9.3-28,10.8-37.7c1.3,3.1,2.3,6.2,3.2,9.5
			c-1.1,6.4-3,12.7-5.5,18.6C177.6,104.7,174.8,109.4,172.4,112.9z"/>
		<path class="st0" d="M105.5,171.6c-0.6-0.1-1.3-0.2-1.9-0.3c-2.7-0.4-5.3-1-7.9-1.6c-2.7-4.8-4.4-9.3-5.3-13.7
			c-0.3-1.6-0.6-3-0.4-4.1c0.1-0.9,0.4-1.9,0.8-3.3c1.2-3.4,2.9-6.7,4.4-9.5c1.7-3.1,3.7-6.5,6.1-10.2c2.7-4.2,5.2-8,7.6-11.4
			l1.1-1.5l-0.6-1.8c-9.2-27.7-3.4-51.9,3-67.4c2.7-6.4,6-12.6,9.8-18.5c2,0.1,4,0.4,6,0.6c1.1,0.2,2.2,0.4,3.4,0.6
			c-12.6,19.6-16,38.5-16.5,51.1c-0.7,17.1,3.2,28.7,3.4,29.2l3.8,10.9c-1.2,1.1-2.5,2.2-3.8,3.5c-12.3,11.7-18,26.7-18,33.1
			C100.4,160.9,102.3,166.2,105.5,171.6z"/>
		<path class="st0" d="M47.5,118.8c-0.8-2.6-1.3-5.3-1.7-8.1c-0.4-3-0.7-6-0.7-9c1.8-4.2,4-8.3,6.8-12.3c3.2-4.6,6.5-8.4,9.5-11.3
			c-0.4,2.7-0.6,5.5-0.6,8.3c0,2.2,0.2,4.4,0.4,6.5c0.2,1.8,0.3,3.7,0.4,5.5c0.1,3.9-0.4,6.9-1.7,9.3c-1.3,2.5-3.5,4.9-6.7,7.3
			C51.3,116.4,49.4,117.6,47.5,118.8z"/>
		<path class="st0" d="M187.1,104.9c0,0,8.5-18.6,7.4-38.8l-2-11.4l-0.5,9.9V79l-3.6,15l-4.2,13L187.1,104.9z"/>
		<path class="st0" d="M87.3,147.4c1.2-3.5,2.9-6.8,4.6-10.1c1.9-3.6,4-7,6.2-10.5c2.5-3.9,5-7.8,7.7-11.5C87.3,59.5,126,17,126,17
			c-16.8-3.4-62.8-0.8-86.3,41.1c-23.6,42-2.6,87-2.6,87c-11.9-50.8,32-80.4,32-80.4c-0.4,0.9-0.7,1.9-1,2.8
			c-1.9,5.5-2.8,11.2-2.7,17.1c0.1,4.6,0.7,9.1,0.8,13.6c0.1,4.2-0.3,8.6-2.3,12.3c-2,3.8-5.2,6.9-8.6,9.5
			c-4.4,3.4-9.5,6.3-14.7,8.4c3.9,9.2,9.3,17.6,15.9,25.1c5.8,6.6,12.5,12.5,19.8,17.5c5.3,3.7,11,6.9,16.9,9.7
			c1.8,0.8,3.6,1.6,5.4,2.3c0.1,0.1,2.4,1,2.4,0.9c0.1-0.1-0.9-1.2-1.1-1.3c-0.4-0.5-0.8-1-1.1-1.5c-0.7-0.9-1.4-1.8-2-2.8
			c-1.3-1.8-2.5-3.7-3.6-5.6c-2.9-5-5.3-10.4-6.5-16.1c-0.3-1.7-0.7-3.5-0.5-5.3C86.4,150.1,86.8,148.7,87.3,147.4z"/>
		<path class="st0" d="M168.9,123.2c1.1-6.9-1.2-14.9-1.2-14.9c15.2-35.5,12-60.6,12-60.6c-12.3-18.1-36.9-27.3-36.9-27.3
			c-36.4,43.3-20.9,88.2-20.9,88.2c1.9-37,23.3-27.5,20.6-11.5c-2.6,16-9.6,18.2-21.6,29.7c-12,11.5-16.9,25.7-16.9,30.5
			c0,4.8,5.4,16.8,16.4,26.4c26,2.3,42.5-11.9,42.5-11.9c-33.4,3.8-40.1-9.9-24.7-12.8c34.3,2.8,41.7-0.3,41.7-0.3
			c46-53.9,6.8-120.2,6.8-120.2C201.3,90.9,168.9,123.2,168.9,123.2z M126,75.8c0,0,3-26,19.3-44.5c0,0,15.3,3.9,25.5,18
			c0,0-13.9,18.2-20,45.4c2.3-25.8,10.4-42.3,10.4-42.3c-7.6-9-15.7-10.5-15.7-10.5C131.4,56.2,126,75.8,126,75.8z M194.1,66.5
			l-1-0.9l-0.2,1.5l0-5.3L194.1,66.5z"/>
		<path class="st0" d="M127.7,106.7c0.6-11.7,4.1-14.8,5.8-14.8c0.7,0,1.3,0.4,1.9,1.1c1.1,1.3,1.6,3.4,1.2,5.6
			c-1.2,7.5-3.8,9.7-8.8,14.1c-0.1,0.1-0.3,0.2-0.4,0.3L127.7,106.7z"/>
	</g>
</g>
</svg>
