<?xml version="1.0" encoding="utf-8"?>
<!-- Generator: Adobe Illustrator 19.2.0, SVG Export Plug-In . SVG Version: 6.00 Build 0)  -->
<svg version="1.1" id="Layer_1" xmlns="http://www.w3.org/2000/svg" xmlns:xlink="http://www.w3.org/1999/xlink" x="0px" y="0px"
	 viewBox="0 0 75 75" style="enable-background:new 0 0 75 75;" xml:space="preserve">
<style type="text/css">
	.st0{opacity:0.6;}
	.st1{fill:#FDFDFD;}
	.st2{opacity:0.8;fill:#FDFDFD;}
</style>
<g class="st0">
	<path class="st1" d="M37.5,38.3L11.4,19.1L37.5,5.8l26.1,13.3L37.5,38.3z M13.1,19.3l24.4,17.9l24.4-17.9L37.5,6.8L13.1,19.3z"/>
</g>
<polygon class="st2" points="57.1,25 55.9,25.8 65.6,30.7 37.5,51.3 9.4,30.7 19.1,25.8 17.9,25 7,30.5 37.5,52.9 68,30.5 "/>
<polygon class="st1" points="61.9,37.1 60.4,38.3 70,43.2 37.5,67 5,43.2 14.6,38.3 13.1,37.1 1.8,42.9 37.5,69.2 73.2,42.9 "/>
</svg>
