<svg xmlns="http://www.w3.org/2000/svg" viewBox="0 0 224.28 154.36"><defs><style>.cls-1{isolation:isolate;}.cls-2{fill:#2e2e2e;}.cls-3{fill:#231f20;}</style></defs><title>자산 1</title><g id="레이어_2" data-name="레이어 2"><g id="Layer_1" data-name="Layer 1"><g class="cls-1"><path class="cls-2" d="M19.29,16.46a5.26,5.26,0,0,0-2.83-.78,4.43,4.43,0,0,0-3.64,1.79,7.48,7.48,0,0,0-1.4,4.71A7.69,7.69,0,0,0,12.8,27a4.33,4.33,0,0,0,3.66,1.82,4.9,4.9,0,0,0,4.82-3.36l8.79,4.43a12.6,12.6,0,0,1-5.46,5.82,17.73,17.73,0,0,1-8.76,2.07A17.3,17.3,0,0,1,7.5,35.81,13.66,13.66,0,0,1,2,30.38a16.36,16.36,0,0,1-2-8.15A16.61,16.61,0,0,1,2,14a13.84,13.84,0,0,1,5.6-5.52,17.36,17.36,0,0,1,8.37-2,16.78,16.78,0,0,1,8.43,2.08A14,14,0,0,1,30,14.45L21.34,18.7A5.94,5.94,0,0,0,19.29,16.46Z"/><path class="cls-2" d="M57.62,8.43a14.19,14.19,0,0,1,5.91,5.46,15.77,15.77,0,0,1,2.1,8.23,15.81,15.81,0,0,1-2.1,8.2,14.13,14.13,0,0,1-5.91,5.49,19.39,19.39,0,0,1-8.9,1.93,19.55,19.55,0,0,1-8.93-1.93,14.09,14.09,0,0,1-5.94-5.49,15.81,15.81,0,0,1-2.1-8.2,15.77,15.77,0,0,1,2.1-8.23,14.15,14.15,0,0,1,5.94-5.46A19.55,19.55,0,0,1,48.72,6.5,19.39,19.39,0,0,1,57.62,8.43Zm-12.93,8.9a7.57,7.57,0,0,0-1.51,4.9,7.52,7.52,0,0,0,1.51,4.93,5.26,5.26,0,0,0,8,0,7.58,7.58,0,0,0,1.51-4.93,7.62,7.62,0,0,0-1.51-4.9,5.22,5.22,0,0,0-8,0Z"/><path class="cls-2" d="M97.8,7.87a9.79,9.79,0,0,1,3.87,4.06A13.06,13.06,0,0,1,103,18V37.35H91.73V21.28a5.12,5.12,0,0,0-1.21-3.58,4,4,0,0,0-3.16-1.35A4.64,4.64,0,0,0,83.72,18a6.47,6.47,0,0,0-1.34,4.26V37.35H71.06V6.89H82.38v4.7a10.92,10.92,0,0,1,4.06-3.83,11.61,11.61,0,0,1,5.62-1.32A11.34,11.34,0,0,1,97.8,7.87Z"/><path class="cls-2" d="M130.81,35.9a15.19,15.19,0,0,1-3.94,1.42,20.62,20.62,0,0,1-4.68.54,11,11,0,0,1-7.78-2.69,9.5,9.5,0,0,1-2.91-7.34V15.68h-4.2V8.46h4.2V0h11.25V8.46h7.5v7.22h-7.5V26.1a3.09,3.09,0,0,0,.67,2.18,2.47,2.47,0,0,0,1.91.73,11.59,11.59,0,0,0,3.47-.9Z"/><path class="cls-2" d="M160.47,9.38a10,10,0,0,1,3.61,8.21V37.35H153V34a9.1,9.1,0,0,1-3.67,2.86,12.81,12.81,0,0,1-5.23,1,10.52,10.52,0,0,1-7.56-2.61,9.15,9.15,0,0,1-2.75-7,8.16,8.16,0,0,1,3-6.8q3-2.39,8.76-2.44H153v-.11a3.59,3.59,0,0,0-1.34-3,6.23,6.23,0,0,0-3.92-1.06,19.07,19.07,0,0,0-4.29.56,28.38,28.38,0,0,0-4.9,1.62l-2.8-7.5a39.05,39.05,0,0,1,14.67-3.14Q156.86,6.44,160.47,9.38ZM151,29.63a4.84,4.84,0,0,0,2-2.3V24.59h-5.15q-3.42,0-3.42,2.85a2.81,2.81,0,0,0,.9,2.24,3.71,3.71,0,0,0,2.52.78A6,6,0,0,0,151,29.63Z"/><path class="cls-2" d="M188,16.46a5.26,5.26,0,0,0-2.83-.78,4.43,4.43,0,0,0-3.64,1.79,7.48,7.48,0,0,0-1.4,4.71A7.69,7.69,0,0,0,181.47,27a4.33,4.33,0,0,0,3.66,1.82A4.9,4.9,0,0,0,190,25.42l8.79,4.43a12.6,12.6,0,0,1-5.46,5.82,17.73,17.73,0,0,1-8.76,2.07,17.3,17.3,0,0,1-8.35-1.93,13.66,13.66,0,0,1-5.54-5.43,16.36,16.36,0,0,1-2-8.15,16.71,16.71,0,0,1,2-8.26,14,14,0,0,1,5.6-5.52,17.37,17.37,0,0,1,8.38-2,16.78,16.78,0,0,1,8.43,2.08,13.87,13.87,0,0,1,5.62,5.88L190,18.7A5.84,5.84,0,0,0,188,16.46Z"/><path class="cls-2" d="M224.28,35.9a15.41,15.41,0,0,1-3.95,1.42,20.62,20.62,0,0,1-4.68.54,11,11,0,0,1-7.78-2.69A9.5,9.5,0,0,1,205,27.83V15.68h-4.2V8.46H205V0h11.26V8.46h7.5v7.22h-7.5V26.1a3.09,3.09,0,0,0,.67,2.18,2.43,2.43,0,0,0,1.9.73,11.52,11.52,0,0,0,3.47-.9Z"/></g><g class="cls-1"><path class="cls-2" d="M32.93,74.89v30.46H21.62v-4.53a10.8,10.8,0,0,1-3.95,3.75,11.18,11.18,0,0,1-5.41,1.29,10.92,10.92,0,0,1-5.62-1.43,9.64,9.64,0,0,1-3.78-4.06,13.35,13.35,0,0,1-1.35-6.16V74.89H12.82V91a5.34,5.34,0,0,0,1.12,3.55,3.71,3.71,0,0,0,3,1.32,4.29,4.29,0,0,0,3.45-1.68A6.77,6.77,0,0,0,21.62,90V74.89Z"/><path class="cls-2" d="M52.19,82a3.33,3.33,0,0,0-1.68.36,1.2,1.2,0,0,0-.61,1.1c0,.56.38,1,1.14,1.37A24.47,24.47,0,0,0,54.71,86a45.92,45.92,0,0,1,5.57,1.91,10.4,10.4,0,0,1,3.87,2.88,7.37,7.37,0,0,1,1.65,5,8.66,8.66,0,0,1-3.67,7.36q-3.66,2.72-9.71,2.72a26.74,26.74,0,0,1-7.7-1.1,21.9,21.9,0,0,1-6.64-3.22l3.47-7.11a25.39,25.39,0,0,0,5.69,2.8,16.56,16.56,0,0,0,5.34,1,4,4,0,0,0,1.85-.36,1.13,1.13,0,0,0,.67-1c0-.56-.36-1-1.09-1.37a22.8,22.8,0,0,0-3.61-1.2A40.36,40.36,0,0,1,45,92.36a10.36,10.36,0,0,1-3.81-2.86,7.31,7.31,0,0,1-1.62-4.92,8.88,8.88,0,0,1,3.58-7.45,15.05,15.05,0,0,1,9.41-2.75,26.36,26.36,0,0,1,13.38,3.7l-3.75,7.11Q56,82,52.19,82Z"/></g><rect class="cls-3" x="4.02" y="148.86" width="20.62" height="5.5"/></g></g></svg>