<?xml version="1.0" encoding="utf-8"?>
<!-- Generator: Adobe Illustrator 16.0.0, SVG Export Plug-In . SVG Version: 6.00 Build 0)  -->
<!DOCTYPE svg PUBLIC "-//W3C//DTD SVG 1.1//EN" "http://www.w3.org/Graphics/SVG/1.1/DTD/svg11.dtd">
<svg version="1.1" id="Layer_1" xmlns="http://www.w3.org/2000/svg" xmlns:xlink="http://www.w3.org/1999/xlink" x="0px" y="0px"
	 width="480px" height="300px" viewBox="0 0 480 300" enable-background="new 0 0 480 300" xml:space="preserve">
<title>official channel</title>
<g id="레이어_2">
	<g id="Layer_1_1_">
		<g>
			<path fill="#2E2E2E" d="M47.924,29.635c4.548,2.244,8.35,5.756,10.946,10.113c2.665,4.638,4.009,9.915,3.89,15.262
				c0.108,5.322-1.236,10.573-3.89,15.188c-2.583,4.381-6.387,7.915-10.946,10.168c-5.114,2.49-10.742,3.74-16.429,3.649
				c-5.762,0.152-11.477-1.073-16.67-3.575c-4.555-2.253-8.353-5.788-10.928-10.168c-2.651-4.616-3.996-9.866-3.889-15.188
				c-0.123-5.347,1.223-10.626,3.889-15.262c2.578-4.384,6.375-7.924,10.928-10.187c5.202-2.467,10.915-3.667,16.67-3.501
				C37.17,25.998,42.798,27.197,47.924,29.635z M23.975,46.305c-1.969,2.604-2.965,5.815-2.815,9.076
				c-0.161,3.279,0.835,6.512,2.815,9.131c1.797,2.237,4.541,3.5,7.409,3.408c2.872,0.109,5.623-1.157,7.409-3.408
				c1.98-2.619,2.977-5.852,2.815-9.131c0.149-3.261-0.846-6.472-2.815-9.076c-1.767-2.284-4.523-3.579-7.409-3.482
				C28.502,42.744,25.753,44.036,23.975,46.305z"/>
			<path fill="#2E2E2E" d="M98.174,23.134c-1.094,1.012-1.684,2.457-1.611,3.945v2.686h11.725v13.392H96.471v40.192H75.725V43.156
				h-7.668V29.765h7.668v-5.186c-0.226-5.359,2.029-10.524,6.112-14.002c4.557-3.614,10.268-5.456,16.077-5.187
				c4.333-0.003,8.641,0.679,12.762,2.019l-2.278,15.559c-1.933-0.733-3.959-1.188-6.02-1.352
				C100.836,21.58,99.337,22.121,98.174,23.134z"/>
		</g>
		<g>
			<path fill="#2E2E2E" d="M145.945,23.134c-1.094,1.012-1.684,2.457-1.611,3.945v2.686h11.725v13.392h-11.725v40.192h-20.745
				V43.156h-7.668V29.765h7.668v-5.186c-0.226-5.359,2.029-10.524,6.112-14.002c4.557-3.614,10.268-5.456,16.077-5.187
				c4.333-0.003,8.641,0.679,12.762,2.019l-2.204,15.614c-1.933-0.733-3.959-1.188-6.02-1.352
				C148.725,21.577,147.159,22.101,145.945,23.134z"/>
		</g>
		<g>
			<path fill="#2E2E2E" d="M184.602,3c2.023,2.073,3.107,4.885,3,7.779c0.272,5.691-4.121,10.525-9.812,10.797
				c-0.322,0.016-0.645,0.016-0.967,0.001c-2.92,0.099-5.753-1.006-7.835-3.056c-2.059-2.054-3.167-4.874-3.056-7.779
				c-0.104-2.905,1.003-5.722,3.056-7.779c2.101-2.011,4.929-3.081,7.835-2.963C179.718-0.109,182.53,0.976,184.602,3z
				 M166.45,26.857h20.948v56.492H166.45V26.857z"/>
			<path fill="#2E2E2E" d="M233.184,44.601c-1.552-0.957-3.342-1.458-5.167-1.445c-2.653-0.065-5.171,1.173-6.741,3.315
				c-1.833,2.521-2.749,5.592-2.593,8.705c-0.16,3.157,0.731,6.277,2.536,8.872c1.563,2.185,4.111,3.448,6.797,3.371
				c4.021,0.101,7.627-2.465,8.85-6.297l16.28,8.187c-2.099,4.61-5.65,8.404-10.113,10.798c-4.987,2.652-10.574,3.973-16.224,3.834
				c-5.366,0.141-10.683-1.062-15.465-3.5c-4.321-2.29-7.886-5.783-10.261-10.058c-2.526-4.617-3.803-9.814-3.705-15.077
				c-0.115-5.335,1.162-10.608,3.705-15.299c2.396-4.339,5.999-7.891,10.372-10.224c4.772-2.524,10.104-3.799,15.503-3.704
				c5.45-0.105,10.83,1.217,15.61,3.834c4.479,2.517,8.105,6.308,10.428,10.891l-16.075,7.891
				C236.053,47.029,234.763,45.619,233.184,44.601z"/>
			<path fill="#2E2E2E" d="M280.023,3c2.022,2.073,3.106,4.885,3,7.779c0.114,2.896-0.972,5.71-3,7.779
				c-2.066,2.036-4.882,3.128-7.779,3.019c-2.92,0.099-5.753-1.006-7.834-3.056c-2.05-2.044-3.155-4.849-3.058-7.742
				c-0.104-2.905,1.004-5.722,3.058-7.779c2.095-2.024,4.923-3.108,7.834-3C275.138-0.107,277.951,0.978,280.023,3z M261.872,26.857
				h20.948v56.492h-20.948V26.857z"/>
			<path fill="#2E2E2E" d="M342.405,31.487c4.499,3.725,6.979,9.354,6.688,15.188v36.673h-20.541V77.07
				c-1.769,2.314-4.104,4.132-6.778,5.279c-3.066,1.298-6.375,1.929-9.705,1.852c-5.118,0.292-10.146-1.438-14.002-4.815
				c-3.47-3.397-5.316-8.117-5.076-12.965c-0.272-4.852,1.791-9.542,5.558-12.614c3.704-2.926,9.112-4.445,16.243-4.5h13.8v-0.223
				c0.131-2.15-0.806-4.228-2.5-5.557c-2.162-1.418-4.74-2.065-7.315-1.833c-2.673,0.053-5.331,0.4-7.929,1.037
				c-3.108,0.732-6.146,1.743-9.076,3.019l-5.223-13.91c8.598-3.672,17.823-5.642,27.172-5.797
				C331.72,26.042,337.947,27.857,342.405,31.487z M324.828,68.976c1.666-0.978,2.968-2.474,3.704-4.26v-5.075h-9.538
				c-4.198,0-6.305,1.766-6.315,5.297c-0.092,1.559,0.513,3.078,1.647,4.149c1.328,1.034,2.988,1.548,4.668,1.445
				C321.046,70.562,323.064,70.023,324.828,68.976L324.828,68.976z"/>
			<path fill="#2E2E2E" d="M362.483,6.334h20.947v77.014h-20.947V6.334z"/>
		</g>
		<g>
			<path fill="#2E2E2E" d="M35.736,170.551c-1.575-0.97-3.393-1.471-5.242-1.445c-2.653-0.059-5.168,1.18-6.742,3.315
				c-1.825,2.524-2.739,5.595-2.593,8.705c-0.152,3.159,0.747,6.278,2.556,8.872c1.558,2.182,4.099,3.445,6.779,3.371
				c4.048,0.127,7.69-2.441,8.928-6.297l16.281,8.186c-2.108,4.604-5.659,8.395-10.113,10.799
				c-4.988,2.652-10.577,3.973-16.225,3.834c-5.373,0.115-10.688-1.113-15.466-3.574c-4.285-2.277-7.821-5.746-10.187-9.982
				c-2.526-4.617-3.803-9.812-3.704-15.076c-0.116-5.335,1.161-10.605,3.704-15.299c2.396-4.34,5.999-7.893,10.373-10.227
				c4.771-2.522,10.105-3.799,15.502-3.703c5.45-0.104,10.833,1.218,15.614,3.834c4.465,2.539,8.076,6.352,10.372,10.945
				L39.496,174.7C38.627,173.012,37.331,171.581,35.736,170.551z"/>
			<path fill="#2E2E2E" d="M118.548,157.844c3.845,4.266,5.842,9.879,5.557,15.614v35.84h-20.893v-29.819
				c0.144-2.426-0.637-4.813-2.186-6.688c-1.517-1.635-3.682-2.512-5.909-2.389c-2.602-0.032-5.079,1.111-6.742,3.111
				c-1.732,2.246-2.611,5.035-2.482,7.869v27.913H64.945v-77.014h20.949v29.246c1.853-2.979,4.442-5.428,7.52-7.11
				c3.219-1.666,6.804-2.5,10.428-2.427C109.352,151.77,114.697,153.896,118.548,157.844z"/>
			<path fill="#2E2E2E" d="M182.189,157.438c4.52,3.713,7.019,9.346,6.742,15.188v36.673h-20.578v-6.224
				c-1.779,2.312-4.119,4.128-6.797,5.278c-3.067,1.299-6.375,1.933-9.706,1.853c-5.118,0.293-10.146-1.438-14.002-4.813
				c-3.469-3.396-5.316-8.117-5.075-12.968c-0.275-4.852,1.791-9.541,5.557-12.612c3.704-2.926,9.094-4.444,16.225-4.5h13.799
				v-0.224c0.127-2.149-0.807-4.228-2.5-5.557c-2.128-1.459-4.686-2.156-7.261-1.981c-2.672,0.053-5.331,0.399-7.927,1.037
				c-3.109,0.732-6.146,1.745-9.076,3.02l-5.186-13.91c8.597-3.672,17.825-5.641,27.171-5.797
				C171.521,151.991,177.818,153.732,182.189,157.438z M164.612,194.925c1.665-0.979,2.965-2.476,3.704-4.26v-5.075h-9.501
				c-4.223,0-6.334,1.766-6.334,5.297c-0.095,1.563,0.517,3.086,1.667,4.149c1.324,1.04,2.986,1.555,4.667,1.444
				C160.854,196.504,162.859,195.965,164.612,194.925z"/>
			<path fill="#2E2E2E" d="M251.265,154.621c3.062,1.76,5.547,4.373,7.148,7.52c1.758,3.51,2.627,7.396,2.537,11.317v35.84h-20.945
				v-29.819c0.12-2.418-0.674-4.793-2.224-6.648c-1.498-1.631-3.641-2.521-5.851-2.428c-2.603-0.041-5.082,1.104-6.739,3.111
				c-1.744,2.242-2.631,5.033-2.499,7.871v27.913h-20.945v-56.491h20.945v8.723c1.858-2.973,4.445-5.42,7.517-7.109
				c3.22-1.664,6.802-2.498,10.424-2.427C244.347,151.915,248.015,152.822,251.265,154.621z"/>
			<path fill="#2E2E2E" d="M323.353,154.621c3.062,1.76,5.547,4.373,7.15,7.52c1.762,3.508,2.639,7.395,2.555,11.317v35.84h-20.967
				v-29.819c0.123-2.418-0.67-4.793-2.224-6.648c-1.505-1.637-3.651-2.521-5.872-2.428c-2.604-0.03-5.078,1.111-6.74,3.111
				c-1.731,2.248-2.611,5.037-2.481,7.871v27.913h-20.948v-56.491h20.948v8.723c1.86-2.973,4.448-5.42,7.521-7.109
				c3.219-1.666,6.805-2.5,10.428-2.427C316.435,151.915,320.103,152.822,323.353,154.621z"/>
			<path fill="#2E2E2E" d="M392.995,160.326c5.188,5.494,7.779,13.015,7.779,22.56c0,1.464,0,2.538,0,3.224h-37.971
				c0.672,2.455,2.104,4.636,4.094,6.225c1.994,1.479,4.427,2.249,6.908,2.188c4.688-0.146,9.143-2.08,12.446-5.408l10.892,10.688
				c-2.986,3.326-6.7,5.92-10.854,7.574c-4.541,1.781-9.385,2.662-14.262,2.594c-5.601,0.143-11.15-1.085-16.17-3.574
				c-4.419-2.254-8.08-5.75-10.539-10.059c-2.531-4.621-3.81-9.826-3.703-15.095c-0.123-5.337,1.151-10.61,3.703-15.3
				c2.444-4.34,6.084-7.891,10.483-10.226c4.793-2.521,10.145-3.795,15.56-3.704C380.623,152.059,387.834,154.831,392.995,160.326z
				 M377.845,168.994c-1.564-1.783-3.852-2.77-6.224-2.686c-2.286-0.062-4.485,0.879-6.021,2.572
				c-1.698,1.977-2.811,4.391-3.203,6.967h17.725C380.291,173.354,379.472,170.893,377.845,168.994z"/>
			<path fill="#2E2E2E" d="M411.351,132.284h20.967v77.014h-20.967V132.284z"/>
		</g>
		<rect x="7.454" y="289.812" width="38.192" height="10.188"/>
	</g>
</g>
</svg>
