<svg xmlns="http://www.w3.org/2000/svg" viewBox="0 0 252.45 158.56"><defs><style>.cls-1{isolation:isolate;}.cls-2{fill:#2e2e2e;}.cls-3{fill:#231f20;}</style></defs><title>자산 1</title><g id="레이어_2" data-name="레이어 2"><g id="Layer_1" data-name="Layer 1"><g class="cls-1"><path class="cls-2" d="M30,12.66a13.11,13.11,0,0,1,5,5.54,18.62,18.62,0,0,1,1.76,8.29A18.38,18.38,0,0,1,35,34.64,12.65,12.65,0,0,1,30.13,40a13.75,13.75,0,0,1-7.28,1.9,11.49,11.49,0,0,1-4.87-1A10.66,10.66,0,0,1,14.22,38v14.4H2.91V11.09H14.22v3.53a10.35,10.35,0,0,1,3.64-2.92,10.9,10.9,0,0,1,4.71-1A13.81,13.81,0,0,1,30,12.66ZM23.74,31.11a7.57,7.57,0,0,0,1.51-4.9,7.55,7.55,0,0,0-1.51-4.9,4.91,4.91,0,0,0-4-1.88,4.85,4.85,0,0,0-4,1.88,7.55,7.55,0,0,0-1.52,4.9,7.55,7.55,0,0,0,1.52,4.9,4.84,4.84,0,0,0,4,1.87A4.9,4.9,0,0,0,23.74,31.11Z"/><path class="cls-2" d="M67.53,15.15q4.2,4.46,4.2,12.18c0,.78,0,1.36,0,1.73H51.18a6.49,6.49,0,0,0,2.21,3.36,5.94,5.94,0,0,0,3.73,1.18,9.89,9.89,0,0,0,6.72-2.91l5.88,5.77a15.7,15.7,0,0,1-5.85,4.08,20.19,20.19,0,0,1-7.7,1.4A18.6,18.6,0,0,1,47.43,40a13.66,13.66,0,0,1-5.68-5.43,16.16,16.16,0,0,1-2-8.15,16.51,16.51,0,0,1,2-8.26,14.06,14.06,0,0,1,5.66-5.52,17.54,17.54,0,0,1,8.4-2C60.83,10.7,64.74,12.18,67.53,15.15ZM59.3,19.83a4.53,4.53,0,0,0-6.61-.06A7.52,7.52,0,0,0,51,23.52h9.58A5.17,5.17,0,0,0,59.3,19.83Z"/><path class="cls-2" d="M100.69,12.63a14.25,14.25,0,0,1,5.91,5.46,15.86,15.86,0,0,1,2.1,8.23,15.81,15.81,0,0,1-2.1,8.2A14.13,14.13,0,0,1,100.69,40a21.58,21.58,0,0,1-17.84,0,14.09,14.09,0,0,1-5.94-5.49,15.81,15.81,0,0,1-2.1-8.2,15.77,15.77,0,0,1,2.1-8.23,14.15,14.15,0,0,1,5.94-5.46,21.58,21.58,0,0,1,17.84,0Zm-12.94,8.9a7.57,7.57,0,0,0-1.51,4.9,7.52,7.52,0,0,0,1.51,4.93,5.26,5.26,0,0,0,8,0,7.52,7.52,0,0,0,1.51-4.93,7.57,7.57,0,0,0-1.51-4.9,4.86,4.86,0,0,0-4-1.87A4.91,4.91,0,0,0,87.75,21.53Z"/><path class="cls-2" d="M141.45,12.66a13.11,13.11,0,0,1,5,5.54,18.49,18.49,0,0,1,1.76,8.29,18.51,18.51,0,0,1-1.7,8.15,12.67,12.67,0,0,1-4.85,5.4,13.75,13.75,0,0,1-7.28,1.9,11.53,11.53,0,0,1-4.87-1A10.54,10.54,0,0,1,125.72,38v14.4H114.41V11.09h11.31v3.53a10.26,10.26,0,0,1,3.64-2.92,10.85,10.85,0,0,1,4.7-1A13.78,13.78,0,0,1,141.45,12.66Zm-6.21,18.45a7.57,7.57,0,0,0,1.51-4.9,7.55,7.55,0,0,0-1.51-4.9,4.92,4.92,0,0,0-4-1.88,4.86,4.86,0,0,0-4,1.88,7.55,7.55,0,0,0-1.51,4.9,7.55,7.55,0,0,0,1.51,4.9,4.86,4.86,0,0,0,4,1.87A4.91,4.91,0,0,0,135.24,31.11Z"/><path class="cls-2" d="M153.88,0H165.2V41.55H153.88Z"/></g><g class="cls-1"><path class="cls-2" d="M199.58,15.15q4.2,4.46,4.2,12.18c0,.78,0,1.36-.06,1.73H183.23a6.37,6.37,0,0,0,2.21,3.36,5.93,5.93,0,0,0,3.72,1.18,9.9,9.9,0,0,0,6.73-2.91l5.87,5.77a15.54,15.54,0,0,1-5.85,4.08,20.12,20.12,0,0,1-7.7,1.4A18.56,18.56,0,0,1,179.48,40a13.68,13.68,0,0,1-5.69-5.43,16.26,16.26,0,0,1-2-8.15,16.51,16.51,0,0,1,2-8.26,14.06,14.06,0,0,1,5.66-5.52,17.48,17.48,0,0,1,8.4-2Q195.38,10.7,199.58,15.15Zm-8.23,4.68a4.53,4.53,0,0,0-6.61-.06A7.36,7.36,0,0,0,183,23.52h9.57A5.12,5.12,0,0,0,191.35,19.83Z"/></g><g class="cls-1"><path class="cls-2" d="M246.73,43.51l-5.26-5a18.17,18.17,0,0,1-10.81,3.59,16.41,16.41,0,0,1-7.11-1.49,12.11,12.11,0,0,1-4.93-4.11,10.43,10.43,0,0,1-1.79-6,9,9,0,0,1,2-5.94,19.06,19.06,0,0,1,5.46-4.37,20.53,20.53,0,0,1-2.36-4.42,12.29,12.29,0,0,1-.72-4.15,8.86,8.86,0,0,1,3.16-7.14q3.16-2.65,8.54-2.66A15.17,15.17,0,0,1,239,3a10,10,0,0,1,4.23,3.25,7.76,7.76,0,0,1,1.51,4.7,8.34,8.34,0,0,1-2.41,6.13,25.88,25.88,0,0,1-6.6,4.62c1.86,2,3.54,3.77,5,5.27a26.9,26.9,0,0,0,2.29-5.83l7.11,5.1a30.31,30.31,0,0,1-3.36,6.61c1.31,1.19,3.18,2.93,5.61,5.2Zm-11-10.69q-4.53-4.55-7.06-7.28c-1.75,1.19-2.63,2.56-2.63,4.08A4.24,4.24,0,0,0,227.44,33a5.33,5.33,0,0,0,3.67,1.26A8.78,8.78,0,0,0,235.7,32.82Zm-4.09-16.47a13.79,13.79,0,0,0,3.19-2.46A4.1,4.1,0,0,0,235.92,11a2.85,2.85,0,0,0-.81-2.13,2.9,2.9,0,0,0-2.1-.78,2.77,2.77,0,0,0-2.21,1,3.69,3.69,0,0,0-.81,2.47A9.13,9.13,0,0,0,231.61,16.35Z"/></g><g class="cls-1"><path class="cls-2" d="M14.11,86.2a3.33,3.33,0,0,0-1.68.36,1.2,1.2,0,0,0-.61,1.1c0,.56.38,1,1.14,1.37a24.47,24.47,0,0,0,3.67,1.2,45.92,45.92,0,0,1,5.57,1.91A10.4,10.4,0,0,1,26.07,95a7.37,7.37,0,0,1,1.65,5,8.66,8.66,0,0,1-3.67,7.36q-3.66,2.72-9.71,2.72a26.74,26.74,0,0,1-7.7-1.1A21.9,21.9,0,0,1,0,105.74l3.47-7.11a25.39,25.39,0,0,0,5.69,2.8,16.56,16.56,0,0,0,5.34.95,4,4,0,0,0,1.85-.36,1.13,1.13,0,0,0,.67-1c0-.56-.36-1-1.09-1.37a22.8,22.8,0,0,0-3.61-1.2,40.36,40.36,0,0,1-5.43-1.85A10.36,10.36,0,0,1,3.08,93.7a7.33,7.33,0,0,1-1.62-4.92A8.88,8.88,0,0,1,5,81.33a15.05,15.05,0,0,1,9.41-2.75,26.33,26.33,0,0,1,13.38,3.7l-3.75,7.11Q17.87,86.2,14.11,86.2Z"/><path class="cls-2" d="M46.26,118.76a13.33,13.33,0,0,1-7.73,2.16,15.67,15.67,0,0,1-5.15-.81,16.74,16.74,0,0,1-4.65-2.55l4.7-7.56a7.27,7.27,0,0,0,2,1.34,5.38,5.38,0,0,0,2.07.4,3.37,3.37,0,0,0,3.3-2l.56-1.07L28.78,79.09h11.6L47,97.74,52.7,79.09H64l-12.77,33A14.05,14.05,0,0,1,46.26,118.76Z"/><path class="cls-2" d="M78.85,86.2a3.33,3.33,0,0,0-1.68.36,1.21,1.21,0,0,0-.62,1.1c0,.56.38,1,1.15,1.37a24.08,24.08,0,0,0,3.67,1.2,46.54,46.54,0,0,1,5.57,1.91A10.36,10.36,0,0,1,90.8,95a7.38,7.38,0,0,1,1.66,5,8.69,8.69,0,0,1-3.67,7.36q-3.67,2.72-9.72,2.72a26.79,26.79,0,0,1-7.7-1.1,21.84,21.84,0,0,1-6.63-3.22l3.47-7.11a25.33,25.33,0,0,0,5.68,2.8,16.66,16.66,0,0,0,5.35.95,4,4,0,0,0,1.85-.36,1.13,1.13,0,0,0,.67-1c0-.56-.36-1-1.09-1.37a22.8,22.8,0,0,0-3.61-1.2,41,41,0,0,1-5.44-1.85,10.41,10.41,0,0,1-3.8-2.86,7.28,7.28,0,0,1-1.63-4.92,8.88,8.88,0,0,1,3.59-7.45,15,15,0,0,1,9.4-2.75,26.4,26.4,0,0,1,13.39,3.7l-3.75,7.11Q82.6,86.2,78.85,86.2Z"/><path class="cls-2" d="M119.11,108.1a15.27,15.27,0,0,1-4,1.42,20.47,20.47,0,0,1-4.67.54,11.06,11.06,0,0,1-7.79-2.69A9.5,9.5,0,0,1,99.79,100V87.88h-4.2V80.66h4.2V72.2h11.26v8.46h7.5v7.22h-7.5V98.3a3.09,3.09,0,0,0,.67,2.18,2.44,2.44,0,0,0,1.9.73,11.64,11.64,0,0,0,3.48-.9Z"/><path class="cls-2" d="M149.74,83.15q4.2,4.45,4.2,12.18c0,.78,0,1.36-.05,1.73h-20.5a6.49,6.49,0,0,0,2.21,3.36,5.94,5.94,0,0,0,3.73,1.18,9.89,9.89,0,0,0,6.72-2.91l5.88,5.77a15.84,15.84,0,0,1-5.85,4.09,20.38,20.38,0,0,1-7.7,1.39,18.6,18.6,0,0,1-8.74-1.93,13.66,13.66,0,0,1-5.68-5.43,16.16,16.16,0,0,1-2-8.15,16.51,16.51,0,0,1,2-8.26,14.06,14.06,0,0,1,5.66-5.52,17.54,17.54,0,0,1,8.4-2Q145.54,78.71,149.74,83.15Zm-8.23,4.68a4.53,4.53,0,0,0-6.61-.06,7.44,7.44,0,0,0-1.73,3.75h9.57A5.14,5.14,0,0,0,141.51,87.83Z"/><path class="cls-2" d="M206.13,80.07a9.53,9.53,0,0,1,3.81,4.06,13.18,13.18,0,0,1,1.35,6.1v19.32H200V93.48a5.34,5.34,0,0,0-1.15-3.58,3.82,3.82,0,0,0-3.05-1.35,4.38,4.38,0,0,0-3.48,1.68A6.67,6.67,0,0,0,191,94.49v15.06H179.7V93.48a5.34,5.34,0,0,0-1.14-3.58,3.83,3.83,0,0,0-3.06-1.35,4.46,4.46,0,0,0-3.5,1.68,6.62,6.62,0,0,0-1.31,4.26v15.06H159.38V79.09h11.31v4.65a10.71,10.71,0,0,1,4-3.78,11.26,11.26,0,0,1,5.49-1.32,10.93,10.93,0,0,1,6.16,1.74,10,10,0,0,1,3.86,4.87,10.81,10.81,0,0,1,10.31-6.61A11.06,11.06,0,0,1,206.13,80.07Z"/></g><rect class="cls-3" x="4.3" y="153.06" width="20.62" height="5.5"/></g></g></svg>