<?xml version="1.0" encoding="utf-8"?>
<!-- Generator: Adobe Illustrator 16.0.0, SVG Export Plug-In . SVG Version: 6.00 Build 0)  -->
<!DOCTYPE svg PUBLIC "-//W3C//DTD SVG 1.1//EN" "http://www.w3.org/Graphics/SVG/1.1/DTD/svg11.dtd">
<svg version="1.1" id="Layer_1" xmlns="http://www.w3.org/2000/svg" xmlns:xlink="http://www.w3.org/1999/xlink" x="0px" y="0px"
	 width="409.5px" height="204px" viewBox="0 15.5 409.5 204" enable-background="new 0 15.5 409.5 204" xml:space="preserve">
<title>자산 1</title>
<g id="레이어_2">
	<g id="Layer_1_1_">
		<rect x="4.895" y="178.802" width="27.144" height="7.24"/>
	</g>
</g>
<g id="레이어_2_1_">
	<g id="Layer_1_2_">
		<g>
			<path d="M0,58.614h15.12v55.585H0V58.614z"/>
		</g>
		<g>
			<path d="M56.146,75.432c3.283,1.62,6.026,4.154,7.901,7.299c1.926,3.359,2.892,7.184,2.794,11.055
				c0.077,3.846-0.893,7.64-2.808,10.976c-1.861,3.161-4.602,5.71-7.887,7.34c-3.711,1.786-7.793,2.67-11.911,2.579
				c-4.127,0.086-8.215-0.798-11.938-2.579c-3.304-1.619-6.059-4.171-7.928-7.34c-1.914-3.336-2.884-7.129-2.807-10.976
				c-0.087-3.854,0.884-7.66,2.807-11.001c1.87-3.171,4.625-5.727,7.928-7.352c3.723-1.782,7.811-2.666,11.938-2.581
				C48.353,72.761,52.435,73.645,56.146,75.432z M38.848,87.463c-1.412,1.884-2.125,4.199-2.019,6.55
				c-0.114,2.365,0.6,4.695,2.019,6.591c1.303,1.608,3.278,2.521,5.347,2.473c2.074,0.07,4.059-0.848,5.347-2.473
				c1.427-1.892,2.141-4.225,2.019-6.591c0.116-2.35-0.594-4.667-2.005-6.55c-1.276-1.647-3.264-2.582-5.347-2.513
				C42.125,84.893,40.136,85.824,38.848,87.463z"/>
		</g>
		<g>
			<path d="M114.164,73.426v37.217c0.069,3.499-0.909,6.938-2.807,9.878c-1.933,2.897-4.663,5.173-7.861,6.551
				c-3.695,1.59-7.688,2.369-11.71,2.286c-3.5,0.01-6.981-0.494-10.334-1.498c-2.99-0.857-5.841-2.146-8.462-3.822l5.013-10.173
				c1.85,1.211,3.868,2.144,5.989,2.767c2.113,0.634,4.305,0.962,6.51,0.976c2.257,0.13,4.495-0.49,6.364-1.764
				c1.516-1.104,2.387-2.886,2.326-4.76v-4.117c-2.69,3.25-6.747,5.051-10.962,4.866c-3.106,0.058-6.162-0.788-8.796-2.434
				c-2.63-1.691-4.729-4.092-6.056-6.924c-1.521-3.225-2.276-6.756-2.206-10.32c-0.054-3.467,0.683-6.9,2.152-10.04
				c1.301-2.773,3.365-5.119,5.949-6.764c2.607-1.616,5.623-2.452,8.689-2.407c4.309-0.189,8.461,1.639,11.229,4.946v-4.41h14.972
				L114.164,73.426L114.164,73.426z M97.28,98.666c1.334-1.734,2.011-3.884,1.912-6.069c0.113-2.232-0.564-4.433-1.912-6.216
				c-1.226-1.518-3.09-2.373-5.04-2.312c-1.938-0.056-3.786,0.819-4.973,2.353c-1.336,1.773-2.012,3.958-1.912,6.176
				c-0.099,2.186,0.579,4.335,1.912,6.069c1.203,1.508,3.044,2.365,4.973,2.312C94.189,101.038,96.054,100.182,97.28,98.666z"/>
			<path d="M138.788,56.208c1.469,1.491,2.258,3.522,2.179,5.615c0.189,4.115-2.994,7.605-7.109,7.793
				c-0.228,0.011-0.457,0.011-0.684,0c-2.104,0.071-4.144-0.727-5.642-2.206c-1.495-1.477-2.3-3.515-2.219-5.615
				c-0.076-2.1,0.729-4.134,2.219-5.615c1.511-1.451,3.548-2.223,5.642-2.139C135.264,53.96,137.295,54.744,138.788,56.208z
				 M125.66,73.426h15.119v40.773H125.66V73.426z"/>
			<path d="M167.917,82.945c-0.778-0.04-1.552,0.127-2.246,0.481c-0.531,0.289-0.852,0.853-0.829,1.457
				c0,0.749,0.508,1.337,1.538,1.832c1.588,0.67,3.229,1.212,4.906,1.618c2.533,0.688,5.021,1.537,7.446,2.539
				c1.994,0.874,3.76,2.196,5.161,3.864c1.52,1.861,2.305,4.216,2.205,6.618c0.125,3.896-1.713,7.596-4.893,9.852
				c-3.279,2.425-7.61,3.633-12.994,3.623c-3.484,0.018-6.952-0.473-10.293-1.457c-3.178-0.931-6.178-2.386-8.876-4.305l4.692-9.504
				c2.366,1.558,4.916,2.815,7.593,3.743c2.3,0.806,4.715,1.234,7.152,1.271c0.851,0.038,1.699-0.126,2.473-0.481
				c0.526-0.241,0.873-0.758,0.895-1.337c0-0.749-0.494-1.337-1.457-1.832c-1.563-0.68-3.182-1.221-4.839-1.618
				c-2.488-0.658-4.926-1.489-7.299-2.486c-1.965-0.873-3.707-2.18-5.093-3.823c-1.483-1.876-2.229-4.229-2.099-6.617
				c-0.139-3.905,1.65-7.628,4.786-9.959c3.652-2.569,8.052-3.857,12.513-3.663c6.303,0.015,12.484,1.723,17.9,4.946l-5.027,9.505
				C175.697,84.366,171.259,82.945,167.917,82.945z"/>
			<path d="M223.086,112.207c-1.664,0.876-3.44,1.519-5.28,1.912c-2.053,0.467-4.151,0.705-6.256,0.708
				c-3.802,0.192-7.53-1.096-10.4-3.596c-2.658-2.547-4.079-6.123-3.89-9.799V85.19h-5.615v-9.666h5.615V64.229h15.038v11.296h10.04
				v9.666h-10.04v13.916c-0.077,1.056,0.249,2.102,0.91,2.928c0.666,0.677,1.592,1.032,2.54,0.976
				c1.6-0.156,3.164-0.562,4.638-1.203L223.086,112.207z"/>
			<path d="M244.631,56.208c1.461,1.496,2.244,3.525,2.166,5.615c0.197,4.107-2.975,7.597-7.083,7.792
				c-0.232,0.012-0.466,0.012-0.698,0.001c-2.129,0.09-4.202-0.708-5.719-2.206c-1.486-1.482-2.284-3.517-2.204-5.615
				c-0.076-2.097,0.722-4.13,2.204-5.615c1.515-1.451,3.555-2.223,5.653-2.139C241.062,53.941,243.121,54.727,244.631,56.208z
				 M231.533,73.426h15.117v40.773h-15.186L231.533,73.426z"/>
			<path d="M280.979,86.233c-1.131-0.698-2.438-1.059-3.77-1.042c-1.918-0.045-3.74,0.848-4.879,2.393
				c-1.316,1.822-1.977,4.037-1.871,6.283c-0.111,2.279,0.539,4.531,1.846,6.403c1.127,1.577,2.967,2.489,4.904,2.433
				c2.918,0.091,5.543-1.764,6.43-4.545l11.791,5.962c-1.514,3.327-4.078,6.065-7.299,7.794c-3.6,1.914-7.635,2.867-11.711,2.767
				c-3.877,0.083-7.715-0.804-11.16-2.579c-3.137-1.646-5.725-4.168-7.447-7.26c-1.824-3.332-2.746-7.083-2.674-10.881
				c-0.082-3.851,0.838-7.656,2.674-11.042c1.729-3.132,4.33-5.695,7.486-7.379c3.443-1.822,7.293-2.743,11.188-2.674
				c3.936-0.076,7.818,0.878,11.271,2.767c3.23,1.817,5.85,4.553,7.525,7.861l-11.604,5.695
				C283.049,87.986,282.119,86.968,280.979,86.233z"/>
			<path d="M318.369,82.945c-0.777-0.04-1.551,0.127-2.246,0.481c-0.527,0.29-0.844,0.855-0.814,1.457
				c0,0.749,0.508,1.337,1.537,1.832c1.584,0.671,3.221,1.212,4.893,1.618c2.537,0.689,5.029,1.538,7.461,2.539
				c1.992,0.874,3.76,2.196,5.16,3.864c1.521,1.861,2.305,4.216,2.203,6.618c0.125,3.899-1.717,7.602-4.902,9.852
				c-3.266,2.425-7.592,3.633-12.979,3.623c-3.484,0.019-6.951-0.473-10.295-1.457c-3.18-0.928-6.182-2.383-8.877-4.305l4.641-9.504
				c2.371,1.556,4.928,2.813,7.604,3.743c2.299,0.807,4.715,1.236,7.15,1.271c0.848,0.042,1.691-0.124,2.461-0.481
				c0.531-0.237,0.885-0.755,0.908-1.337c0-0.749-0.492-1.337-1.471-1.832c-1.557-0.683-3.172-1.224-4.826-1.618
				c-2.475-0.66-4.896-1.491-7.258-2.486c-1.971-0.866-3.713-2.174-5.094-3.823c-1.5-1.86-2.27-4.204-2.166-6.591
				c-0.139-3.905,1.65-7.627,4.787-9.959c3.666-2.592,8.092-3.891,12.578-3.689c6.299,0.012,12.477,1.721,17.887,4.946l-5.014,9.505
				C326.162,84.366,321.721,82.945,318.369,82.945z"/>
		</g>
	</g>
</g>
</svg>
