<svg xmlns="http://www.w3.org/2000/svg" viewBox="0 0 159.6 159.06"><defs><style>.cls-1{isolation:isolate;}.cls-2{fill:#2e2e2e;}.cls-3{fill:#231f20;}</style></defs><title>자산 1</title><g id="레이어_2" data-name="레이어 2"><g id="Layer_1" data-name="Layer 1"><g class="cls-1"><path class="cls-2" d="M16.77,9.58a2.72,2.72,0,0,0-.87,2.13v1.45h6.33v7.23H15.9V42.06H4.7V20.39H.56V13.16H4.7v-2.8A9.39,9.39,0,0,1,8,2.8,12.94,12.94,0,0,1,16.69,0a22.31,22.31,0,0,1,6.89,1.12l-1.24,8.4a11.75,11.75,0,0,0-3.24-.73A3.31,3.31,0,0,0,16.77,9.58Z"/><path class="cls-2" d="M49.56,13.13a14.19,14.19,0,0,1,5.91,5.46,15.79,15.79,0,0,1,2.1,8.23A15.85,15.85,0,0,1,55.47,35a14.13,14.13,0,0,1-5.91,5.49,19.55,19.55,0,0,1-8.9,1.93,19.75,19.75,0,0,1-8.94-1.93A14.13,14.13,0,0,1,25.79,35a15.85,15.85,0,0,1-2.1-8.21,15.79,15.79,0,0,1,2.1-8.23,14.19,14.19,0,0,1,5.93-5.46,19.62,19.62,0,0,1,8.94-1.93A19.42,19.42,0,0,1,49.56,13.13ZM36.62,22a7.6,7.6,0,0,0-1.51,4.9,7.57,7.57,0,0,0,1.51,4.92,4.94,4.94,0,0,0,4,1.85,4.86,4.86,0,0,0,4-1.85,7.51,7.51,0,0,0,1.51-4.92A7.55,7.55,0,0,0,44.63,22a4.86,4.86,0,0,0-4-1.88A4.94,4.94,0,0,0,36.62,22Z"/><path class="cls-2" d="M86.52,13.13a14.19,14.19,0,0,1,5.91,5.46,15.79,15.79,0,0,1,2.1,8.23A15.85,15.85,0,0,1,92.43,35a14.13,14.13,0,0,1-5.91,5.49,19.56,19.56,0,0,1-8.91,1.93,19.74,19.74,0,0,1-8.93-1.93A14.07,14.07,0,0,1,62.75,35a15.85,15.85,0,0,1-2.1-8.21,15.79,15.79,0,0,1,2.1-8.23,14.13,14.13,0,0,1,5.93-5.46,19.6,19.6,0,0,1,8.93-1.93A19.43,19.43,0,0,1,86.52,13.13ZM73.58,22a7.55,7.55,0,0,0-1.51,4.9,7.51,7.51,0,0,0,1.51,4.92,4.92,4.92,0,0,0,4,1.85,4.87,4.87,0,0,0,4-1.85,7.51,7.51,0,0,0,1.51-4.92A7.55,7.55,0,0,0,81.59,22a4.86,4.86,0,0,0-4-1.88A4.92,4.92,0,0,0,73.58,22Z"/><path class="cls-2" d="M131.38.5V42.06H120.06V38.58a10.23,10.23,0,0,1-3.64,2.86,10.86,10.86,0,0,1-4.7,1,13.9,13.9,0,0,1-7.39-2,13.23,13.23,0,0,1-5-5.52,18.57,18.57,0,0,1-1.76-8.32,18.33,18.33,0,0,1,1.71-8.14,12.56,12.56,0,0,1,4.84-5.41,13.75,13.75,0,0,1,7.28-1.9,11.53,11.53,0,0,1,4.87,1,10.4,10.4,0,0,1,3.75,2.91V.5ZM118.55,31.89a7.64,7.64,0,0,0,1.51-4.95,7.55,7.55,0,0,0-1.51-4.9,4.86,4.86,0,0,0-4-1.88,4.93,4.93,0,0,0-4,1.88,7.6,7.6,0,0,0-1.51,4.9,7.69,7.69,0,0,0,1.51,4.95,4.93,4.93,0,0,0,4,1.88A4.86,4.86,0,0,0,118.55,31.89Z"/></g><g class="cls-1"><path class="cls-2" d="M14.11,86.71a3.33,3.33,0,0,0-1.68.36,1.18,1.18,0,0,0-.61,1.09c0,.56.38,1,1.14,1.37a24.25,24.25,0,0,0,3.67,1.21,46.09,46.09,0,0,1,5.57,1.9,10.62,10.62,0,0,1,3.87,2.88,7.37,7.37,0,0,1,1.65,5,8.66,8.66,0,0,1-3.67,7.36q-3.66,2.73-9.71,2.72a26.74,26.74,0,0,1-7.7-1.09A22.13,22.13,0,0,1,0,106.25l3.47-7.11a25.82,25.82,0,0,0,5.69,2.8,16.84,16.84,0,0,0,5.34,1,3.82,3.82,0,0,0,1.85-.37,1.11,1.11,0,0,0,.67-1c0-.56-.36-1-1.09-1.37a21.61,21.61,0,0,0-3.61-1.21,39,39,0,0,1-5.43-1.85,10.33,10.33,0,0,1-3.81-2.85,7.34,7.34,0,0,1-1.62-4.93A8.88,8.88,0,0,1,5,81.83q3.59-2.74,9.41-2.74a26.32,26.32,0,0,1,13.38,3.69L24.08,89.9Q17.87,86.7,14.11,86.71Z"/><path class="cls-2" d="M55.38,108.6a15.26,15.26,0,0,1-4,1.43,21,21,0,0,1-4.67.53A11,11,0,0,1,39,107.87a9.45,9.45,0,0,1-2.92-7.33V88.38h-4.2V81.16h4.2V72.7H47.32v8.46h7.5v7.22h-7.5V98.8A3.09,3.09,0,0,0,48,101a2.45,2.45,0,0,0,1.91.73,11.88,11.88,0,0,0,3.47-.89Z"/></g><g class="cls-1"><path class="cls-2" d="M85.74,81.13a14.23,14.23,0,0,1,5.9,5.46,17.14,17.14,0,0,1,0,16.44,14.17,14.17,0,0,1-5.9,5.49,19.56,19.56,0,0,1-8.91,1.93,19.71,19.71,0,0,1-8.93-1.93A14.09,14.09,0,0,1,62,103a17.14,17.14,0,0,1,0-16.44,14.15,14.15,0,0,1,5.94-5.46,19.58,19.58,0,0,1,8.93-1.93A19.43,19.43,0,0,1,85.74,81.13ZM72.8,90a8.74,8.74,0,0,0,0,9.82,5.26,5.26,0,0,0,8,0,8.74,8.74,0,0,0,0-9.82,5.21,5.21,0,0,0-8,0Z"/></g><g class="cls-1"><path class="cls-2" d="M114.71,80.52a11,11,0,0,1,5.52-1.38v10.2a12,12,0,0,0-2-.12,8.51,8.51,0,0,0-5.57,1.68,5.61,5.61,0,0,0-2,4.6v14.56H99.34V79.59h11.31v4.82A11.59,11.59,0,0,1,114.71,80.52Z"/></g><g class="cls-1"><path class="cls-2" d="M141.9,119.27a13.3,13.3,0,0,1-7.73,2.15,15.76,15.76,0,0,1-5.15-.81,16.74,16.74,0,0,1-4.65-2.55l4.71-7.56a7.21,7.21,0,0,0,2,1.35,5.46,5.46,0,0,0,2.08.39,3.37,3.37,0,0,0,3.3-2l.56-1.06-12.6-29.63H136l6.66,18.65,5.66-18.65H159.6l-12.77,33A14.16,14.16,0,0,1,141.9,119.27Z"/></g><rect class="cls-3" x="4.3" y="153.56" width="20.62" height="5.5"/></g></g></svg>