<svg xmlns="http://www.w3.org/2000/svg" viewBox="0 0 394.18 158.56"><defs><style>.cls-1{isolation:isolate;}.cls-2{fill:#2e2e2e;}.cls-3{fill:#231f20;}</style></defs><title>자산 1</title><g id="레이어_2" data-name="레이어 2"><g id="Layer_1" data-name="Layer 1"><g class="cls-1"><path class="cls-2" d="M17.72,12a11.13,11.13,0,0,1,5.52-1.37V20.83a13.52,13.52,0,0,0-2-.11,8.51,8.51,0,0,0-5.57,1.68A5.61,5.61,0,0,0,13.66,27V41.55H2.35V11.09H13.66V15.9A11.68,11.68,0,0,1,17.72,12Z"/><path class="cls-2" d="M53.59,15.15q4.2,4.46,4.2,12.18c0,.78,0,1.36-.06,1.73H37.24a6.43,6.43,0,0,0,2.21,3.36,5.93,5.93,0,0,0,3.72,1.18,9.85,9.85,0,0,0,6.72-2.91l5.88,5.77a15.54,15.54,0,0,1-5.85,4.08,20.12,20.12,0,0,1-7.7,1.4A18.56,18.56,0,0,1,33.49,40a13.68,13.68,0,0,1-5.69-5.43,16.27,16.27,0,0,1-2-8.15,16.52,16.52,0,0,1,2-8.26,14,14,0,0,1,5.66-5.52,17.48,17.48,0,0,1,8.4-2Q49.39,10.7,53.59,15.15Zm-8.23,4.67a4.55,4.55,0,0,0-6.61-.05A7.45,7.45,0,0,0,37,23.52h9.58A5.16,5.16,0,0,0,45.36,19.82Z"/><path class="cls-2" d="M74.7,18.2a3.33,3.33,0,0,0-1.68.36,1.2,1.2,0,0,0-.61,1.1c0,.56.38,1,1.14,1.37a25.7,25.7,0,0,0,3.67,1.2,45.92,45.92,0,0,1,5.57,1.91A10.4,10.4,0,0,1,86.66,27a7.37,7.37,0,0,1,1.65,5,8.66,8.66,0,0,1-3.67,7.36Q81,42.05,74.93,42.06a26.74,26.74,0,0,1-7.7-1.1,22.13,22.13,0,0,1-6.64-3.22l3.47-7.11a25.39,25.39,0,0,0,5.69,2.8,16.56,16.56,0,0,0,5.34,1A4,4,0,0,0,76.94,34a1.13,1.13,0,0,0,.67-1c0-.56-.36-1-1.09-1.37a22.8,22.8,0,0,0-3.61-1.2,40.36,40.36,0,0,1-5.43-1.85,10.36,10.36,0,0,1-3.81-2.86,7.33,7.33,0,0,1-1.62-4.92,8.88,8.88,0,0,1,3.58-7.45A15.05,15.05,0,0,1,75,10.58a26.33,26.33,0,0,1,13.38,3.7l-3.75,7.11Q78.46,18.2,74.7,18.2Z"/><path class="cls-2" d="M119.56,15.15q4.2,4.46,4.2,12.18c0,.78,0,1.36-.06,1.73H103.21a6.37,6.37,0,0,0,2.21,3.36,5.91,5.91,0,0,0,3.72,1.18,9.89,9.89,0,0,0,6.72-2.91l5.88,5.77a15.54,15.54,0,0,1-5.85,4.08,20.16,20.16,0,0,1-7.7,1.4A18.63,18.63,0,0,1,99.45,40a13.72,13.72,0,0,1-5.68-5.43,16.16,16.16,0,0,1-2-8.15,16.41,16.41,0,0,1,2-8.26,14,14,0,0,1,5.65-5.52,17.54,17.54,0,0,1,8.4-2Q115.37,10.7,119.56,15.15Zm-8.23,4.67a4.55,4.55,0,0,0-6.61-.05A7.45,7.45,0,0,0,103,23.52h9.58A5.21,5.21,0,0,0,111.33,19.82Z"/><path class="cls-2" d="M153.58,13.58a10,10,0,0,1,3.61,8.2V41.55H146.1V38.19a9.12,9.12,0,0,1-3.67,2.86,12.77,12.77,0,0,1-5.23,1,10.52,10.52,0,0,1-7.56-2.61,9.15,9.15,0,0,1-2.75-7,8.16,8.16,0,0,1,3-6.8q3-2.38,8.76-2.44h7.45v-.11a3.59,3.59,0,0,0-1.34-3,6.23,6.23,0,0,0-3.92-1.06,19.14,19.14,0,0,0-4.29.56,28.38,28.38,0,0,0-4.9,1.62l-2.8-7.5a39.14,39.14,0,0,1,14.68-3.14Q150,10.64,153.58,13.58Zm-9.49,20.24a4.8,4.8,0,0,0,2-2.29V28.78H141c-2.28,0-3.42,1-3.42,2.86a2.81,2.81,0,0,0,.9,2.24,3.73,3.73,0,0,0,2.52.78A6,6,0,0,0,144.09,33.82Z"/><path class="cls-2" d="M179.51,12A11.07,11.07,0,0,1,185,10.64V20.83a13.52,13.52,0,0,0-2-.11,8.51,8.51,0,0,0-5.57,1.68,5.63,5.63,0,0,0-2,4.59V41.55H164.13V11.09h11.32V15.9A11.51,11.51,0,0,1,179.51,12Z"/><path class="cls-2" d="M206.89,20.66a5.26,5.26,0,0,0-2.83-.78,4.42,4.42,0,0,0-3.64,1.79,7.46,7.46,0,0,0-1.4,4.71,7.77,7.77,0,0,0,1.37,4.78A4.36,4.36,0,0,0,204.06,33a4.91,4.91,0,0,0,4.82-3.36l8.79,4.43a12.6,12.6,0,0,1-5.46,5.82,17.77,17.77,0,0,1-8.77,2.07A17.29,17.29,0,0,1,195.1,40a13.69,13.69,0,0,1-5.55-5.43,16.46,16.46,0,0,1-2-8.15,16.69,16.69,0,0,1,2-8.26,13.91,13.91,0,0,1,5.6-5.52,17.37,17.37,0,0,1,8.38-2A16.72,16.72,0,0,1,212,12.77a13.89,13.89,0,0,1,5.63,5.88l-8.68,4.25A5.84,5.84,0,0,0,206.89,20.66Z"/></g><g class="cls-1"><path class="cls-2" d="M252.78,13.8a11.68,11.68,0,0,1,3,8.43V41.55H244.49V25.48a5.24,5.24,0,0,0-1.17-3.61,4.08,4.08,0,0,0-3.2-1.32,4.66,4.66,0,0,0-3.64,1.68,6.5,6.5,0,0,0-1.34,4.26V41.55H223.83V0h11.31V15.79A11,11,0,0,1,239.2,12a11.62,11.62,0,0,1,5.63-1.32A10.54,10.54,0,0,1,252.78,13.8Z"/></g><g class="cls-1"><path class="cls-2" d="M301.39,43.51l-5.27-5a18.12,18.12,0,0,1-10.81,3.59,16.41,16.41,0,0,1-7.11-1.49,12.11,12.11,0,0,1-4.93-4.11,10.47,10.47,0,0,1-1.79-6,9,9,0,0,1,2-5.93,19.34,19.34,0,0,1,5.46-4.37,20.44,20.44,0,0,1-2.35-4.42,12.06,12.06,0,0,1-.73-4.15A8.86,8.86,0,0,1,279,4.45q3.17-2.65,8.54-2.66A15.25,15.25,0,0,1,293.69,3a9.84,9.84,0,0,1,4.22,3.25,7.75,7.75,0,0,1,1.52,4.7A8.38,8.38,0,0,1,297,17.05a26.13,26.13,0,0,1-6.61,4.62c1.87,2,3.55,3.77,5,5.27a26.93,26.93,0,0,0,2.3-5.83l7.11,5.1a30.76,30.76,0,0,1-3.36,6.61c1.31,1.19,3.17,2.93,5.6,5.2Zm-11-10.69q-4.53-4.55-7.05-7.28c-1.76,1.19-2.63,2.55-2.63,4.08A4.21,4.21,0,0,0,282.1,33a5.32,5.32,0,0,0,3.66,1.26A8.78,8.78,0,0,0,290.35,32.82Zm-4.08-16.47a14,14,0,0,0,3.19-2.46A4.1,4.1,0,0,0,290.58,11a2.85,2.85,0,0,0-.81-2.13,2.9,2.9,0,0,0-2.1-.78,2.77,2.77,0,0,0-2.22,1,3.69,3.69,0,0,0-.81,2.47A9.09,9.09,0,0,0,286.27,16.35Z"/></g><g class="cls-1"><path class="cls-2" d="M33.77,68v41.55H22.46v-3.47a10.49,10.49,0,0,1-3.64,2.85,10.76,10.76,0,0,1-4.71,1,13.81,13.81,0,0,1-7.39-2,13.15,13.15,0,0,1-5-5.51A18.6,18.6,0,0,1,0,94.15,18.38,18.38,0,0,1,1.71,86a12.65,12.65,0,0,1,4.84-5.4,13.75,13.75,0,0,1,7.28-1.9,11.49,11.49,0,0,1,4.87,1,10.66,10.66,0,0,1,3.76,2.92V68ZM20.94,99.39a7.65,7.65,0,0,0,1.51-5,7.57,7.57,0,0,0-1.51-4.9,4.85,4.85,0,0,0-4-1.87,4.93,4.93,0,0,0-4,1.87,7.62,7.62,0,0,0-1.51,4.9,7.7,7.7,0,0,0,1.51,5,4.93,4.93,0,0,0,4,1.87A4.84,4.84,0,0,0,20.94,99.39Z"/><path class="cls-2" d="M67.25,83.15q4.2,4.45,4.2,12.18c0,.78,0,1.36,0,1.73H50.9a6.49,6.49,0,0,0,2.21,3.36,5.94,5.94,0,0,0,3.73,1.18,9.89,9.89,0,0,0,6.72-2.91l5.88,5.77a15.7,15.7,0,0,1-5.85,4.08,20.19,20.19,0,0,1-7.7,1.4A18.6,18.6,0,0,1,47.15,108a13.66,13.66,0,0,1-5.68-5.43,16.16,16.16,0,0,1-2-8.15,16.51,16.51,0,0,1,2-8.26,14.06,14.06,0,0,1,5.66-5.52,17.54,17.54,0,0,1,8.4-2C60.55,78.7,64.46,80.18,67.25,83.15ZM59,87.82a4.55,4.55,0,0,0-6.61,0,7.52,7.52,0,0,0-1.73,3.75h9.58A5.21,5.21,0,0,0,59,87.82Z"/><path class="cls-2" d="M72.13,79.09H83.77l5.61,20.16L95,79.09h11.31L95,109.55H83.44Z"/><path class="cls-2" d="M134.74,83.15q4.2,4.45,4.19,12.18c0,.78,0,1.36-.05,1.73h-20.5a6.44,6.44,0,0,0,2.22,3.36,5.89,5.89,0,0,0,3.72,1.18A9.89,9.89,0,0,0,131,98.69l5.88,5.77a15.7,15.7,0,0,1-5.85,4.08,20.19,20.19,0,0,1-7.7,1.4,18.63,18.63,0,0,1-8.74-1.93,13.66,13.66,0,0,1-5.68-5.43,16.16,16.16,0,0,1-2-8.15,16.41,16.41,0,0,1,2-8.26,14,14,0,0,1,5.65-5.52,17.54,17.54,0,0,1,8.4-2Q130.53,78.71,134.74,83.15Zm-8.24,4.67a4.55,4.55,0,0,0-6.61,0,7.52,7.52,0,0,0-1.73,3.75h9.58A5.21,5.21,0,0,0,126.5,87.82Z"/><path class="cls-2" d="M144.65,68H156v41.55H144.65Z"/><path class="cls-2" d="M187.6,80.63a14.13,14.13,0,0,1,5.91,5.46,17.12,17.12,0,0,1,0,16.43A14.13,14.13,0,0,1,187.6,108a19.42,19.42,0,0,1-8.9,1.93,19.62,19.62,0,0,1-8.94-1.93,14.07,14.07,0,0,1-5.93-5.49,17.12,17.12,0,0,1,0-16.43,14.06,14.06,0,0,1,5.93-5.46,21.48,21.48,0,0,1,17.84,0Zm-12.94,8.9a8.75,8.75,0,0,0,0,9.83,5,5,0,0,0,4,1.85,4.89,4.89,0,0,0,4-1.85,8.75,8.75,0,0,0,0-9.83,4.86,4.86,0,0,0-4-1.87A4.91,4.91,0,0,0,174.66,89.53Z"/><path class="cls-2" d="M228.37,80.66a13.09,13.09,0,0,1,4.95,5.54,20.29,20.29,0,0,1,.06,16.44,12.67,12.67,0,0,1-4.85,5.4,13.72,13.72,0,0,1-7.28,1.9,11.38,11.38,0,0,1-4.87-1,10.49,10.49,0,0,1-3.75-2.91v14.4H201.32V79.09h11.31v3.53a10.26,10.26,0,0,1,3.64-2.92,10.89,10.89,0,0,1,4.7-1A13.94,13.94,0,0,1,228.37,80.66Zm-6.22,18.45a8.71,8.71,0,0,0,0-9.8,4.92,4.92,0,0,0-4-1.88,4.86,4.86,0,0,0-4,1.88,8.71,8.71,0,0,0,0,9.8,4.86,4.86,0,0,0,4,1.87A4.91,4.91,0,0,0,222.15,99.11Z"/><path class="cls-2" d="M287.28,80.07a9.65,9.65,0,0,1,3.81,4.06,13.3,13.3,0,0,1,1.34,6.1v19.32H281.12V93.48A5.34,5.34,0,0,0,280,89.9a3.81,3.81,0,0,0-3.05-1.35,4.35,4.35,0,0,0-3.47,1.68,6.66,6.66,0,0,0-1.29,4.26v15.06H260.85V93.48a5.34,5.34,0,0,0-1.15-3.58,3.81,3.81,0,0,0-3.05-1.35,4.43,4.43,0,0,0-3.5,1.68,6.55,6.55,0,0,0-1.32,4.26v15.06H240.52V79.09h11.31v4.65a10.66,10.66,0,0,1,4-3.78,11.19,11.19,0,0,1,5.48-1.32,10.88,10.88,0,0,1,6.16,1.74,10,10,0,0,1,3.87,4.87,11.5,11.5,0,0,1,16-5.18Z"/><path class="cls-2" d="M324.8,83.15q4.2,4.45,4.2,12.18c0,.78,0,1.36-.06,1.73h-20.5a6.44,6.44,0,0,0,2.22,3.36,5.89,5.89,0,0,0,3.72,1.18,9.89,9.89,0,0,0,6.72-2.91l5.88,5.77a15.62,15.62,0,0,1-5.85,4.08,20.19,20.19,0,0,1-7.7,1.4,18.63,18.63,0,0,1-8.74-1.93,13.66,13.66,0,0,1-5.68-5.43,16.16,16.16,0,0,1-2-8.15,16.41,16.41,0,0,1,2-8.26,14,14,0,0,1,5.65-5.52,17.54,17.54,0,0,1,8.4-2Q320.61,78.71,324.8,83.15Zm-8.23,4.67a4.55,4.55,0,0,0-6.61,0,7.45,7.45,0,0,0-1.74,3.75h9.58A5.25,5.25,0,0,0,316.57,87.82Z"/><path class="cls-2" d="M361.17,80.07A9.7,9.7,0,0,1,365,84.13a12.94,12.94,0,0,1,1.37,6.1v19.32H355.09V93.48a5.17,5.17,0,0,0-1.2-3.58,4.05,4.05,0,0,0-3.17-1.35,4.66,4.66,0,0,0-3.64,1.68,6.5,6.5,0,0,0-1.34,4.26v15.06H334.43V79.09h11.31v4.7A11,11,0,0,1,349.8,80a11.62,11.62,0,0,1,5.63-1.32A11.37,11.37,0,0,1,361.17,80.07Z"/><path class="cls-2" d="M394.18,108.1a15.27,15.27,0,0,1-3.95,1.42,20.6,20.6,0,0,1-4.67.54,11,11,0,0,1-7.79-2.69,9.5,9.5,0,0,1-2.91-7.34V87.88h-4.2V80.65h4.2V72.2h11.26v8.45h7.5v7.23h-7.5V98.3a3.11,3.11,0,0,0,.67,2.18,2.44,2.44,0,0,0,1.9.73,11.64,11.64,0,0,0,3.48-.9Z"/></g><rect class="cls-3" x="4.02" y="153.06" width="20.62" height="5.5"/></g></g></svg>