<?xml version="1.0" encoding="utf-8"?>
<!-- Generator: Adobe Illustrator 16.0.0, SVG Export Plug-In . SVG Version: 6.00 Build 0)  -->
<!DOCTYPE svg PUBLIC "-//W3C//DTD SVG 1.1//EN" "http://www.w3.org/Graphics/SVG/1.1/DTD/svg11.dtd">
<svg version="1.1" id="Layer_1" xmlns="http://www.w3.org/2000/svg" xmlns:xlink="http://www.w3.org/1999/xlink" x="0px" y="0px"
	 width="480px" height="300px" viewBox="0 0 480 300" enable-background="new 0 0 480 300" xml:space="preserve">
<title>자산 3</title>
<path fill="#2E2E2E" d="M24.882,146.699c0.767-0.453,1.836-0.682,3.178-0.682c4.855,0,11.411,2.103,19.486,6.25l0.217,0.108
	l7.6-14.407l-0.204-0.118c-8.368-4.844-17.262-7.3-26.439-7.3c-7.652,0-13.926,1.833-18.647,5.446
	c-4.739,3.628-7.143,8.621-7.143,14.839c0,4.01,1.094,7.32,3.251,9.85c2.142,2.513,4.691,4.426,7.576,5.682
	c2.859,1.247,6.463,2.474,10.715,3.646c3.267,0.868,5.642,1.66,7.058,2.351c1.352,0.659,2.009,1.471,2.009,2.477
	c0,0.792-0.39,1.388-1.193,1.822c-0.838,0.455-2.021,0.685-3.517,0.685c-3.265,0-6.776-0.625-10.437-1.855
	c-3.669-1.235-7.411-3.079-11.12-5.479l-0.233-0.15L0,184.279l0.169,0.121c3.89,2.793,8.305,4.935,13.121,6.367
	c4.807,1.432,9.924,2.157,15.209,2.157c7.945,0,14.422-1.812,19.25-5.389c4.851-3.595,7.311-8.53,7.311-14.679
	c0-4.002-1.112-7.334-3.307-9.901c-2.179-2.548-4.765-4.479-7.687-5.735c-2.896-1.246-6.592-2.509-10.989-3.757
	c-3.283-0.876-5.696-1.666-7.172-2.353c-1.423-0.659-2.115-1.468-2.115-2.475C23.791,147.766,24.149,147.133,24.882,146.699z"/>
<path fill="#2E2E2E" d="M104.056,173.287c-3.112,1.158-5.38,1.747-6.741,1.747c-1.536,0-2.735-0.455-3.562-1.353
	c-0.833-0.902-1.257-2.291-1.257-4.127V149.32h14.755v-14.694H92.496V118H69.873v16.626h-8.258v14.694h8.258v23.646
	c0,6.138,1.953,11.05,5.805,14.604c3.844,3.552,9.05,5.352,15.471,5.352c3.083,0,6.196-0.354,9.248-1.052
	c3.056-0.701,5.689-1.653,7.827-2.834l0.167-0.093l-4.08-15.752L104.056,173.287z"/>
<path fill="#2E2E2E" d="M165.581,134.597c-5.005-2.538-10.933-3.825-17.618-3.825c-6.688,0-12.634,1.287-17.672,3.825
	c-5.047,2.541-9.008,6.185-11.772,10.829c-2.763,4.642-4.164,10.131-4.164,16.312c0,6.109,1.401,11.578,4.163,16.255
	c2.763,4.681,6.724,8.343,11.772,10.885c5.037,2.538,10.982,3.824,17.672,3.824c6.687,0,12.615-1.286,17.618-3.824
	c5.011-2.544,8.954-6.205,11.716-10.885c2.762-4.677,4.163-10.146,4.163-16.255c0-6.182-1.401-11.67-4.164-16.312
	C174.533,140.784,170.591,137.139,165.581,134.597z M155.59,171.49c-1.923,2.352-4.49,3.544-7.627,3.544
	c-3.211,0-5.814-1.192-7.738-3.544c-1.936-2.365-2.917-5.573-2.917-9.533c0-3.889,0.982-7.075,2.918-9.479
	c1.924-2.39,4.527-3.601,7.736-3.601c3.136,0,5.702,1.211,7.626,3.601c1.937,2.401,2.918,5.59,2.918,9.479
	C158.507,165.917,157.526,169.125,155.59,171.49z"/>
<path fill="#2E2E2E" d="M222.878,133.391c-2.994,1.687-5.553,4.058-7.617,7.054v-8.902h-22.733v60.389h22.733v-28.873
	c0-3.723,1.322-6.697,3.929-8.84c2.622-2.154,6.254-3.246,10.801-3.246c1.663,0,2.943,0.072,3.812,0.217l0.286,0.047v-20.572h-0.246
	C229.785,130.662,226.095,131.58,222.878,133.391z"/>
<path fill="#2E2E2E" d="M274.229,167.671l-12.854-35.965l-0.059-0.163h-23.334l24.872,58.48l-1.051,1.994
	c-1.215,2.5-3.268,3.717-6.273,3.717c-1.428,0-2.768-0.254-3.979-0.754c-1.219-0.502-2.529-1.375-3.896-2.6l-0.217-0.193
	l-9.404,15.111l-0.119,0.19l0.181,0.136c3.016,2.279,6.114,3.979,9.208,5.046c3.096,1.067,6.531,1.608,10.209,1.608
	c6.041,0,11.199-1.439,15.334-4.281c4.129-2.841,7.42-7.27,9.779-13.161l25.104-64.962l0.129-0.334h-22.672L274.229,167.671z"/>
<g id="레이어_2">
	<g id="Layer_1_1_">
		<rect x="2.502" y="289.084" width="40.926" height="10.916"/>
		<g>
			<path fill="#2E2E2E" d="M49.947,23.375c3.977,2.448,7.152,6.002,9.14,10.229c2.26,4.78,3.378,10.02,3.268,15.307
				c0.112,5.191-0.968,10.339-3.157,15.048c-1.954,4.097-5.06,7.537-8.937,9.896c-4.068,2.395-8.723,3.609-13.442,3.508
				c-3.102,0.048-6.177-0.582-9.01-1.846c-2.679-1.247-5.045-3.076-6.924-5.354v6.518H0.002V0h20.883v26.994
				c1.822-2.301,4.155-4.146,6.813-5.391c2.726-1.257,5.697-1.887,8.696-1.847C41.16,19.684,45.852,20.937,49.947,23.375z
				 M38.463,57.441c1.953-2.6,2.939-5.799,2.788-9.047c0.154-3.249-0.832-6.449-2.788-9.047c-1.775-2.26-4.514-3.547-7.386-3.471
				c-2.875-0.094-5.623,1.197-7.385,3.471c-1.957,2.598-2.942,5.798-2.788,9.047c-0.154,3.249,0.832,6.449,2.788,9.047
				c1.767,2.27,4.511,3.56,7.385,3.471C33.949,60.988,36.688,59.701,38.463,57.441z"/>
			<path fill="#2E2E2E" d="M100.759,22.157c3.12-1.716,6.632-2.588,10.192-2.53V38.46c-1.224-0.159-2.458-0.226-3.692-0.204
				c-3.692-0.206-7.339,0.893-10.303,3.102c-2.489,2.092-3.855,5.229-3.693,8.475v26.884H72.38V20.476h20.883v8.881
				C95.132,26.378,97.707,23.905,100.759,22.157z"/>
			<path fill="#2E2E2E" d="M163.832,25.073c4.488,3.718,6.958,9.338,6.662,15.16v36.485h-20.473v-6.204
				c-1.755,2.317-4.084,4.136-6.758,5.281c-3.06,1.284-6.356,1.914-9.675,1.846c-5.106,0.294-10.122-1.438-13.959-4.819
				c-3.462-3.383-5.304-8.09-5.059-12.925c-0.28-4.832,1.781-9.504,5.54-12.556c3.692-2.929,9.09-4.431,16.192-4.505h13.737v-0.203
				c0.127-2.139-0.796-4.206-2.474-5.539c-2.141-1.4-4.689-2.043-7.238-1.829c-2.665,0.043-5.316,0.391-7.903,1.035
				c-3.102,0.714-6.13,1.716-9.047,2.991l-5.207-13.848c8.569-3.665,17.768-5.634,27.086-5.798
				C153.197,19.645,159.388,21.455,163.832,25.073z M146.31,62.463c1.653-0.983,2.948-2.472,3.693-4.247v-5.059h-9.491
				c-4.197,0-6.296,1.754-6.296,5.263c-0.096,1.554,0.507,3.071,1.644,4.136c1.321,1.037,2.976,1.556,4.653,1.458
				C142.548,64.023,144.55,63.488,146.31,62.463z"/>
			<path fill="#2E2E2E" d="M232.625,22.286c3.051,1.754,5.524,4.358,7.123,7.496c1.74,3.496,2.609,7.36,2.531,11.263v35.673h-20.733
				V47.046c0.12-2.404-0.671-4.765-2.216-6.61c-1.482-1.66-3.629-2.574-5.854-2.492c-2.597-0.032-5.062,1.107-6.72,3.102
				c-1.726,2.249-2.601,5.034-2.474,7.866v27.807H183.32V20.476h20.872v8.679c1.854-2.94,4.434-5.351,7.493-6.998
				c3.205-1.675,6.781-2.514,10.397-2.437C225.758,19.639,229.394,20.523,232.625,22.286z"/>
			<path fill="#2E2E2E" d="M313.161,0v76.718h-20.885v-6.407c-1.818,2.237-4.115,4.04-6.723,5.281
				c-2.725,1.256-5.693,1.887-8.693,1.847c-4.809,0.079-9.535-1.201-13.646-3.693c-3.965-2.438-7.141-5.972-9.141-10.174
				c-2.271-4.796-3.389-10.057-3.27-15.362c-0.102-5.167,0.979-10.289,3.156-14.975c1.941-4.124,5.051-7.59,8.938-9.97
				c4.064-2.396,8.723-3.611,13.439-3.508c3.104-0.057,6.182,0.574,9.012,1.847c2.688,1.243,5.053,3.081,6.924,5.373V0H313.161z
				 M289.489,57.958c1.984-2.655,2.973-5.923,2.787-9.232c0.148-3.248-0.836-6.447-2.787-9.047
				c-3.42-4.079-9.498-4.613-13.576-1.193c-0.434,0.362-0.832,0.762-1.193,1.193c-1.955,2.599-2.939,5.799-2.789,9.047
				c-0.182,3.309,0.807,6.577,2.789,9.232c3.42,4.079,9.498,4.613,13.578,1.193C288.729,58.789,289.128,58.39,289.489,57.958z"/>
		</g>
	</g>
</g>
</svg>
