<?xml version="1.0" encoding="utf-8"?>
<!-- Generator: Adobe Illustrator 16.0.0, SVG Export Plug-In . SVG Version: 6.00 Build 0)  -->
<!DOCTYPE svg PUBLIC "-//W3C//DTD SVG 1.1//EN" "http://www.w3.org/Graphics/SVG/1.1/DTD/svg11.dtd">
<svg version="1.1" id="Layer_1" xmlns="http://www.w3.org/2000/svg" xmlns:xlink="http://www.w3.org/1999/xlink" x="0px" y="0px"
	 width="480px" height="300px" viewBox="0 0 480 300" enable-background="new 0 0 480 300" xml:space="preserve">
<rect x="248.412" y="151.766" fill="none" width="5.104" height="1.27"/>
<rect x="236.856" y="153.797" fill="none" width="1.98" height="2.818"/>
<rect x="259.575" y="157.236" fill="none" width="4.964" height="2.057"/>
<path fill="none" d="M253.427,141.242c0-0.749-0.914-1.181-2.488-1.181c-1.562,0-2.476,0.432-2.476,1.181
	c0,0.762,0.914,1.193,2.476,1.193C252.513,142.436,253.427,142.004,253.427,141.242z"/>
<path fill="none" d="M229.959,157.16c-1.6,0-2.526,0.406-2.526,1.143c0,0.75,0.927,1.156,2.526,1.156s2.526-0.406,2.526-1.156
	C232.485,157.566,231.559,157.16,229.959,157.16z"/>
<rect x="226.404" y="152.35" fill="none" width="2.806" height="1.676"/>
<path fill="none" d="M313.465,112.223c1.678,0,2.782-0.572,2.782-1.521c0-0.936-1.104-1.508-2.782-1.508
	c-1.689,0-2.795,0.572-2.795,1.508C310.67,111.65,311.775,112.223,313.465,112.223z"/>
<path fill="none" d="M139.436,200.645h1.384v0.863c0,1.828,1.841,3.594,4.101,4l-0.571,1.078c-1.866-0.381-3.479-1.574-4.228-3.148
	c-0.749,1.574-2.361,2.768-4.228,3.148l-0.559-1.078c2.26-0.42,4.101-2.184,4.101-4V200.645z M135.625,189.312
	c1.726,0,3.125,1.398,3.125,3.125s-1.399,3.125-3.125,3.125c-1.726,0-3.125-1.398-3.125-3.125S133.899,189.312,135.625,189.312z
	 M133.909,211.373h-1.308v-11.465h1.308V211.373z M145.364,209.9h-10.385v-1.08h10.385V209.9z M154.572,211.232h-7.782v-3.973h1.295
	v0.939h5.192v-0.939h1.295V211.232z M155.893,206.727h-10.397v-1.041h4.532v-0.928h-3.199v-4.633h7.82v0.99h-6.513v0.824h6.233
	v0.953h-6.233v0.875h6.589v0.99h-3.377v0.928h4.545V206.727z M175.333,253.562c-4.465,0-8.084-3.619-8.084-8.084
	c0-4.463,3.619-8.082,8.084-8.082s8.084,3.619,8.084,8.082C183.417,249.943,179.798,253.562,175.333,253.562z"/>
<rect x="260.172" y="137.903" fill="none" width="2.641" height="3.745"/>
<rect x="302.924" y="91.004" fill="none" width="3.35" height="3.35"/>
<path fill="none" d="M230.378,143.972c-1.625,0-2.552,0.394-2.552,1.117s0.927,1.13,2.552,1.13c1.638,0,2.564-0.406,2.564-1.13
	S232.016,143.972,230.378,143.972z"/>
<rect x="236.92" y="137.776" fill="none" width="2.044" height="3.034"/>
<rect x="309.624" y="91.004" fill="none" width="3.35" height="3.35"/>
<rect x="302.924" y="84.305" fill="none" width="3.35" height="1.909"/>
<path fill="none" d="M415.963,118.042c-1.625,0-2.577,0.432-2.577,1.193c0,0.774,0.952,1.206,2.577,1.206s2.577-0.432,2.577-1.206
	C418.54,118.474,417.588,118.042,415.963,118.042z"/>
<rect x="309.624" y="77.604" fill="none" width="3.35" height="3.35"/>
<path fill="none" d="M415.963,163.375c-1.625,0-2.577,0.432-2.577,1.193c0,0.773,0.952,1.205,2.577,1.205s2.577-0.432,2.577-1.205
	C418.54,163.807,417.588,163.375,415.963,163.375z"/>
<path fill="none" d="M302.467,111.156c0-1.014-0.767-1.677-1.819-1.677c-1.04,0-1.808,0.663-1.808,1.677
	c0,1.027,0.768,1.678,1.808,1.678C301.7,112.834,302.467,112.184,302.467,111.156z"/>
<rect x="309.624" y="84.305" fill="none" width="3.35" height="1.909"/>
<rect x="401.689" y="112.951" fill="none" width="2.856" height="1.511"/>
<rect x="401.689" y="158.283" fill="none" width="2.856" height="1.512"/>
<path fill="none" d="M302.767,115.979c-1.639,0-2.588,0.416-2.588,1.196c0,0.767,0.949,1.183,2.588,1.183
	c1.638,0,2.587-0.416,2.587-1.183C305.354,116.396,304.404,115.979,302.767,115.979z"/>
<path fill="none" d="M394.957,118.144c-1.638,0-2.564,0.406-2.564,1.155s0.927,1.155,2.564,1.155c1.612,0,2.552-0.406,2.552-1.155
	S396.569,118.144,394.957,118.144z"/>
<path fill="none" d="M386.841,159.07c0-1.244-1.231-2.031-2.933-2.031c-1.714,0-2.945,0.787-2.945,2.031s1.231,2.031,2.945,2.031
	C385.609,161.102,386.841,160.314,386.841,159.07z"/>
<path fill="none" d="M383.896,114.449c1.638,0,2.717-0.559,2.717-1.498c0-0.927-1.079-1.485-2.717-1.485
	c-1.65,0-2.729,0.559-2.729,1.485C381.166,113.891,382.245,114.449,383.896,114.449z"/>
<path fill="none" d="M34.431,153.619c-0.774,0-1.193,0.939-1.193,2.527c0,1.586,0.419,2.525,1.193,2.525s1.206-0.939,1.206-2.525
	C35.637,154.559,35.205,153.619,34.431,153.619z"/>
<path fill="none" d="M240.5,69.865c1.586,0,2.526-0.432,2.526-1.206s-0.939-1.193-2.526-1.193s-2.526,0.419-2.526,1.193
	S238.913,69.865,240.5,69.865z"/>
<rect x="251.586" y="62.007" fill="none" width="2.374" height="1.079"/>
<rect x="226.404" y="51.115" fill="none" width="2.844" height="2.806"/>
<rect x="92.803" y="143.049" fill="none" width="5.434" height="1.942"/>
<path fill="none" d="M111.137,92.758h-1.562v5.408c0.508-0.013,1.041-0.038,1.562-0.063V92.758z"/>
<path fill="none" d="M85.055,162.865c1.587,0,2.526-0.432,2.526-1.207c0-0.773-0.939-1.193-2.526-1.193s-2.526,0.42-2.526,1.193
	C82.529,162.434,83.468,162.865,85.055,162.865z"/>
<rect x="247.6" y="62.464" fill="none" width="2.704" height="1.498"/>
<rect x="412.243" y="66.335" fill="none" width="2.818" height="5.484"/>
<rect x="148.085" y="209.201" fill="none" width="5.192" height="0.99"/>
<rect x="381.648" y="72.213" fill="none" width="4.735" height="2.272"/>
<rect x="290.931" y="54.441" fill="none" width="4.964" height="2.057"/>
<path fill="none" d="M376.3,67.96c0-1.244-1.231-2.031-2.933-2.031c-1.714,0-2.945,0.787-2.945,2.031s1.231,2.031,2.945,2.031
	C375.068,69.991,376.3,69.204,376.3,67.96z"/>
<rect x="279.869" y="49.96" fill="none" width="5.434" height="1.879"/>
<path fill="none" d="M151.397,278.465c0-0.75-0.914-1.182-2.488-1.182c-1.562,0-2.476,0.432-2.476,1.182
	c0,0.762,0.914,1.193,2.476,1.193C150.483,279.658,151.397,279.227,151.397,278.465z"/>
<path fill="none" d="M133.085,277.145v-1.473h-2.158c0.051,0.229,0.088,0.469,0.088,0.736c0,0.254-0.037,0.508-0.102,0.736H133.085z
	"/>
<path fill="none" d="M126.292,276.408c0,0.52,0.204,0.947,0.536,1.242v-2.492C126.496,275.457,126.292,275.889,126.292,276.408z"/>
<path fill="none" d="M129.771,276.408c0-1.004-0.748-1.689-1.738-1.689c-0.478,0-0.896,0.162-1.205,0.439v2.492
	c0.309,0.273,0.727,0.434,1.205,0.434C129.022,278.084,129.771,277.41,129.771,276.408z"/>
<path fill="none" d="M122.01,199.896h1.32v11.502h-1.32V199.896z M114.507,200.988h5.383v7.578h-5.383V200.988z M96,237.396
	c4.464,0,8.083,3.619,8.083,8.082c0,4.465-3.619,8.084-8.083,8.084s-8.083-3.619-8.083-8.084
	C87.917,241.016,91.535,237.396,96,237.396z"/>
<rect x="115.789" y="202.029" fill="none" width="2.818" height="5.484"/>
<path fill="none" d="M119.61,281.004c-1.586,0-2.525,0.418-2.525,1.193c0,0.773,0.939,1.205,2.525,1.205
	c1.588,0,2.527-0.432,2.527-1.205C122.138,281.422,121.198,281.004,119.61,281.004z"/>
<path fill="none" d="M27.816,134.887v0.051c0.47,0.229,0.952,0.482,1.435,0.749l2.818,1.841v-2.564h-2.45
	C29.111,134.963,28.324,134.912,27.816,134.887z"/>
<path fill="none" d="M30.698,124.614c-0.749,0-1.181,0.914-1.181,2.488c0,1.562,0.432,2.476,1.181,2.476
	c0.762,0,1.193-0.914,1.193-2.476C31.892,125.528,31.46,124.614,30.698,124.614z"/>
<rect x="93.59" y="160.682" fill="none" width="4.964" height="2.057"/>
<rect x="302.924" y="77.604" fill="none" width="3.35" height="3.35"/>
<path fill="none" d="M28.642,149.465c1.003,0,1.676-0.75,1.676-1.74s-0.673-1.738-1.676-1.738s-1.688,0.748-1.688,1.738
	S27.639,149.465,28.642,149.465z"/>
<path fill="none" d="M29.378,144.845v-2.172h-1.473v2.158c0.229-0.051,0.47-0.088,0.736-0.088
	C28.896,144.743,29.149,144.78,29.378,144.845z"/>
<path fill="none" d="M405.238,232.955v2.488h2.895v-2.502c-0.443,0.115-0.939,0.166-1.447,0.166S405.684,233.057,405.238,232.955z"
	/>
<rect x="308.676" y="239.127" fill="none" width="4.748" height="1.955"/>
<rect x="424.404" y="229.883" fill="none" width="2.703" height="1.676"/>
<path fill="none" d="M415.234,231.482c1.027,0,1.777-0.635,1.777-1.639c0-0.99-0.75-1.637-1.777-1.637
	c-1.016,0-1.766,0.646-1.766,1.637C413.469,230.848,414.219,231.482,415.234,231.482z"/>
<rect x="428.391" y="229.299" fill="none" width="2.387" height="1.281"/>
<path fill="none" d="M417.303,236.877c1.6,0,2.527-0.406,2.527-1.154c0-0.762-0.928-1.168-2.527-1.168s-2.525,0.406-2.525,1.168
	C414.777,236.471,415.703,236.877,417.303,236.877z"/>
<path fill="none" d="M428.264,236.902c1.625,0,2.564-0.406,2.564-1.154c0-0.75-0.939-1.156-2.564-1.156s-2.553,0.406-2.553,1.156
	C425.711,236.496,426.639,236.902,428.264,236.902z"/>
<rect x="436.354" y="221.365" fill="none" width="4.939" height="2.133"/>
<path fill="none" d="M299.341,234.506c0-1.041-0.609-1.715-1.447-1.715c-0.812,0-1.422,0.674-1.422,1.715s0.609,1.713,1.422,1.713
	C298.731,236.219,299.341,235.547,299.341,234.506z"/>
<rect x="415.895" y="215.348" fill="none" width="2.641" height="3.744"/>
<path fill="none" d="M435.186,228.904c0,0.648,0.648,1.055,1.6,1.055c0.939,0,1.588-0.406,1.588-1.055
	c0-0.646-0.648-1.053-1.588-1.053C435.834,227.852,435.186,228.258,435.186,228.904z"/>
<path fill="none" d="M436.393,214.865c-1.029,0-1.766,0.646-1.766,1.625c0,0.99,0.736,1.625,1.766,1.625
	c1.016,0,1.764-0.635,1.764-1.625C438.156,215.512,437.408,214.865,436.393,214.865z"/>
<rect x="287.594" y="239.127" fill="none" width="4.748" height="1.955"/>
<path fill="none" d="M406.686,232.092c1.727,0,2.934-0.762,2.934-1.98c0-1.207-1.207-1.969-2.934-1.969
	c-1.738,0-2.945,0.762-2.945,1.969C403.74,231.33,404.947,232.092,406.686,232.092z"/>
<path fill="#E6E6E5" d="M24.849,178.639c-1.657,0-3,1.342-3,3c0,1.656,1.343,3,3,3h16.132v-6H24.849z"/>
<rect x="309.624" y="86.214" fill="#E6E6E5" width="3.35" height="1.44"/>
<rect x="302.924" y="86.214" fill="#E6E6E5" width="3.35" height="1.44"/>
<path fill="#E6E6E5" d="M437.147,181.305c0,0.828,0.672,1.5,1.5,1.5s1.5-0.672,1.5-1.5v-2.666h-3V181.305z"/>
<path fill="#E6E6E5" d="M438.039,89.214c0.828,0,1.5-0.672,1.5-1.5s-0.672-1.5-1.5-1.5h-0.892v3H438.039z"/>
<path fill="#E6E6E5" d="M461.082,258.859H269.935v-74.221h191.147c1.657,0,3-1.344,3-3c0-1.658-1.343-3-3-3h-20.935V21.898
	c0-0.828-0.672-1.5-1.5-1.5s-1.5,0.672-1.5,1.5v64.315H321.349v3h115.799v89.425H218.43V89.214h76.119v-3H218.43V21.898
	c0-0.828-0.672-1.5-1.5-1.5s-1.5,0.672-1.5,1.5v65.757c-0.001,0.02-0.006,0.038-0.006,0.058s0.005,0.038,0.006,0.058v90.867h-25.657
	V21.898c0-0.828-0.672-1.5-1.5-1.5s-1.5,0.672-1.5,1.5v156.74h-59.945H51.981v6h74.847h140.107v74.221h-62.947
	c0.562,0.863,0.894,1.893,0.894,3s-0.331,2.137-0.894,3h257.095c1.657,0,3-1.342,3-3
	C464.082,260.203,462.739,258.859,461.082,258.859z"/>
<path fill="#0E9FD3" d="M50.481,267.359h-8h-1.5v9.875c0,3.037,2.462,5.5,5.5,5.5s5.5-2.463,5.5-5.5v-9.875H50.481z"/>
<path fill="#0E9FD3" d="M46.481,22.089c-3.038,0-5.5,2.463-5.5,5.5v151.05v6v71.721h1.5h8h1.5v-71.721v-6V27.589
	C51.981,24.552,49.519,22.089,46.481,22.089z"/>
<path fill="#1FAF4D" d="M203.987,258.859c-0.982-1.504-2.677-2.5-4.606-2.5h-72.553H51.981h-1.5h-8h-1.5h-13.52
	c-3.038,0-5.5,2.463-5.5,5.5s2.462,5.5,5.5,5.5h13.52h1.5h8h1.5h74.847h72.553c1.93,0,3.624-0.996,4.606-2.5
	c0.562-0.863,0.894-1.893,0.894-3S204.55,259.723,203.987,258.859z"/>
<path fill="#0E9FD3" d="M27.364,85.711c0.364,0,0.661-0.102,0.891-0.304c0.23-0.202,0.345-0.462,0.345-0.777
	c0-0.316-0.111-0.574-0.334-0.773c-0.223-0.198-0.531-0.298-0.922-0.298c-0.357,0-0.647,0.096-0.871,0.288s-0.334,0.453-0.334,0.783
	c0,0.329,0.111,0.592,0.334,0.787C26.696,85.613,26.994,85.711,27.364,85.711z"/>
<path fill="#0E9FD3" d="M27.667,94.229c4.464,0,8.083-3.619,8.083-8.083s-3.619-8.083-8.083-8.083c-4.464,0-8.083,3.619-8.083,8.083
	S23.202,94.229,27.667,94.229z M24.872,83.445c0.24-0.364,0.568-0.645,0.984-0.84c0.415-0.195,0.877-0.294,1.385-0.294
	c1.009,0,1.799,0.308,2.369,0.922c0.57,0.615,0.854,1.499,0.854,2.652c0,0.817-0.153,1.518-0.458,2.102
	c-0.306,0.584-0.736,1.026-1.293,1.328c-0.556,0.303-1.198,0.454-1.926,0.454c-0.385,0-0.752-0.043-1.102-0.129
	c-0.351-0.086-0.649-0.208-0.896-0.366l0.618-1.226c0.35,0.24,0.8,0.36,1.349,0.36c0.611,0,1.095-0.18,1.453-0.54
	c0.357-0.361,0.549-0.881,0.577-1.561c-0.433,0.433-1.03,0.648-1.792,0.648c-0.46,0-0.879-0.093-1.257-0.278
	c-0.377-0.185-0.676-0.447-0.896-0.787c-0.22-0.341-0.33-0.733-0.33-1.18C24.511,84.231,24.631,83.809,24.872,83.445z"/>
<path fill="#3DAE4C" d="M96,253.562c4.464,0,8.083-3.619,8.083-8.084c0-4.463-3.619-8.082-8.083-8.082s-8.083,3.619-8.083,8.082
	C87.917,249.943,91.535,253.562,96,253.562z M97.265,246.111h-0.762v-1.104l1.483-1.678h-3.069v-1.34h5.047v1.082l-1.627,1.854
	c0.631,0.104,1.116,0.338,1.452,0.705c0.336,0.369,0.504,0.824,0.504,1.365c0,0.42-0.11,0.805-0.33,1.158
	c-0.22,0.355-0.554,0.639-1.004,0.852c-0.45,0.211-1.001,0.318-1.653,0.318c-0.508,0-1.008-0.066-1.499-0.201
	c-0.491-0.133-0.908-0.324-1.251-0.57l0.649-1.277c0.274,0.205,0.592,0.365,0.953,0.479s0.729,0.17,1.107,0.17
	c0.418,0,0.748-0.08,0.989-0.242c0.24-0.162,0.36-0.391,0.36-0.686C98.614,246.406,98.164,246.111,97.265,246.111z M90.961,241.99
	h3.11v7.211h-1.668v-5.871h-1.442V241.99z"/>
<path fill="#3DAE4C" d="M175.333,237.396c-4.465,0-8.084,3.619-8.084,8.082c0,4.465,3.619,8.084,8.084,8.084
	s8.084-3.619,8.084-8.084C183.417,241.016,179.798,237.396,175.333,237.396z M173.016,249.201h-1.668v-5.871h-1.442v-1.34h3.11
	V249.201z M180.515,247.688h-1.175v1.514h-1.627v-1.514h-3.883v-1.123l3.398-4.574h1.751l-3.151,4.336h1.937v-1.348h1.575v1.348
	h1.175V247.688z"/>
<path fill="#0E9FD3" d="M63.333,94.229c4.464,0,8.083-3.619,8.083-8.083s-3.619-8.083-8.083-8.083s-8.083,3.619-8.083,8.083
	S58.869,94.229,63.333,94.229z M62.531,84.037c0.264-0.56,0.63-0.987,1.097-1.282c0.467-0.295,1-0.443,1.597-0.443
	s1.129,0.148,1.597,0.443c0.467,0.295,0.833,0.723,1.097,1.282s0.396,1.228,0.396,2.003c0,0.776-0.132,1.444-0.396,2.004
	s-0.63,0.987-1.097,1.282c-0.467,0.295-1,0.443-1.597,0.443s-1.129-0.148-1.597-0.443c-0.467-0.295-0.833-0.723-1.097-1.282
	c-0.265-0.56-0.396-1.228-0.396-2.004C62.134,85.265,62.266,84.597,62.531,84.037z M58.127,82.436h3.11v7.21h-1.668v-5.871h-1.442
	V82.436z"/>
<path fill="#0E9FD3" d="M65.224,88.358c0.439,0,0.784-0.189,1.035-0.566c0.25-0.378,0.376-0.962,0.376-1.752
	c0-0.789-0.125-1.373-0.376-1.751c-0.251-0.377-0.596-0.566-1.035-0.566c-0.433,0-0.774,0.189-1.025,0.566
	c-0.25,0.378-0.376,0.962-0.376,1.751c0,0.79,0.125,1.374,0.376,1.752C64.45,88.169,64.792,88.358,65.224,88.358z"/>
<path fill="#DA1F26" d="M316.324,72.58v-3.35h-16.75v3.35h-5.025v13.634v3v13.516h10.05v-3.35h6.7v3.35h10.05V89.214v-3V72.58
	H316.324z M306.273,94.354h-3.35v-3.35h3.35V94.354z M312.974,94.354h-3.35v-3.35h3.35V94.354z M309.624,77.604h3.35v3.35h-3.35
	V77.604z M302.924,77.604h3.35v3.35h-3.35V77.604z M302.924,84.305h3.35v1.909v1.44h-3.35v-1.44V84.305z M312.974,87.654h-3.35
	v-1.44v-1.909h3.35v1.909V87.654z"/>
<circle fill="#9E9E9E" cx="60.292" cy="144.938" r="3.125"/>
<circle fill="#9E9E9E" cx="132.958" cy="80.688" r="3.125"/>
<circle fill="#9E9E9E" cx="228.791" cy="78.604" r="3.125"/>
<circle fill="#9E9E9E" cx="228.791" cy="168.604" r="3.125"/>
<circle fill="#9E9E9E" cx="277.957" cy="236.938" r="3.125"/>
<circle fill="#9E9E9E" cx="135.625" cy="192.438" r="3.125"/>
<circle fill="#9E9E9E" cx="428.29" cy="70.271" r="3.125"/>
<circle fill="#9E9E9E" cx="428.29" cy="115.271" r="3.125"/>
<circle fill="#9E9E9E" cx="428.29" cy="160.604" r="3.125"/>
<circle fill="#9E9E9E" cx="450.457" cy="225.104" r="3.125"/>
<path fill="#565656" d="M70.464,141.31h6.716c0,0.521,0,1.092-0.025,1.714l-7.021,0.267l0.178,1.104l6.767-0.368
	c-0.063,0.749-0.19,1.587-0.394,2.539l1.295,0.152c0.508-2.425,0.495-4.012,0.495-5.408v-1.054h-8.011V141.31z"/>
<polygon fill="#565656" points="74.438,145.283 73.118,145.283 73.118,148.165 69.246,148.165 69.246,149.244 79.618,149.244 
	79.618,148.165 74.438,148.165 "/>
<path fill="#565656" d="M80.675,143.29l0.178,1.104l6.767-0.368c-0.063,0.749-0.19,1.587-0.394,2.539l1.295,0.152
	c0.508-2.425,0.495-4.012,0.495-5.408v-1.054h-8.011v1.054h6.716c0,0.521,0,1.092-0.025,1.714L80.675,143.29z"/>
<polygon fill="#565656" points="90.159,148.165 84.979,148.165 84.979,145.283 83.659,145.283 83.659,148.165 79.787,148.165 
	79.787,149.244 90.159,149.244 "/>
<rect x="90.34" y="148.165" fill="#565656" width="10.385" height="1.079"/>
<path fill="#565656" d="M99.532,140.002h-1.295v2.006h-5.434v-2.006h-1.295v6.043h8.023V140.002z M98.237,144.991h-5.434v-1.942
	h5.434V144.991z"/>
<polygon fill="#565656" points="108.702,141.817 102.125,141.817 102.125,145.105 110.289,145.105 110.289,144.039 103.446,144.039 
	103.446,142.808 110.035,142.808 110.035,139.621 102.1,139.621 102.1,140.675 108.702,140.675 "/>
<polygon fill="#565656" points="105.388,150.704 106.708,150.704 106.708,147.188 111.266,147.188 111.266,146.134 100.869,146.134 
	100.869,147.188 105.388,147.188 "/>
<path fill="#565656" d="M112.095,140.332v7.452h0.978c1.778,0,3.631-0.14,5.599-0.546l-0.14-1.092
	c-1.803,0.368-3.517,0.508-5.142,0.521v-6.335H112.095z"/>
<rect x="119.586" y="139.215" fill="#565656" width="1.308" height="11.463"/>
<path fill="#565656" d="M71.962,153.406v1.879c0,2.121-1.117,4.291-2.907,5.168l0.8,1.053c1.308-0.672,2.272-2.006,2.768-3.592
	c0.495,1.498,1.409,2.742,2.641,3.377l0.8-1.041c-1.727-0.852-2.793-2.92-2.793-4.965v-1.879H71.962z"/>
<polygon fill="#565656" points="76.825,152.455 76.825,163.918 78.132,163.918 78.132,158.078 79.922,158.078 79.922,157 
	78.132,157 78.132,152.455 "/>
<path fill="#565656" d="M85.055,163.932c2.349,0,3.821-0.863,3.821-2.273c0-1.396-1.473-2.246-3.821-2.246s-3.821,0.85-3.821,2.246
	C81.234,163.068,82.707,163.932,85.055,163.932z M85.055,160.465c1.587,0,2.526,0.42,2.526,1.193c0,0.775-0.939,1.207-2.526,1.207
	s-2.526-0.432-2.526-1.207C82.529,160.885,83.468,160.465,85.055,160.465z"/>
<path fill="#565656" d="M85.347,154.346v-1.066h-5.104v5.143h0.927c2.488,0,3.847-0.076,5.345-0.381l-0.14-1.066
	c-1.396,0.305-2.628,0.367-4.824,0.381v-3.01H85.347z"/>
<polygon fill="#565656" points="90.375,155.311 88.775,155.311 88.775,152.455 87.442,152.455 87.442,159.184 88.775,159.184 
	88.775,156.391 90.375,156.391 "/>
<path fill="#565656" d="M93.832,156.377c0.482,1.117,1.409,2.006,2.679,2.451l0.635-1.016c-1.701-0.598-2.679-2.031-2.679-3.453
	v-0.191h2.387v-1.053h-6.132v1.053h2.425v0.191c0,1.561-1.041,3.072-2.818,3.693L91,159.082
	C92.359,158.611,93.324,157.609,93.832,156.377z"/>
<path fill="#565656" d="M99.836,159.641h-7.528v4.139h7.528V159.641z M98.554,162.738H93.59v-2.057h4.964V162.738z"/>
<polygon fill="#565656" points="99.836,152.441 98.529,152.441 98.529,155.234 96.498,155.234 96.498,156.301 98.529,156.301 
	98.529,159.119 99.836,159.119 "/>
<polygon fill="#565656" points="115.91,96.109 117.7,96.109 117.7,95.03 115.91,95.03 115.91,90.549 114.603,90.549 
	114.603,102.025 115.91,102.025 "/>
<path fill="#565656" d="M106.896,98.191l0.14,1.079c1.993,0,4.646-0.038,7.021-0.432l-0.076-0.965
	c-0.508,0.063-1.041,0.114-1.574,0.165v-5.281h1.117v-1.054h-6.335v1.054h1.117v5.434C107.811,98.191,107.328,98.191,106.896,98.191
	z M109.575,92.758h1.562v5.345c-0.521,0.025-1.054,0.051-1.562,0.063V92.758z"/>
<path fill="#565656" d="M123.417,92.148v-0.863h-1.384v0.863c0,1.815-1.841,3.58-4.101,3.999l0.559,1.079
	c1.866-0.381,3.479-1.574,4.228-3.148c0.733,1.54,2.294,2.71,4.109,3.117v-1.227C124.896,95.363,123.417,93.786,123.417,92.148z"/>
<rect x="126.828" y="99.461" fill="#565656" width="1.134" height="1.079"/>
<path fill="#565656" d="M127.518,96.147c-0.236-0.042-0.464-0.108-0.69-0.179v1.227c0.04,0.009,0.079,0.023,0.119,0.031
	L127.518,96.147z"/>
<rect x="117.577" y="99.461" fill="#565656" width="9.25" height="1.079"/>
<polygon fill="#565656" points="135.583,96.592 135.583,90.752 134.364,90.752 134.364,93.05 133.006,93.05 133.006,94.091 
	134.364,94.091 134.364,96.592 "/>
<rect x="136.573" y="90.562" fill="#565656" width="1.244" height="6.132"/>
<polygon fill="#565656" points="130.188,99.017 130.188,101.911 138.236,101.911 138.236,100.896 131.482,100.896 131.482,99.969 
	137.817,99.969 137.817,97.163 130.162,97.163 130.162,98.179 136.535,98.179 136.535,99.017 "/>
<path fill="#565656" d="M133.526,96.033l-0.127-1.003c-1.181,0.216-2.196,0.267-3.555,0.279v-1.092h2.653V93.24h-2.653v-1.003h3.072
	v-1.028h-4.316v5.116h0.749C131,96.325,132.143,96.274,133.526,96.033z"/>
<rect x="146.771" y="90.536" fill="#565656" width="1.32" height="11.502"/>
<path fill="#565656" d="M142.252,96.008c0.521,1.549,1.523,2.818,2.844,3.44l0.762-1.041c-1.803-0.812-2.971-2.92-2.971-5.027
	v-1.879h-1.308v1.879c0,2.209-1.193,4.405-3.021,5.23l0.774,1.092C140.716,99.029,141.731,97.671,142.252,96.008z"/>
<rect x="157.351" y="90.536" fill="#565656" width="1.308" height="11.489"/>
<path fill="#565656" d="M156.31,98.979l-0.127-1.054c-1.663,0.267-3.098,0.33-5.002,0.343v-2.463h3.91v-1.054h-3.91v-2.133h4.354
	v-1.079h-5.662v7.795h0.952C152.945,99.334,154.52,99.271,156.31,98.979z"/>
<path fill="#565656" d="M230.543,47.154h-1.295v2.92h-2.844v-2.92h-1.308v7.82h5.446V47.154z M229.248,53.921h-2.844v-2.806h2.844
	V53.921z"/>
<polygon fill="#565656" points="233.577,51.712 235.367,51.712 235.367,50.62 233.577,50.62 233.577,46.215 232.27,46.215 
	232.27,57.691 233.577,57.691 "/>
<rect x="235.219" y="52.499" fill="#565656" width="10.409" height="1.054"/>
<polygon fill="#565656" points="236.564,54.34 236.564,57.463 244.574,57.463 244.574,56.396 237.872,56.396 237.872,54.34 "/>
<polygon fill="#565656" points="243.025,48.589 236.552,48.589 236.552,51.598 244.549,51.598 244.549,50.595 237.834,50.595 
	237.834,49.528 244.32,49.528 244.32,46.545 236.526,46.545 236.526,47.548 243.025,47.548 "/>
<polygon fill="#565656" points="255.229,57.679 255.229,53.629 247.498,53.629 247.498,54.683 253.922,54.683 253.922,57.679 "/>
<rect x="253.922" y="46.202" fill="#565656" width="1.308" height="6.881"/>
<path fill="#565656" d="M249.313,49.947c0.508,1.143,1.46,2.044,2.78,2.501l0.647-1.028c-1.765-0.584-2.78-2.019-2.78-3.567v-1.117
	h-1.333v1.117c0,1.6-1.016,3.148-2.818,3.771l0.647,1.028C247.815,52.182,248.793,51.191,249.313,49.947z"/>
<path fill="#565656" d="M259.918,51.674c0.521,1.549,1.523,2.818,2.844,3.44l0.762-1.041c-1.803-0.812-2.971-2.92-2.971-5.027
	v-1.879h-1.308v1.879c0,2.209-1.193,4.405-3.021,5.23l0.774,1.092C258.382,54.695,259.397,53.337,259.918,51.674z"/>
<rect x="264.438" y="46.202" fill="#565656" width="1.32" height="11.502"/>
<polygon fill="#565656" points="277.213,50.658 272.262,50.658 272.262,48.83 270.941,48.83 270.941,50.658 266.879,50.658 
	266.879,51.699 277.213,51.699 "/>
<path fill="#565656" d="M274.433,49.985l1.295,0.102c0.216-1.117,0.216-2.006,0.216-2.717v-0.724h-7.871V47.7h6.563
	C274.636,48.322,274.598,49.046,274.433,49.985z"/>
<polygon fill="#565656" points="268.085,54.581 268.085,57.564 276.261,57.564 276.261,56.536 269.393,56.536 269.393,55.495 
	275.969,55.495 275.969,52.601 268.06,52.601 268.06,53.629 274.661,53.629 274.661,54.581 "/>
<path fill="#565656" d="M287.791,55.203h-4.558v-2.311h3.364v-5.916h-1.295v1.93h-5.434v-1.93h-1.295v5.916h3.352v2.311h-4.52v1.079
	h10.385V55.203z M279.869,51.839V49.96h5.434v1.879H279.869z"/>
<polygon fill="#565656" points="297.177,50.023 298.497,50.023 298.497,48.944 297.177,48.944 297.177,46.215 295.869,46.215 
	295.869,52.88 297.177,52.88 "/>
<path fill="#565656" d="M290.118,50.087c0.267,0.927,0.749,1.79,1.574,2.336c0.812-0.521,1.295-1.358,1.562-2.272
	c0.292,0.889,0.8,1.676,1.612,2.146l0.711-0.927c-1.308-0.774-1.714-2.285-1.714-3.644v-0.901h-1.231v0.901
	c0,1.003-0.165,2.247-0.939,3.161c-0.762-0.927-0.939-2.196-0.939-3.161v-0.901h-1.231v0.901c0,1.257-0.419,2.831-1.727,3.644
	l0.711,0.927C289.331,51.801,289.839,50.988,290.118,50.087z"/>
<path fill="#565656" d="M289.648,57.539h7.528v-4.126h-7.528V57.539z M290.931,54.441h4.964v2.057h-4.964V54.441z"/>
<path fill="#565656" d="M228.067,64.914c0.495,1.498,1.409,2.742,2.641,3.377l0.8-1.041c-1.727-0.851-2.793-2.92-2.793-4.964v-1.879
	h-1.308v1.879c0,2.12-1.117,4.291-2.907,5.167l0.8,1.054C226.607,67.834,227.572,66.501,228.067,64.914z"/>
<polygon fill="#565656" points="233.577,65.079 235.367,65.079 235.367,64 233.577,64 233.577,59.455 232.27,59.455 232.27,70.919 
	233.577,70.919 "/>
<path fill="#565656" d="M240.5,70.932c2.348,0,3.821-0.863,3.821-2.272c0-1.396-1.473-2.247-3.821-2.247s-3.821,0.851-3.821,2.247
	C236.679,70.068,238.151,70.932,240.5,70.932z M240.5,67.466c1.586,0,2.526,0.419,2.526,1.193s-0.939,1.206-2.526,1.206
	s-2.526-0.432-2.526-1.206S238.913,67.466,240.5,67.466z"/>
<polygon fill="#565656" points="245.818,62.312 244.219,62.312 244.219,59.455 242.886,59.455 242.886,66.184 244.219,66.184 
	244.219,63.391 245.818,63.391 "/>
<path fill="#565656" d="M235.688,65.422h0.927c2.488,0,3.846-0.076,5.344-0.381l-0.14-1.066c-1.396,0.305-2.627,0.368-4.823,0.381
	v-3.009h3.795V60.28h-5.103V65.422z"/>
<polygon fill="#565656" points="247.828,67.809 247.828,70.779 255.661,70.779 255.661,69.751 249.123,69.751 249.123,68.773 
	255.28,68.773 255.28,65.904 247.815,65.904 247.815,66.933 253.985,66.933 253.985,67.809 "/>
<path fill="#565656" d="M253.96,61.004h-2.374v-1.041h-1.282v1.498H247.6v-1.498h-1.295v5.04h5.281v-0.901h2.374v1.295h1.32v-5.941
	h-1.32V61.004z M250.304,63.962H247.6v-1.498h2.704V63.962z M253.96,63.086h-2.374v-1.079h2.374V63.086z"/>
<polygon fill="#565656" points="257.925,67.301 257.925,70.703 265.72,70.703 265.72,69.637 259.245,69.637 259.245,67.301 "/>
<path fill="#565656" d="M263.422,65.892l-0.089-0.952c-1.13,0.178-2.361,0.254-3.555,0.305v-2.311h-1.295v2.349
	c-0.812,0.025-1.6,0.025-2.285,0.025l0.14,1.066C258.331,66.374,261.035,66.311,263.422,65.892z"/>
<polygon fill="#565656" points="265.352,64.165 266.875,64.165 266.875,63.086 265.352,63.086 265.352,59.455 264.031,59.455 
	264.031,68.062 265.352,68.062 "/>
<path fill="#565656" d="M262.381,64.368c0.279-1.485,0.279-2.615,0.279-3.39v-0.66h-5.764v1.066h4.481
	c-0.013,0.711-0.051,1.612-0.279,2.844L262.381,64.368z"/>
<polygon fill="#565656" points="230.822,140.011 232.892,140.011 232.892,142.702 234.199,142.702 234.199,135.758 232.892,135.758 
	232.892,138.932 230.822,138.932 "/>
<path fill="#565656" d="M224.678,141.547l0.635,1.016c1.346-0.419,2.311-1.32,2.818-2.463c0.521,1.003,1.485,1.803,2.793,2.171
	l0.609-1.003c-1.752-0.508-2.793-1.752-2.793-3.06v-0.102h2.412v-1.041h-2.399v-1.358h-1.32v1.358h-2.412v1.041h2.412v0.102
	C227.433,139.643,226.442,141.001,224.678,141.547z"/>
<path fill="#565656" d="M230.378,142.956c-2.399,0-3.859,0.787-3.859,2.133s1.46,2.146,3.859,2.146s3.872-0.8,3.872-2.146
	S232.777,142.956,230.378,142.956z M230.378,146.219c-1.625,0-2.552-0.406-2.552-1.13s0.927-1.117,2.552-1.117
	c1.638,0,2.564,0.394,2.564,1.117S232.016,146.219,230.378,146.219z"/>
<path fill="#565656" d="M240.182,136.761h-4.481v5.065h4.481V136.761z M238.964,140.811h-2.044v-3.034h2.044V140.811z"/>
<polygon fill="#565656" points="244.942,147.234 244.942,143.185 237.161,143.185 237.161,144.238 243.635,144.238 243.635,147.234 
	"/>
<polygon fill="#565656" points="242.492,139.706 243.698,139.706 243.698,142.588 244.942,142.588 244.942,135.771 243.698,135.771 
	243.698,138.64 242.492,138.64 242.492,135.986 241.261,135.986 241.261,142.537 242.492,142.537 "/>
<path fill="#565656" d="M251.611,143.438c1.968-0.152,3.148-0.927,3.148-2.196c0-1.384-1.473-2.196-3.821-2.196
	c-2.336,0-3.809,0.812-3.809,2.196c0,1.27,1.206,2.057,3.174,2.196v1.473h-4.532v1.079h10.397v-1.079h-4.558V143.438z
	 M248.463,141.242c0-0.749,0.914-1.181,2.476-1.181c1.574,0,2.488,0.432,2.488,1.181c0,0.762-0.914,1.193-2.488,1.193
	C249.377,142.436,248.463,142.004,248.463,141.242z"/>
<polygon fill="#565656" points="255.636,137.332 251.611,137.332 251.611,135.923 250.304,135.923 250.304,137.332 246.254,137.332 
	246.254,138.386 255.636,138.386 "/>
<path fill="#565656" d="M258.864,141.648h-1.65v1.066h8.557v-1.066h-1.663v-3.745h1.688v-1.054h-8.62v1.054h1.688V141.648z
	 M260.172,137.903h2.641v3.745h-2.641V137.903z"/>
<rect x="256.312" y="144.746" fill="#565656" width="10.41" height="1.079"/>
<polygon fill="#565656" points="233.653,149.011 232.346,149.011 232.346,155.854 233.653,155.854 233.653,152.883 235.278,152.883 
	235.278,151.803 233.653,151.803 "/>
<path fill="#565656" d="M230.505,149.735h-1.295v1.585h-2.806v-1.585h-1.308v5.332h5.408V149.735z M229.21,154.025h-2.806v-1.676
	h2.806V154.025z"/>
<path fill="#565656" d="M229.959,156.119c-2.361,0-3.821,0.826-3.821,2.184c0,1.371,1.46,2.184,3.821,2.184s3.821-0.812,3.821-2.184
	C233.78,156.945,232.32,156.119,229.959,156.119z M229.959,159.459c-1.6,0-2.526-0.406-2.526-1.156c0-0.736,0.927-1.143,2.526-1.143
	s2.526,0.406,2.526,1.143C232.485,159.053,231.559,159.459,229.959,159.459z"/>
<polygon fill="#565656" points="243.787,153.479 242.479,153.479 242.479,149.227 241.248,149.227 241.248,159.941 242.479,159.941 
	242.479,154.545 243.787,154.545 243.787,160.475 245.031,160.475 245.031,149.011 243.787,148.998 "/>
<path fill="#565656" d="M238.837,152.756h-1.98v-2.691h-1.231v7.617h4.43v-7.617h-1.218V152.756z M238.837,156.615h-1.98v-2.818
	h1.98V156.615z"/>
<polygon fill="#565656" points="248.399,157.047 247.079,157.047 247.079,160.258 254.988,160.258 254.988,159.191 248.399,159.191 
	"/>
<path fill="#565656" d="M251.611,154.076h3.199v-4.634h-1.295v1.309h-5.104v-1.309h-1.295v4.634h3.174v1.104h-4.532v1.055h10.397
	v-1.055h-4.545V154.076z M248.412,153.035v-1.27h5.104v1.27H248.412z"/>
<path fill="#565656" d="M259.816,152.934c0.482,1.117,1.409,2.006,2.679,2.449l0.635-1.016c-1.701-0.596-2.679-2.031-2.679-3.453
	v-0.189h2.387v-1.055h-6.132v1.055h2.425v0.189c0,1.562-1.041,3.072-2.818,3.695l0.673,1.027
	C258.344,155.168,259.309,154.164,259.816,152.934z"/>
<polygon fill="#565656" points="264.514,151.791 262.482,151.791 262.482,152.857 264.514,152.857 264.514,155.676 265.821,155.676 
	265.821,148.998 264.514,148.998 "/>
<path fill="#565656" d="M258.293,160.334h7.528v-4.139h-7.528V160.334z M259.575,157.236h4.964v2.057h-4.964V157.236z"/>
<polygon fill="#DA1F26" points="306.55,112.925 308.175,112.925 308.175,111.819 306.55,111.819 306.55,110.39 308.175,110.39 
	308.175,109.284 306.55,109.284 306.55,107.673 305.21,107.673 305.21,114.589 306.55,114.589 "/>
<path fill="#DA1F26" d="M302.767,114.914c-2.405,0-3.913,0.845-3.913,2.262c0,1.404,1.508,2.249,3.913,2.249
	c2.418,0,3.913-0.845,3.913-2.249C306.68,115.759,305.185,114.914,302.767,114.914z M302.767,118.358
	c-1.639,0-2.588-0.416-2.588-1.183c0-0.78,0.949-1.196,2.588-1.196c1.638,0,2.587,0.416,2.587,1.196
	C305.354,117.942,304.404,118.358,302.767,118.358z"/>
<path fill="#DA1F26" d="M303.78,111.156c0-1.65-1.339-2.795-3.133-2.795c-1.781,0-3.12,1.145-3.12,2.795
	c0,1.651,1.339,2.809,3.12,2.809C302.441,113.965,303.78,112.808,303.78,111.156z M298.84,111.156c0-1.014,0.768-1.677,1.808-1.677
	c1.053,0,1.819,0.663,1.819,1.677c0,1.027-0.767,1.678-1.819,1.678C299.607,112.834,298.84,112.184,298.84,111.156z"/>
<path fill="#DA1F26" d="M313.465,113.302c2.471,0,4.16-1.014,4.16-2.601c0-1.572-1.689-2.587-4.16-2.587
	c-2.482,0-4.173,1.015-4.173,2.587C309.292,112.288,310.982,113.302,313.465,113.302z M313.465,109.193
	c1.678,0,2.782,0.572,2.782,1.508c0,0.949-1.104,1.521-2.782,1.521c-1.689,0-2.795-0.572-2.795-1.521
	C310.67,109.766,311.775,109.193,313.465,109.193z"/>
<polygon fill="#DA1F26" points="308.161,114.303 308.161,115.407 310.761,115.407 310.761,119.425 312.126,119.425 312.126,115.407 
	314.805,115.407 314.805,119.425 316.169,119.425 316.169,115.407 318.821,115.407 318.809,114.303 "/>
<path fill="#565656" d="M107.826,275.824v-1.879h-1.308v1.879c0,2.119-1.117,4.291-2.907,5.166l0.8,1.055
	c1.308-0.674,2.272-2.006,2.768-3.594c0.495,1.498,1.409,2.742,2.641,3.377l0.8-1.041
	C108.892,279.938,107.826,277.867,107.826,275.824z"/>
<polygon fill="#565656" points="112.688,272.992 111.38,272.992 111.38,284.457 112.688,284.457 112.688,278.617 114.478,278.617 
	114.478,277.537 112.688,277.537 "/>
<path fill="#565656" d="M120.931,277.512c-1.396,0.305-2.627,0.369-4.824,0.381v-3.008h3.797v-1.066H114.8v5.141h0.926
	c2.488,0,3.848-0.076,5.346-0.381L120.931,277.512z"/>
<path fill="#565656" d="M119.61,279.949c-2.348,0-3.82,0.852-3.82,2.248c0,1.408,1.473,2.271,3.82,2.271
	c2.35,0,3.822-0.863,3.822-2.271C123.433,280.801,121.96,279.949,119.61,279.949z M119.61,283.402c-1.586,0-2.525-0.432-2.525-1.205
	c0-0.775,0.939-1.193,2.525-1.193c1.588,0,2.527,0.418,2.527,1.193C122.138,282.971,121.198,283.402,119.61,283.402z"/>
<polygon fill="#565656" points="123.331,272.992 121.997,272.992 121.997,279.721 123.331,279.721 123.331,276.928 124.931,276.928 
	124.931,275.85 123.331,275.85 "/>
<path fill="#565656" d="M128.032,274.719c0.99,0,1.738,0.686,1.738,1.689c0,1.002-0.748,1.676-1.738,1.676
	c-0.478,0-0.896-0.16-1.205-0.434v1.332c0.365,0.141,0.771,0.219,1.205,0.219c0.965,0.012,1.803-0.369,2.336-0.99h2.717v1.561h1.307
	v-6.791l-1.307,0.012v1.613h-2.717c-0.533-0.609-1.371-0.99-2.336-0.99c-0.434,0-0.839,0.076-1.205,0.215v1.328
	C127.136,274.881,127.555,274.719,128.032,274.719z M130.927,275.672h2.158v1.473h-2.172c0.064-0.229,0.102-0.482,0.102-0.736
	C131.015,276.141,130.978,275.9,130.927,275.672z"/>
<polygon fill="#565656" points="133.085,281.396 133.085,284.469 134.392,284.469 134.392,280.344 126.828,280.344 126.828,281.396 
	"/>
<rect x="126.661" y="280.344" fill="#565656" width="0.167" height="1.053"/>
<path fill="#565656" d="M125.048,276.408c0,1.211,0.713,2.166,1.78,2.574v-1.332c-0.332-0.295-0.536-0.723-0.536-1.242
	s0.204-0.951,0.536-1.25v-1.328C125.761,274.236,125.048,275.188,125.048,276.408z"/>
<path fill="#565656" d="M139.233,282.324c1.98-1.893,3.415-3.758,3.415-5.561c0-1.689-1.104-2.807-2.818-2.807
	c-1.219,0-2.044,0.533-2.844,1.396l0.825,0.812c0.495-0.57,1.104-1.041,1.841-1.041c1.041,0,1.587,0.699,1.587,1.715
	c0,1.535-1.422,3.352-4.177,5.789v0.85h6.03v-1.244h-2.336C140.3,282.234,139.716,282.273,139.233,282.324z"/>
<polygon fill="#565656" points="148.274,273.145 148.274,274.555 144.225,274.555 144.225,275.607 153.606,275.607 153.606,274.555 
	149.582,274.555 149.582,273.145 "/>
<path fill="#565656" d="M149.582,280.66c1.968-0.152,3.148-0.926,3.148-2.195c0-1.385-1.473-2.197-3.821-2.197
	c-2.336,0-3.809,0.812-3.809,2.197c0,1.27,1.206,2.057,3.174,2.195v1.473h-4.532v1.08h10.397v-1.08h-4.558V280.66z M146.434,278.465
	c0-0.75,0.914-1.182,2.476-1.182c1.574,0,2.488,0.432,2.488,1.182c0,0.762-0.914,1.193-2.488,1.193
	C147.348,279.658,146.434,279.227,146.434,278.465z"/>
<polygon fill="#565656" points="157.647,280.623 156.327,280.623 156.327,284.24 164.059,284.24 164.059,283.174 157.647,283.174 
	"/>
<polygon fill="#565656" points="163.792,281.523 163.792,272.992 162.484,272.992 162.484,275.57 160.161,275.57 160.161,276.648 
	162.484,276.648 162.484,281.523 "/>
<path fill="#565656" d="M157.749,277.182c0.482,1.156,1.384,2.082,2.615,2.539l0.698-1.016c-1.714-0.621-2.679-2.107-2.679-3.656
	v-1.357h-1.333v1.332c0,1.701-0.99,3.314-2.78,3.949l0.698,1.016C156.289,279.48,157.241,278.465,157.749,277.182z"/>
<path fill="#565656" d="M34.062,165.938l-1.041-0.799c-0.851,1.727-2.92,2.793-4.964,2.793h-1.879v1.307h1.879
	c2.12,0,4.291,1.117,5.167,2.908l1.054-0.801c-0.673-1.307-2.006-2.271-3.593-2.768C32.184,168.084,33.428,167.17,34.062,165.938z"
	/>
<polygon fill="#565656" points="36.69,163.068 30.851,163.068 30.851,161.279 29.771,161.279 29.771,163.068 25.227,163.068 
	25.227,164.377 36.69,164.377 "/>
<polygon fill="#565656" points="31.955,152.426 29.162,152.426 29.162,150.827 28.083,150.827 28.083,152.426 25.227,152.426 
	25.227,153.76 31.955,153.76 "/>
<path fill="#565656" d="M34.431,152.324c-1.396,0-2.247,1.473-2.247,3.822c0,2.348,0.851,3.82,2.247,3.82
	c1.409,0,2.272-1.473,2.272-3.82C36.703,153.797,35.84,152.324,34.431,152.324z M34.431,158.672c-0.774,0-1.193-0.939-1.193-2.525
	c0-1.588,0.419-2.527,1.193-2.527s1.206,0.939,1.206,2.527C35.637,157.732,35.205,158.672,34.431,158.672z"/>
<path fill="#565656" d="M26.052,155.854v5.104h5.142v-0.926c0-2.488-0.076-3.848-0.381-5.346l-1.066,0.141
	c0.305,1.396,0.368,2.627,0.381,4.824h-3.009v-3.797H26.052z"/>
<path fill="#565656" d="M25.227,142.673h1.612v2.717c-0.609,0.533-0.99,1.371-0.99,2.336c0,1.701,1.155,2.984,2.793,2.984
	c1.625,0,2.793-1.283,2.793-2.984c0.013-0.965-0.368-1.803-0.99-2.336v-2.717h1.562v-1.307h-6.792L25.227,142.673z M27.905,142.673
	h1.473v2.172c-0.229-0.064-0.482-0.102-0.736-0.102c-0.267,0-0.508,0.037-0.736,0.088V142.673z M28.642,145.987
	c1.003,0,1.676,0.748,1.676,1.738s-0.673,1.74-1.676,1.74s-1.688-0.75-1.688-1.74S27.639,145.987,28.642,145.987z"/>
<polygon fill="#565656" points="36.703,141.366 32.577,141.366 32.577,149.097 33.631,149.097 33.631,142.673 36.703,142.673 "/>
<path fill="#565656" d="M33.199,139v-4.037h2.514v-1.371h-2.514v-1.193h-1.13v1.193h-5.7v1.688l5.853,3.72H33.199z M32.069,137.527
	l-2.818-1.841c-0.482-0.267-0.965-0.521-1.435-0.749v-0.051c0.508,0.025,1.295,0.076,1.803,0.076h2.45V137.527z"/>
<polygon fill="#565656" points="27.842,131.787 27.842,122.405 26.788,122.405 26.788,126.43 25.379,126.43 25.379,127.737 
	26.788,127.737 26.788,131.787 "/>
<path fill="#565656" d="M34.367,126.43h-1.473c-0.152-1.968-0.927-3.148-2.196-3.148c-1.384,0-2.196,1.473-2.196,3.821
	c0,2.336,0.812,3.809,2.196,3.809c1.27,0,2.057-1.206,2.196-3.174h1.473v4.532h1.079v-10.397h-1.079V126.43z M30.698,129.578
	c-0.749,0-1.181-0.914-1.181-2.476c0-1.574,0.432-2.488,1.181-2.488c0.762,0,1.193,0.914,1.193,2.488
	C31.892,128.664,31.46,129.578,30.698,129.578z"/>
<polygon fill="#565656" points="33.758,112.22 25.227,112.22 25.227,113.527 27.804,113.527 27.804,115.851 28.883,115.851 
	28.883,113.527 33.758,113.527 "/>
<polygon fill="#565656" points="35.408,118.364 32.856,118.364 32.856,119.685 36.475,119.685 36.475,111.953 35.408,111.953 "/>
<path fill="#565656" d="M29.416,118.263c1.155-0.482,2.082-1.384,2.539-2.615l-1.016-0.698c-0.622,1.714-2.107,2.679-3.656,2.679
	h-1.358v1.333h1.333c1.701,0,3.313,0.99,3.948,2.78l1.016-0.698C31.714,119.723,30.698,118.771,29.416,118.263z"/>
<path fill="#565656" d="M119.89,200.988h-5.383v7.578h5.383V200.988z M118.607,207.514h-2.818v-5.484h2.818V207.514z"/>
<rect x="122.01" y="199.896" fill="#565656" width="1.32" height="11.502"/>
<path fill="#565656" d="M131.688,207.932l-0.14-1.092c-1.649,0.338-3.22,0.477-4.72,0.51v1.113
	C128.38,208.428,129.989,208.283,131.688,207.932z"/>
<path fill="#565656" d="M126.406,201.025h-1.295v7.453h0.978c0.244,0,0.492-0.01,0.739-0.016v-1.113
	c-0.14,0.002-0.283,0.01-0.421,0.012V201.025z"/>
<rect x="132.602" y="199.908" fill="#565656" width="1.308" height="11.465"/>
<rect x="134.979" y="208.82" fill="#565656" width="10.385" height="1.08"/>
<path fill="#565656" d="M135.335,205.508l0.559,1.078c1.866-0.381,3.479-1.574,4.228-3.148c0.749,1.574,2.361,2.768,4.228,3.148
	l0.571-1.078c-2.26-0.406-4.101-2.172-4.101-4v-0.863h-1.384v0.863C139.436,203.324,137.595,205.088,135.335,205.508z"/>
<polygon fill="#565656" points="151.348,204.758 154.725,204.758 154.725,203.768 148.136,203.768 148.136,202.893 154.369,202.893 
	154.369,201.939 148.136,201.939 148.136,201.115 154.648,201.115 154.648,200.125 146.828,200.125 146.828,204.758 
	150.027,204.758 150.027,205.686 145.495,205.686 145.495,206.727 155.893,206.727 155.893,205.686 151.348,205.686 "/>
<path fill="#565656" d="M153.277,208.199h-5.192v-0.939h-1.295v3.973h7.782v-3.973h-1.295V208.199z M153.277,210.191h-5.192v-0.99
	h5.192V210.191z"/>
<path fill="#565656" d="M293.624,238.086h-7.325v4.037h7.325V238.086z M292.342,241.082h-4.748v-1.955h4.748V241.082z"/>
<path fill="#565656" d="M290.45,232.525v-1.055h-5.307v5.574h0.901c2.336,0,3.669-0.051,5.23-0.33l-0.14-1.029
	c-1.435,0.254-2.653,0.305-4.685,0.305v-1.244h3.783v-1.027h-3.783v-1.193H290.45z"/>
<polygon fill="#565656" points="293.624,234.645 295.249,234.645 295.249,233.566 293.624,233.566 293.624,230.785 292.316,230.785 
	292.316,237.527 293.624,237.527 "/>
<path fill="#565656" d="M300.521,234.506c0-1.664-1.104-2.832-2.628-2.832c-1.511,0-2.603,1.168-2.603,2.832
	c0,1.662,1.092,2.83,2.603,2.83C299.417,237.336,300.521,236.168,300.521,234.506z M296.472,234.506
	c0-1.041,0.609-1.715,1.422-1.715c0.838,0,1.447,0.674,1.447,1.715s-0.609,1.713-1.447,1.713
	C297.081,236.219,296.472,235.547,296.472,234.506z"/>
<polygon fill="#565656" points="301.245,231.014 301.245,238.986 302.477,238.986 302.477,235.166 303.67,235.166 303.67,239.393 
	304.914,239.393 304.914,230.811 303.67,230.811 303.67,234.086 302.477,234.086 302.477,231.014 "/>
<polygon fill="#565656" points="305.231,240.98 298.655,240.98 298.655,238.264 297.335,238.264 297.335,242.047 305.231,242.047 
	"/>
<path fill="#565656" d="M311.532,232.525v-1.055h-5.307v5.574h0.901c2.336,0,3.669-0.051,5.23-0.33l-0.14-1.029
	c-1.435,0.254-2.653,0.305-4.685,0.305v-1.244h3.783v-1.027h-3.783v-1.193H311.532z"/>
<path fill="#565656" d="M314.706,238.086h-7.325v4.037h7.325V238.086z M313.424,241.082h-4.748v-1.955h4.748V241.082z"/>
<polygon fill="#565656" points="314.706,234.645 316.331,234.645 316.331,233.566 314.706,233.566 314.706,230.785 313.398,230.785 
	313.398,237.527 314.706,237.527 "/>
<rect x="316.297" y="239.711" fill="#565656" width="10.385" height="1.078"/>
<path fill="#565656" d="M320.753,231.535v0.863c0,1.814-1.841,3.58-4.101,3.998l0.559,1.08c1.866-0.381,3.479-1.574,4.228-3.148
	c0.749,1.574,2.361,2.768,4.228,3.148l0.571-1.08c-2.26-0.406-4.101-2.17-4.101-3.998v-0.863H320.753z"/>
<path fill="#565656" d="M378.572,73.203h-4.558V71.02c2.095-0.19,3.567-1.358,3.567-3.06c0-1.866-1.79-3.072-4.215-3.072
	c-2.438,0-4.215,1.206-4.215,3.072c0,1.701,1.46,2.856,3.555,3.047v2.196h-4.52v1.066h10.385V73.203z M370.422,67.96
	c0-1.244,1.231-2.031,2.945-2.031c1.701,0,2.933,0.787,2.933,2.031s-1.231,2.031-2.933,2.031
	C371.653,69.991,370.422,69.204,370.422,67.96z"/>
<polygon fill="#565656" points="387.679,67.947 389.304,67.947 389.304,66.868 387.679,66.868 387.679,64.202 386.371,64.202 
	386.371,70.677 387.679,70.677 "/>
<path fill="#565656" d="M380.354,75.539h7.325v-4.367h-7.325V75.539z M381.648,72.213h4.735v2.272h-4.735V72.213z"/>
<path fill="#565656" d="M378.665,69.813l0.508,1.041c3.39-0.901,5.357-2.983,5.357-5.954h-5.345v1.066h3.936
	C382.905,67.706,381.344,69.103,378.665,69.813z"/>
<polygon fill="#565656" points="395.097,75.679 395.097,71.705 399.616,71.705 399.616,70.639 389.257,70.639 389.257,71.705 
	393.789,71.705 393.789,75.679 "/>
<path fill="#565656" d="M389.46,68.772l0.571,0.952c1.104-0.355,1.828-1.092,2.222-1.917c0.368,0.863,1.079,1.65,2.184,2.044
	c1.104-0.381,1.815-1.168,2.184-2.031c0.381,0.851,1.13,1.574,2.234,1.917l0.571-0.952c-1.435-0.444-2.133-1.485-2.133-2.463v-0.394
	h1.701v-1.054h-4.329v1.054h1.308v0.394c0,0.812-0.495,1.765-1.523,2.323c-1.041-0.571-1.549-1.562-1.549-2.323v-0.394h1.32v-1.054
	h-4.342v1.054h1.714v0.394C391.593,67.211,390.882,68.303,389.46,68.772z"/>
<path fill="#565656" d="M404.305,75.679h1.308v-4.926h4.558v-1.079h-1.536c0.381-1.866,0.381-3.199,0.381-4.075v-0.635h-3.847v1.054
	h2.564c-0.013,0.863-0.063,2.057-0.419,3.656h-3.428c0.47-1.968,0.47-3.352,0.47-4.177v-0.533h-3.732v1.054h2.45
	c-0.013,0.838-0.102,2.057-0.521,3.656h-2.755v1.079h4.507V75.679z"/>
<path fill="#565656" d="M416.344,65.294h-5.383v7.579h5.383V65.294z M415.062,71.819h-2.818v-5.484h2.818V71.819z"/>
<rect x="418.464" y="64.202" fill="#565656" width="1.32" height="11.502"/>
<polygon fill="#565656" points="378.716,117.56 383.223,117.56 383.223,121.457 384.53,121.457 384.53,117.56 389.113,117.56 
	389.113,116.48 378.716,116.48 "/>
<path fill="#565656" d="M383.896,115.503c2.412,0,4.062-0.99,4.062-2.552c0-1.549-1.65-2.539-4.062-2.539
	c-2.425,0-4.075,0.99-4.075,2.539C379.82,114.513,381.471,115.503,383.896,115.503z M383.896,111.466
	c1.638,0,2.717,0.559,2.717,1.485c0,0.939-1.079,1.498-2.717,1.498c-1.65,0-2.729-0.559-2.729-1.498
	C381.166,112.024,382.245,111.466,383.896,111.466z"/>
<path fill="#565656" d="M394.957,117.128c-2.399,0-3.872,0.812-3.872,2.171c0,1.371,1.473,2.171,3.872,2.171
	c2.387,0,3.859-0.8,3.859-2.171C398.816,117.94,397.344,117.128,394.957,117.128z M394.957,120.454
	c-1.638,0-2.564-0.406-2.564-1.155s0.927-1.155,2.564-1.155c1.612,0,2.552,0.406,2.552,1.155S396.569,120.454,394.957,120.454z"/>
<path fill="#565656" d="M389.27,115.719l0.673,1.041c1.358-0.482,2.323-1.498,2.831-2.755c0.482,1.104,1.396,2.006,2.666,2.45
	l0.647-1.028c-1.714-0.597-2.691-2.019-2.691-3.453v-0.152h2.387v-1.054h-6.132v1.054h2.425v0.165
	C392.075,113.561,391.047,115.084,389.27,115.719z"/>
<polygon fill="#565656" points="395.427,113.941 397.458,113.941 397.458,116.823 398.766,116.823 398.766,109.993 397.458,109.993 
	397.458,112.875 395.427,112.875 "/>
<rect x="407.936" y="109.98" fill="#565656" width="1.32" height="5.954"/>
<path fill="#565656" d="M405.854,110.463h-1.308v1.498h-2.856v-1.498h-1.295v5.04h5.459V110.463z M404.546,114.462h-2.856v-1.511
	h2.856V114.462z"/>
<polygon fill="#565656" points="403.048,119.35 409.256,119.35 409.256,116.493 401.74,116.493 401.74,117.496 407.961,117.496 
	407.961,118.397 401.766,118.397 401.766,121.355 409.599,121.355 409.599,120.34 403.048,120.34 "/>
<path fill="#565656" d="M415.963,117.014c-2.399,0-3.885,0.825-3.885,2.222c0,1.409,1.485,2.234,3.885,2.234
	c2.387,0,3.885-0.825,3.885-2.234C419.848,117.839,418.35,117.014,415.963,117.014z M415.963,120.441
	c-1.625,0-2.577-0.432-2.577-1.206c0-0.762,0.952-1.193,2.577-1.193s2.577,0.432,2.577,1.193
	C418.54,120.01,417.588,120.441,415.963,120.441z"/>
<path fill="#565656" d="M417.588,115.63l-0.127-1.054c-1.511,0.305-2.844,0.368-5.129,0.381v-3.021h4.101v-1.066h-5.408v5.154h0.965
	C414.528,116.023,415.976,115.96,417.588,115.63z"/>
<rect x="418.489" y="109.993" fill="#565656" width="1.308" height="6.957"/>
<path fill="#565656" d="M384.556,162.131c2.095-0.191,3.567-1.359,3.567-3.061c0-1.865-1.79-3.072-4.215-3.072
	c-2.438,0-4.215,1.207-4.215,3.072c0,1.701,1.46,2.857,3.555,3.047v2.197h-4.52v1.066h10.385v-1.066h-4.558V162.131z
	 M380.963,159.07c0-1.244,1.231-2.031,2.945-2.031c1.701,0,2.933,0.787,2.933,2.031s-1.231,2.031-2.933,2.031
	C382.194,161.102,380.963,160.314,380.963,159.07z"/>
<polygon fill="#565656" points="390.59,157.674 390.59,160.684 398.575,160.684 398.575,159.668 391.872,159.668 391.872,158.613 
	398.347,158.613 398.347,155.643 390.564,155.643 390.564,156.646 397.052,156.646 397.052,157.674 "/>
<polygon fill="#565656" points="391.847,163.527 390.539,163.527 390.539,166.574 398.651,166.574 398.651,165.52 391.847,165.52 
	"/>
<polygon fill="#565656" points="389.282,162.6 392.824,162.6 392.824,164.365 394.132,164.365 394.132,162.6 395.757,162.6 
	395.757,164.365 397.064,164.365 397.064,162.6 399.654,162.6 399.654,161.559 389.282,161.559 "/>
<polygon fill="#565656" points="403.048,164.682 409.256,164.682 409.256,161.826 401.74,161.826 401.74,162.828 407.961,162.828 
	407.961,163.73 401.766,163.73 401.766,166.688 409.599,166.688 409.599,165.672 403.048,165.672 "/>
<path fill="#565656" d="M405.854,155.795h-1.308v1.498h-2.856v-1.498h-1.295v5.041h5.459V155.795z M404.546,159.795h-2.856v-1.512
	h2.856V159.795z"/>
<rect x="407.936" y="155.312" fill="#565656" width="1.32" height="5.955"/>
<rect x="418.489" y="155.326" fill="#565656" width="1.308" height="6.957"/>
<path fill="#565656" d="M415.963,162.346c-2.399,0-3.885,0.826-3.885,2.223c0,1.408,1.485,2.234,3.885,2.234
	c2.387,0,3.885-0.826,3.885-2.234C419.848,163.172,418.35,162.346,415.963,162.346z M415.963,165.773
	c-1.625,0-2.577-0.432-2.577-1.205c0-0.762,0.952-1.193,2.577-1.193s2.577,0.432,2.577,1.193
	C418.54,165.342,417.588,165.773,415.963,165.773z"/>
<path fill="#565656" d="M417.461,159.908c-1.511,0.305-2.844,0.369-5.129,0.381v-3.021h4.101v-1.066h-5.408v5.154h0.965
	c2.539,0,3.986-0.062,5.599-0.393L417.461,159.908z"/>
<path fill="#565656" d="M393.797,214.141v1.893c0,2.145-1.117,4.354-2.908,5.23l0.826,1.041c1.307-0.674,2.246-2.006,2.754-3.631
	c0.496,1.535,1.422,2.793,2.717,3.439l0.775-1.053c-1.752-0.812-2.844-2.895-2.844-5.027v-1.893H393.797z"/>
<polygon fill="#565656" points="400.486,224.691 400.486,213.189 399.166,213.189 399.166,216.959 396.717,216.959 396.717,218.025 
	399.166,218.025 399.166,224.691 "/>
<polygon fill="#565656" points="411.891,222.229 407.346,222.229 407.346,219.791 406.039,219.791 406.039,222.229 401.506,222.229 
	401.506,223.295 411.891,223.295 "/>
<path fill="#565656" d="M401.963,219.143l0.496,1.055c1.93-0.305,3.479-1.193,4.24-2.488c0.748,1.295,2.297,2.184,4.227,2.488
	l0.496-1.055c-2.412-0.33-3.986-1.637-4.062-3.174h3.58v-1.066h-3.594v-1.484h-1.307v1.484h-3.605v1.066h3.592
	C405.949,217.506,404.375,218.812,401.963,219.143z"/>
<rect x="412.035" y="222.189" fill="#565656" width="10.41" height="1.08"/>
<path fill="#565656" d="M421.518,215.348v-1.055h-8.619v1.055h1.688v3.744h-1.65v1.066h8.557v-1.066h-1.662v-3.744H421.518z
	 M418.535,219.092h-2.641v-3.744h2.641V219.092z"/>
<polygon fill="#565656" points="433.252,217.67 431.488,217.67 431.488,213.189 430.168,213.189 430.168,224.691 431.488,224.691 
	431.488,218.762 433.252,218.762 "/>
<path fill="#565656" d="M423.045,217.441v4.533h0.939c2.121,0,3.656-0.076,5.422-0.395l-0.141-1.066
	c-1.611,0.293-3.047,0.369-4.926,0.381v-2.398h3.924v-4.266h-5.244v1.066h3.949v2.145H423.045z"/>
<path fill="#565656" d="M436.393,213.785c-1.752,0-3.047,1.105-3.047,2.705s1.295,2.703,3.047,2.703s3.033-1.104,3.033-2.703
	S438.145,213.785,436.393,213.785z M436.393,218.115c-1.029,0-1.766-0.635-1.766-1.625c0-0.979,0.736-1.625,1.766-1.625
	c1.016,0,1.764,0.646,1.764,1.625C438.156,217.48,437.408,218.115,436.393,218.115z"/>
<rect x="441.268" y="213.227" fill="#565656" width="1.307" height="6.525"/>
<path fill="#565656" d="M435.072,224.539h7.502v-4.215h-7.502V224.539z M436.354,221.365h4.939v2.133h-4.939V221.365z"/>
<path fill="#565656" d="M401.506,235.443v1.066h10.385v-1.066h-2.449v-2.984c0.914-0.52,1.459-1.332,1.459-2.348
	c0-1.828-1.777-2.996-4.215-2.996c-2.449,0-4.215,1.168-4.215,2.996c0,1.016,0.547,1.84,1.461,2.348v2.984H401.506z
	 M408.133,235.443h-2.895v-2.488c0.445,0.102,0.939,0.152,1.447,0.152s1.004-0.051,1.447-0.166V235.443z M403.74,230.111
	c0-1.207,1.207-1.969,2.945-1.969c1.727,0,2.934,0.762,2.934,1.969c0,1.219-1.207,1.98-2.934,1.98
	C404.947,232.092,403.74,231.33,403.74,230.111z"/>
<path fill="#565656" d="M417.303,237.918c2.361,0,3.822-0.824,3.822-2.195c0-1.385-1.461-2.209-3.822-2.209
	c-2.348,0-3.82,0.824-3.82,2.209C413.482,237.094,414.955,237.918,417.303,237.918z M417.303,234.555c1.6,0,2.527,0.406,2.527,1.168
	c0,0.748-0.928,1.154-2.527,1.154s-2.525-0.406-2.525-1.154C414.777,234.961,415.703,234.555,417.303,234.555z"/>
<polygon fill="#565656" points="422.584,229.096 422.584,228.016 420.998,228.016 420.998,226.441 419.689,226.441 419.689,233.195 
	420.998,233.195 420.998,231.57 422.584,231.57 422.584,230.492 420.998,230.492 420.998,229.096 "/>
<path fill="#565656" d="M415.234,232.586c1.752,0,3.059-1.129,3.059-2.742c0-1.611-1.307-2.729-3.059-2.729
	c-1.74,0-3.047,1.117-3.047,2.729C412.188,231.457,413.494,232.586,415.234,232.586z M415.234,228.207
	c1.027,0,1.777,0.646,1.777,1.637c0,1.004-0.75,1.639-1.777,1.639c-1.016,0-1.766-0.635-1.766-1.639
	C413.469,228.854,414.219,228.207,415.234,228.207z"/>
<path fill="#565656" d="M428.264,237.918c2.398,0,3.871-0.799,3.871-2.17c0-1.359-1.473-2.172-3.871-2.172
	c-2.387,0-3.859,0.812-3.859,2.172C424.404,237.119,425.877,237.918,428.264,237.918z M428.264,234.592
	c1.625,0,2.564,0.406,2.564,1.156c0,0.748-0.939,1.154-2.564,1.154s-2.553-0.406-2.553-1.154
	C425.711,234.998,426.639,234.592,428.264,234.592z"/>
<path fill="#565656" d="M428.391,231.646h2.387v1.715h1.307v-6.906h-1.307v1.777h-2.387v-1.08h-1.283v1.701h-2.703v-1.701h-1.295
	v5.447h5.281V231.646z M428.391,229.299h2.387v1.281h-2.387V229.299z M427.107,231.559h-2.703v-1.676h2.703V231.559z"/>
<path fill="#565656" d="M436.266,232.662v2.133h1.307v-2.209c0.979-0.051,1.98-0.164,2.945-0.33l-0.102-0.939
	c-2.424,0.305-5.242,0.33-7.35,0.344l0.164,1.066C434.133,232.727,435.174,232.713,436.266,232.662z"/>
<polygon fill="#565656" points="442.625,235.164 442.625,226.441 441.318,226.441 441.318,233.184 439.07,233.184 439.07,234.098 
	441.318,234.098 441.318,235.164 "/>
<polygon fill="#565656" points="442.893,236.637 435.922,236.637 435.922,234.312 434.615,234.312 434.615,237.703 442.893,237.703 
	"/>
<path fill="#565656" d="M433.941,228.904c0,1.219,1.156,2.02,2.844,2.02c1.676,0,2.832-0.801,2.832-2.02s-1.156-2.018-2.832-2.018
	C435.098,226.887,433.941,227.686,433.941,228.904z M438.373,228.904c0,0.648-0.648,1.055-1.588,1.055c-0.951,0-1.6-0.406-1.6-1.055
	c0-0.646,0.648-1.053,1.6-1.053C437.725,227.852,438.373,228.258,438.373,228.904z"/>
</svg>
