<?xml version="1.0" encoding="utf-8"?>
<!-- Generator: Adobe Illustrator 23.0.6, SVG Export Plug-In . SVG Version: 6.00 Build 0)  -->
<svg version="1.1" id="Ebene_1" xmlns="http://www.w3.org/2000/svg" xmlns:xlink="http://www.w3.org/1999/xlink" x="0px" y="0px"
	 width="150.1px" height="185.7px" viewBox="0 0 150.1 185.7" style="enable-background:new 0 0 150.1 185.7;" xml:space="preserve"
	>
<style type="text/css">
	.st0{clip-path:url(#SVGID_2_);}
	.st1{clip-path:url(#SVGID_4_);}
	.st2{clip-path:url(#SVGID_6_);}
	.st3{clip-path:url(#SVGID_8_);}
	.st4{clip-path:url(#SVGID_10_);}
	.st5{clip-path:url(#SVGID_12_);}
	.st6{clip-path:url(#SVGID_14_);}
	.st7{clip-path:url(#SVGID_16_);}
	.st8{clip-path:url(#SVGID_18_);}
	.st9{clip-path:url(#SVGID_20_);}
	.st10{clip-path:url(#SVGID_22_);}
	.st11{clip-path:url(#SVGID_24_);}
	.st12{clip-path:url(#SVGID_26_);}
	.st13{clip-path:url(#SVGID_28_);}
	.st14{clip-path:url(#SVGID_30_);}
	.st15{clip-path:url(#SVGID_32_);}
	.st16{clip-path:url(#SVGID_34_);}
	.st17{clip-path:url(#SVGID_36_);}
	.st18{clip-path:url(#SVGID_38_);}
	.st19{clip-path:url(#SVGID_40_);}
	.st20{clip-path:url(#SVGID_42_);}
	.st21{clip-path:url(#SVGID_44_);}
	.st22{clip-path:url(#SVGID_46_);}
	.st23{clip-path:url(#SVGID_48_);}
	.st24{clip-path:url(#SVGID_50_);}
	.st25{clip-path:url(#SVGID_52_);}
	.st26{clip-path:url(#SVGID_54_);}
	.st27{clip-path:url(#SVGID_56_);}
	.st28{clip-path:url(#SVGID_58_);}
	.st29{clip-path:url(#SVGID_60_);}
	.st30{clip-path:url(#SVGID_62_);}
	.st31{clip-path:url(#SVGID_64_);}
	.st32{clip-path:url(#SVGID_66_);}
</style>
<g>
	<g>
		<defs>
			<rect id="SVGID_1_" x="43.9" y="78.1" width="62.3" height="29.5"/>
		</defs>
		<clipPath id="SVGID_2_">
			<use xlink:href="#SVGID_1_"  style="overflow:visible;"/>
		</clipPath>
		<path class="st0" d="M46.4,128.1c-0.3,0-0.6,0-0.9-0.1l0.1-0.7c0.2,0.1,0.5,0.2,0.8,0.2s0.6-0.1,0.6-0.5c0-0.7-1.5-0.4-1.5-1.6
			c0-0.7,0.5-1.1,1.4-1.1c0.2,0,0.5,0,0.7,0.1l-0.1,0.6c-0.2-0.1-0.4-0.1-0.6-0.1c-0.4,0-0.6,0.2-0.6,0.4c0,0.7,1.6,0.4,1.6,1.6
			C47.8,127.6,47.3,128.1,46.4,128.1"/>
	</g>
	<g>
		<defs>
			<rect id="SVGID_3_" x="43.9" y="78.1" width="62.3" height="29.5"/>
		</defs>
		<clipPath id="SVGID_4_">
			<use xlink:href="#SVGID_3_"  style="overflow:visible;"/>
		</clipPath>
		<path class="st1" d="M49.4,128.1c-0.8,0-1.2-0.4-1.2-1.3c0-0.8,0.4-1.5,1.4-1.5c0.2,0,0.4,0,0.6,0.1l-0.1,0.6
			c-0.1-0.1-0.3-0.1-0.5-0.1c-0.4,0-0.6,0.3-0.6,0.8s0.2,0.8,0.6,0.8c0.2,0,0.4,0,0.5-0.1l0.1,0.6C50,128.1,49.7,128.1,49.4,128.1"
			/>
	</g>
	<g>
		<defs>
			<rect id="SVGID_5_" x="43.9" y="78.1" width="62.3" height="29.5"/>
		</defs>
		<clipPath id="SVGID_6_">
			<use xlink:href="#SVGID_5_"  style="overflow:visible;"/>
		</clipPath>
		<path class="st2" d="M52.4,128.1v-1.7c0-0.3-0.1-0.4-0.3-0.4c-0.3,0-0.6,0.4-0.6,0.9v1.2h-0.8v-4h0.7v1.2c0,0.2,0,0.4,0,0.5l0,0
			c0.2-0.3,0.5-0.5,0.9-0.5c0.6,0,0.8,0.4,0.8,0.9v1.9H52.4z"/>
	</g>
	<g>
		<defs>
			<rect id="SVGID_7_" x="43.9" y="78.1" width="62.3" height="29.5"/>
		</defs>
		<clipPath id="SVGID_8_">
			<use xlink:href="#SVGID_7_"  style="overflow:visible;"/>
		</clipPath>
		<path class="st3" d="M55.6,128.1c0-0.1,0-0.3,0-0.5l0,0c-0.2,0.3-0.5,0.5-0.9,0.5c-0.6,0-0.8-0.4-0.8-0.9v-1.9h0.7v1.8
			c0,0.3,0.1,0.4,0.3,0.4c0.4,0,0.6-0.4,0.6-0.9v-1.3h0.7v2.8H55.6z"/>
	</g>
	<g>
		<defs>
			<rect id="SVGID_9_" x="43.9" y="78.1" width="62.3" height="29.5"/>
		</defs>
		<clipPath id="SVGID_10_">
			<use xlink:href="#SVGID_9_"  style="overflow:visible;"/>
		</clipPath>
		<rect x="57" y="124.1" class="st4" width="0.7" height="4"/>
	</g>
	<g>
		<defs>
			<rect id="SVGID_11_" x="43.9" y="78.1" width="62.3" height="29.5"/>
		</defs>
		<clipPath id="SVGID_12_">
			<use xlink:href="#SVGID_11_"  style="overflow:visible;"/>
		</clipPath>
		<path class="st5" d="M60.6,126.9h-1.7c0,0.5,0.2,0.7,0.7,0.7c0.3,0,0.5-0.1,0.8-0.2l0.1,0.5c-0.2,0.2-0.6,0.2-0.9,0.2
			c-0.9,0-1.3-0.4-1.3-1.4c0-0.8,0.5-1.4,1.3-1.4s1.1,0.5,1.1,1.2C60.7,126.6,60.7,126.7,60.6,126.9 M59.5,125.8
			c-0.3,0-0.5,0.2-0.5,0.6h1C60,126,59.8,125.8,59.5,125.8"/>
	</g>
	<g>
		<defs>
			<rect id="SVGID_13_" x="43.9" y="78.1" width="62.3" height="29.5"/>
		</defs>
		<clipPath id="SVGID_14_">
			<use xlink:href="#SVGID_13_"  style="overflow:visible;"/>
		</clipPath>
		<path class="st6" d="M64.1,124.7c-0.1,0-0.2,0-0.3,0c-0.3,0-0.4,0.2-0.4,0.5v0.2h0.5v0.5h-0.6v2.2h-0.7v-2.2h-0.5v-0.5h0.5v-0.3
			c0-0.7,0.3-1.1,1.1-1.1c0.1,0,0.3,0,0.4,0L64.1,124.7z"/>
	</g>
	<g>
		<defs>
			<rect id="SVGID_15_" x="43.9" y="78.1" width="62.3" height="29.5"/>
		</defs>
		<clipPath id="SVGID_16_">
			<use xlink:href="#SVGID_15_"  style="overflow:visible;"/>
		</clipPath>
		<path class="st7" d="M66.1,128.1c0-0.1,0-0.3,0-0.5l0,0c-0.2,0.3-0.5,0.5-0.9,0.5c-0.6,0-0.8-0.4-0.8-0.9v-1.9h0.7v1.8
			c0,0.3,0.1,0.4,0.3,0.4c0.4,0,0.6-0.4,0.6-0.9v-1.3h0.7v2.8H66.1z M65,124.9c-0.2,0-0.4-0.2-0.4-0.4c0-0.2,0.2-0.4,0.4-0.4
			c0.2,0,0.4,0.2,0.4,0.4C65.4,124.8,65.2,124.9,65,124.9 M66.1,124.9c-0.2,0-0.4-0.2-0.4-0.4c0-0.2,0.2-0.4,0.4-0.4
			c0.2,0,0.4,0.2,0.4,0.4C66.5,124.8,66.3,124.9,66.1,124.9"/>
	</g>
	<g>
		<defs>
			<rect id="SVGID_17_" x="43.9" y="78.1" width="62.3" height="29.5"/>
		</defs>
		<clipPath id="SVGID_18_">
			<use xlink:href="#SVGID_17_"  style="overflow:visible;"/>
		</clipPath>
		<path class="st8" d="M69,126c-0.5-0.1-0.8,0.2-0.8,1v1.1h-0.7v-2.7h0.7c0,0.1,0,0.4,0,0.5l0,0c0.1-0.3,0.4-0.6,0.9-0.6L69,126z"/>
	</g>
	<g>
		<defs>
			<rect id="SVGID_19_" x="43.9" y="78.1" width="62.3" height="29.5"/>
		</defs>
		<clipPath id="SVGID_20_">
			<use xlink:href="#SVGID_19_"  style="overflow:visible;"/>
		</clipPath>
		<path class="st9" d="M72.3,128.1c-1.2,0-1.9-0.7-1.9-1.8c0-1.2,0.7-2,2-2c0.4,0,0.7,0.1,1,0.2l-0.1,0.6c-0.3-0.1-0.6-0.2-0.9-0.2
			c-0.9,0-1.2,0.6-1.2,1.3c0,0.8,0.4,1.2,1.2,1.2c0.2,0,0.3,0,0.5-0.1V126h0.7v1.8C73.2,128.1,72.8,128.1,72.3,128.1"/>
	</g>
	<g>
		<defs>
			<rect id="SVGID_21_" x="43.9" y="78.1" width="62.3" height="29.5"/>
		</defs>
		<clipPath id="SVGID_22_">
			<use xlink:href="#SVGID_21_"  style="overflow:visible;"/>
		</clipPath>
		<path class="st10" d="M76.5,126.9h-1.6c0,0.5,0.2,0.7,0.7,0.7c0.3,0,0.5-0.1,0.8-0.2l0.1,0.5c-0.3,0.1-0.6,0.2-1,0.2
			c-0.9,0-1.3-0.4-1.3-1.4c0-0.8,0.5-1.4,1.3-1.4c0.8,0,1.1,0.5,1.1,1.2C76.6,126.6,76.6,126.7,76.5,126.9 M75.4,125.8
			c-0.3,0-0.5,0.2-0.5,0.6h1C75.9,126,75.7,125.8,75.4,125.8"/>
	</g>
	<g>
		<defs>
			<rect id="SVGID_23_" x="43.9" y="78.1" width="62.3" height="29.5"/>
		</defs>
		<clipPath id="SVGID_24_">
			<use xlink:href="#SVGID_23_"  style="overflow:visible;"/>
		</clipPath>
		<path class="st11" d="M77.6,128.1c-0.2,0-0.4,0-0.6-0.1v-0.6c0.2,0.1,0.4,0.1,0.6,0.1c0.3,0,0.4-0.1,0.4-0.3
			c0-0.5-1.1-0.2-1.1-1.1c0-0.5,0.4-0.9,1.1-0.9c0.2,0,0.3,0,0.5,0.1v0.5c-0.1,0-0.3-0.1-0.5-0.1c-0.3,0-0.4,0.1-0.4,0.3
			c0,0.5,1.1,0.2,1.1,1.1C78.8,127.8,78.4,128.1,77.6,128.1"/>
	</g>
	<g>
		<defs>
			<rect id="SVGID_25_" x="43.9" y="78.1" width="62.3" height="29.5"/>
		</defs>
		<clipPath id="SVGID_26_">
			<use xlink:href="#SVGID_25_"  style="overflow:visible;"/>
		</clipPath>
		<path class="st12" d="M80.3,128.1c-0.6,0-0.8-0.2-0.8-0.9v-1.4H79v-0.5h0.5v-0.8l0.7-0.2v1h0.7v0.5h-0.7v1.3
			c0,0.3,0.1,0.4,0.3,0.4c0.1,0,0.2,0,0.3,0v0.6C80.8,128.1,80.5,128.1,80.3,128.1"/>
	</g>
	<g>
		<defs>
			<rect id="SVGID_27_" x="43.9" y="78.1" width="62.3" height="29.5"/>
		</defs>
		<clipPath id="SVGID_28_">
			<use xlink:href="#SVGID_27_"  style="overflow:visible;"/>
		</clipPath>
		<path class="st13" d="M82.9,128.1c0-0.2,0-0.3,0-0.5l0,0c-0.1,0.3-0.5,0.5-0.9,0.5c-0.5,0-0.8-0.3-0.8-0.8c0-0.6,0.6-0.9,1.6-0.9
			v-0.1c0-0.3-0.1-0.5-0.5-0.5c-0.2,0-0.6,0.1-0.8,0.2l-0.1-0.5c0.3-0.1,0.7-0.2,1-0.2c0.8,0,1.1,0.3,1.1,1v1.1c0,0.2,0,0.5,0,0.7
			H82.9z M82.9,126.9c-0.7,0-0.9,0.2-0.9,0.4c0,0.2,0.1,0.3,0.3,0.3C82.7,127.6,82.9,127.3,82.9,126.9L82.9,126.9z"/>
	</g>
	<g>
		<defs>
			<rect id="SVGID_29_" x="43.9" y="78.1" width="62.3" height="29.5"/>
		</defs>
		<clipPath id="SVGID_30_">
			<use xlink:href="#SVGID_29_"  style="overflow:visible;"/>
		</clipPath>
		<rect x="84.4" y="124.1" class="st14" width="0.7" height="4"/>
	</g>
	<g>
		<defs>
			<rect id="SVGID_31_" x="43.9" y="78.1" width="62.3" height="29.5"/>
		</defs>
		<clipPath id="SVGID_32_">
			<use xlink:href="#SVGID_31_"  style="overflow:visible;"/>
		</clipPath>
		<path class="st15" d="M86.7,128.1c-0.6,0-0.8-0.2-0.8-0.9v-1.4h-0.5v-0.5h0.5v-0.8l0.7-0.2v1h0.7v0.5h-0.7v1.3
			c0,0.3,0.1,0.4,0.3,0.4c0.1,0,0.2,0,0.3,0v0.6C87.1,128.1,86.9,128.1,86.7,128.1"/>
	</g>
	<g>
		<defs>
			<rect id="SVGID_33_" x="43.9" y="78.1" width="62.3" height="29.5"/>
		</defs>
		<clipPath id="SVGID_34_">
			<use xlink:href="#SVGID_33_"  style="overflow:visible;"/>
		</clipPath>
		<path class="st16" d="M89.6,128.1c0-0.1,0-0.3,0-0.5l0,0c-0.2,0.3-0.5,0.5-0.9,0.5c-0.6,0-0.8-0.4-0.8-0.9v-1.9h0.7v1.8
			c0,0.3,0.1,0.4,0.3,0.4c0.4,0,0.6-0.4,0.6-0.9v-1.3h0.7v2.8H89.6z"/>
	</g>
	<g>
		<defs>
			<rect id="SVGID_35_" x="43.9" y="78.1" width="62.3" height="29.5"/>
		</defs>
		<clipPath id="SVGID_36_">
			<use xlink:href="#SVGID_35_"  style="overflow:visible;"/>
		</clipPath>
		<path class="st17" d="M92.6,128.1v-1.7c0-0.3-0.1-0.4-0.3-0.4c-0.3,0-0.6,0.4-0.6,0.9v1.2H91v-2.7h0.7c0,0.1,0,0.3,0,0.5l0,0
			c0.2-0.3,0.5-0.5,0.9-0.5c0.6,0,0.8,0.4,0.8,0.9v1.8H92.6z"/>
	</g>
	<g>
		<defs>
			<rect id="SVGID_37_" x="43.9" y="78.1" width="62.3" height="29.5"/>
		</defs>
		<clipPath id="SVGID_38_">
			<use xlink:href="#SVGID_37_"  style="overflow:visible;"/>
		</clipPath>
		<path class="st18" d="M95.1,129.4c-0.7,0-1.2-0.3-1.2-0.8c0-0.3,0.2-0.5,0.4-0.7c-0.2-0.1-0.3-0.2-0.3-0.4c0-0.2,0.1-0.4,0.3-0.5
			c-0.3-0.1-0.4-0.4-0.4-0.7c0-0.5,0.4-1,1.2-1c0.2,0,0.3,0,0.4,0.1h0.9v0.5H96c0.1,0.1,0.1,0.2,0.1,0.3c0,0.6-0.4,1-1.2,1
			c-0.1,0-0.1,0-0.2,0s-0.1,0.1-0.1,0.2c0,0.1,0.1,0.2,0.4,0.2h0.4c0.6,0,0.9,0.3,0.9,0.8C96.6,129,96,129.4,95.1,129.4 M95.4,128.1
			h-0.5l0,0c-0.2,0.1-0.3,0.3-0.3,0.4c0,0.3,0.2,0.4,0.6,0.4c0.5,0,0.7-0.2,0.7-0.5C95.9,128.3,95.7,128.1,95.4,128.1 M95.2,125.8
			c-0.3,0-0.5,0.2-0.5,0.5c0,0.3,0.2,0.5,0.5,0.5c0.3,0,0.5-0.2,0.5-0.5C95.6,126,95.5,125.8,95.2,125.8"/>
	</g>
	<g>
		<defs>
			<rect id="SVGID_39_" x="43.9" y="78.1" width="62.3" height="29.5"/>
		</defs>
		<clipPath id="SVGID_40_">
			<use xlink:href="#SVGID_39_"  style="overflow:visible;"/>
		</clipPath>
		<path class="st19" d="M46.7,135.1c-0.2,0-0.6,0-1.1,0v-3.7c0.3,0,0.8,0,1.2,0c0.8,0,1.2,0.3,1.2,0.9c0,0.4-0.2,0.7-0.6,0.8l0,0
			c0.4,0.1,0.7,0.4,0.7,0.8C48.2,134.5,47.8,135.1,46.7,135.1 M46.8,132c-0.2,0-0.3,0-0.4,0v1c0.1,0,0.2,0,0.3,0
			c0.5,0,0.7-0.2,0.7-0.5S47.2,132,46.8,132 M46.7,133.5c0,0-0.2,0-0.3,0v1c0.1,0,0.3,0,0.4,0c0.5,0,0.7-0.2,0.7-0.5
			C47.5,133.6,47.2,133.5,46.7,133.5"/>
	</g>
	<g>
		<defs>
			<rect id="SVGID_41_" x="43.9" y="78.1" width="62.3" height="29.5"/>
		</defs>
		<clipPath id="SVGID_42_">
			<use xlink:href="#SVGID_41_"  style="overflow:visible;"/>
		</clipPath>
		<path class="st20" d="M51,133.9h-1.6c0,0.5,0.2,0.7,0.7,0.7c0.3,0,0.5-0.1,0.8-0.2l0.1,0.5c-0.3,0.1-0.6,0.2-1,0.2
			c-0.9,0-1.3-0.4-1.3-1.4c0-0.8,0.5-1.4,1.3-1.4c0.8,0,1.1,0.5,1.1,1.2C51.1,133.6,51,133.8,51,133.9 M49.9,132.9
			c-0.3,0-0.5,0.2-0.5,0.6h1C50.4,133,50.2,132.9,49.9,132.9"/>
	</g>
	<g>
		<defs>
			<rect id="SVGID_43_" x="43.9" y="78.1" width="62.3" height="29.5"/>
		</defs>
		<clipPath id="SVGID_44_">
			<use xlink:href="#SVGID_43_"  style="overflow:visible;"/>
		</clipPath>
		<path class="st21" d="M53.1,133c-0.5-0.1-0.8,0.2-0.8,1v1.1h-0.7v-2.7h0.7c0,0.1,0,0.4,0,0.5l0,0c0.1-0.3,0.4-0.6,0.9-0.6
			L53.1,133z"/>
	</g>
	<g>
		<defs>
			<rect id="SVGID_45_" x="43.9" y="78.1" width="62.3" height="29.5"/>
		</defs>
		<clipPath id="SVGID_46_">
			<use xlink:href="#SVGID_45_"  style="overflow:visible;"/>
		</clipPath>
		<path class="st22" d="M55.3,135.1v-1.7c0-0.3-0.1-0.4-0.3-0.4c-0.3,0-0.6,0.4-0.6,0.9v1.2h-0.8v-2.7h0.7c0,0.1,0,0.3,0,0.5l0,0
			c0.2-0.3,0.5-0.5,0.9-0.5c0.6,0,0.8,0.4,0.8,0.9v1.8H55.3z"/>
	</g>
	<g>
		<defs>
			<rect id="SVGID_47_" x="43.9" y="78.1" width="62.3" height="29.5"/>
		</defs>
		<clipPath id="SVGID_48_">
			<use xlink:href="#SVGID_47_"  style="overflow:visible;"/>
		</clipPath>
		<path class="st23" d="M59.6,135.1c0-0.1,0-0.3,0-0.5l0,0c-0.2,0.3-0.5,0.5-0.9,0.5c-0.6,0-0.8-0.4-0.8-0.9v-1.9h0.7v1.8
			c0,0.3,0.1,0.4,0.3,0.4c0.4,0,0.6-0.4,0.6-0.9v-1.3h0.7v2.8H59.6z"/>
	</g>
	<g>
		<defs>
			<rect id="SVGID_49_" x="43.9" y="78.1" width="62.3" height="29.5"/>
		</defs>
		<clipPath id="SVGID_50_">
			<use xlink:href="#SVGID_49_"  style="overflow:visible;"/>
		</clipPath>
		<path class="st24" d="M62.7,135.1v-1.7c0-0.3-0.1-0.4-0.3-0.4c-0.3,0-0.6,0.4-0.6,0.9v1.2h-0.7v-2.7h0.7c0,0.1,0,0.3,0,0.5l0,0
			c0.2-0.3,0.5-0.5,0.9-0.5c0.6,0,0.8,0.4,0.8,0.9v1.8H62.7z"/>
	</g>
	<g>
		<defs>
			<rect id="SVGID_51_" x="43.9" y="78.1" width="62.3" height="29.5"/>
		</defs>
		<clipPath id="SVGID_52_">
			<use xlink:href="#SVGID_51_"  style="overflow:visible;"/>
		</clipPath>
		<path class="st25" d="M65.8,135.1c0-0.1,0-0.3,0-0.5l0,0c-0.1,0.3-0.4,0.5-0.9,0.5c-0.7,0-1-0.5-1-1.3c0-0.9,0.5-1.5,1.4-1.5
			c0.1,0,0.2,0,0.3,0v-1.2h0.7v4H65.8z M65.7,132.9c-0.1,0-0.2,0-0.4,0c-0.4,0-0.7,0.3-0.7,0.9c0,0.5,0.1,0.8,0.5,0.8
			c0.4,0,0.6-0.4,0.6-0.9V132.9z"/>
	</g>
	<g>
		<defs>
			<rect id="SVGID_53_" x="43.9" y="78.1" width="62.3" height="29.5"/>
		</defs>
		<clipPath id="SVGID_54_">
			<use xlink:href="#SVGID_53_"  style="overflow:visible;"/>
		</clipPath>
		<path class="st26" d="M69.5,135.1c-0.2,0-0.6,0-1.1,0v-3.7c0.3,0,0.8,0,1.2,0c0.8,0,1.2,0.3,1.2,0.9c0,0.4-0.2,0.7-0.6,0.8l0,0
			c0.4,0.1,0.7,0.4,0.7,0.8C71,134.5,70.6,135.1,69.5,135.1 M69.5,132c-0.2,0-0.3,0-0.4,0v1c0.1,0,0.2,0,0.3,0
			c0.5,0,0.7-0.2,0.7-0.5S69.9,132,69.5,132 M69.4,133.5c0,0-0.2,0-0.3,0v1c0.1,0,0.3,0,0.4,0c0.5,0,0.7-0.2,0.7-0.5
			C70.2,133.6,69.9,133.5,69.4,133.5"/>
	</g>
	<g>
		<defs>
			<rect id="SVGID_55_" x="43.9" y="78.1" width="62.3" height="29.5"/>
		</defs>
		<clipPath id="SVGID_56_">
			<use xlink:href="#SVGID_55_"  style="overflow:visible;"/>
		</clipPath>
		<path class="st27" d="M71.9,132c-0.2,0-0.4-0.2-0.4-0.4s0.2-0.4,0.4-0.4c0.2,0,0.4,0.2,0.4,0.4C72.4,131.8,72.2,132,71.9,132
			 M71.6,132.4h0.7v2.7h-0.7V132.4z"/>
	</g>
	<g>
		<defs>
			<rect id="SVGID_57_" x="43.9" y="78.1" width="62.3" height="29.5"/>
		</defs>
		<clipPath id="SVGID_58_">
			<use xlink:href="#SVGID_57_"  style="overflow:visible;"/>
		</clipPath>
		<path class="st28" d="M75.2,133.9h-1.7c0,0.5,0.2,0.7,0.7,0.7c0.3,0,0.5-0.1,0.8-0.2l0.1,0.5c-0.3,0.1-0.6,0.2-1,0.2
			c-0.9,0-1.3-0.4-1.3-1.4c0-0.8,0.5-1.4,1.3-1.4c0.8,0,1.1,0.5,1.1,1.2C75.2,133.6,75.2,133.8,75.2,133.9 M74.1,132.9
			c-0.3,0-0.5,0.2-0.5,0.6h1C74.6,133,74.4,132.9,74.1,132.9"/>
	</g>
	<g>
		<defs>
			<rect id="SVGID_59_" x="43.9" y="78.1" width="62.3" height="29.5"/>
		</defs>
		<clipPath id="SVGID_60_">
			<use xlink:href="#SVGID_59_"  style="overflow:visible;"/>
		</clipPath>
		<rect x="75.8" y="131.1" class="st29" width="0.7" height="4"/>
	</g>
	<g>
		<defs>
			<rect id="SVGID_61_" x="43.9" y="78.1" width="62.3" height="29.5"/>
		</defs>
		<clipPath id="SVGID_62_">
			<use xlink:href="#SVGID_61_"  style="overflow:visible;"/>
		</clipPath>
		<path class="st30" d="M58.4,86.7c0,2.1-1.5,3.4-4.7,3.4c-0.7,0-1.4,0-1.9,0V84c0.8,0,1.7-0.1,2.7-0.1C57.2,83.9,58.4,85,58.4,86.7
			 M65.7,98.1c0-2.8-1.7-5.4-4.5-6.2v-0.1c2.4-1.1,4.1-3.5,4.1-6.1c0-4.7-3.6-7.1-9.7-7.1c-3.5,0.1-7.7,0.2-10.3,0.3v28
			c4.1,0,7.2,0.1,8.8,0.1C62.4,107,65.7,102.6,65.7,98.1 M58.7,98.2c0,2.2-1.6,3.5-4.5,3.5c-1,0-2,0-2.5-0.1V95c0.5,0,1.8,0,2.2,0
			C57,94.9,58.7,96.1,58.7,98.2"/>
	</g>
	<g>
		<defs>
			<rect id="SVGID_63_" x="43.9" y="78.1" width="62.3" height="29.5"/>
		</defs>
		<clipPath id="SVGID_64_">
			<use xlink:href="#SVGID_63_"  style="overflow:visible;"/>
		</clipPath>
		<path class="st31" d="M78.3,86.7c0,2.1-1.5,3.4-4.7,3.4c-0.7,0-1.4,0-1.9,0V84c0.8,0,1.7-0.1,2.7-0.1C77.1,83.9,78.3,85,78.3,86.7
			 M78.6,98.2c0,2.2-1.6,3.5-4.5,3.5c-1,0-2,0-2.5-0.1V95c0.5,0,1.8,0,2.2,0C76.9,94.9,78.6,96.1,78.6,98.2"/>
	</g>
	<g>
		<defs>
			<rect id="SVGID_65_" x="43.9" y="78.1" width="62.3" height="29.5"/>
		</defs>
		<clipPath id="SVGID_66_">
			<use xlink:href="#SVGID_65_"  style="overflow:visible;"/>
		</clipPath>
		<path class="st32" d="M98.2,86.7c0,2.1-1.5,3.4-4.7,3.4c-0.7,0-1.4,0-1.9,0V84c0.8,0,1.7-0.1,2.7-0.1C97,83.9,98.2,85,98.2,86.7
			 M105.5,98.1c0-2.8-1.7-5.4-4.5-6.2v-0.1c2.4-1.1,4.1-3.5,4.1-6.1c0-4.7-3.6-7.1-9.7-7.1c-3.4,0-7.6,0.1-10.2,0.2v28
			c4.1,0,7.2,0.1,8.8,0.1C102.2,107,105.5,102.6,105.5,98.1 M98.6,98.2c0,2.2-1.6,3.5-4.5,3.5c-1,0-2,0-2.5-0.1V95
			c0.5,0,1.8,0,2.2,0C96.8,94.9,98.6,96.1,98.6,98.2"/>
	</g>
</g>
</svg>
