<?xml version="1.0" encoding="utf-8"?>
<!-- Generator: Adobe Illustrator 23.0.6, SVG Export Plug-In . SVG Version: 6.00 Build 0)  -->
<svg version="1.1" id="Layer_1" xmlns="http://www.w3.org/2000/svg" xmlns:xlink="http://www.w3.org/1999/xlink" x="0px" y="0px"
	 width="211.1px" height="151.5px" viewBox="0 0 211.1 151.5" style="enable-background:new 0 0 211.1 151.5;" xml:space="preserve"
	>
<style type="text/css">
	.st0{fill:#FFFFFF;}
	.st1{fill:none;stroke:#000000;stroke-width:0.7223;}
</style>
<g>
	<g>
		<polyline class="st0" points="60.9,86.8 60.9,64.7 38.9,64.7 38.9,86.8 		"/>
		<polyline class="st1" points="60.9,86.8 60.9,64.7 38.9,64.7 38.9,86.8 		"/>
		<polyline class="st0" points="83,86.8 83,64.7 61,64.7 61,86.8 		"/>
		<polyline class="st1" points="83,86.8 83,64.7 61,64.7 61,86.8 		"/>
		<polyline class="st0" points="105.1,86.8 105.1,64.7 83.1,64.7 83.1,86.8 		"/>
		<polyline class="st1" points="105.1,86.8 105.1,64.7 83.1,64.7 83.1,86.8 		"/>
		<polygon points="171.4,86.8 171.4,64.7 105.2,64.7 105.2,86.7 		"/>
		<polygon class="st1" points="171.4,86.8 171.4,64.7 105.2,64.7 105.2,86.7 		"/>
		<path d="M88.2,73.5c0.5-0.1,1-0.2,1.4-0.2c1,0,1.9,0.3,1.9,1.5c0,1.9-1.8,4.4-3.8,4.4c-0.3,0-0.8-0.1-0.9-0.3l-0.5,2.2l1,0.2
			l-0.1,0.3c-0.5,0.1-1.6,0.2-2.2,0.3l-0.1-0.1c0.6-2.5,1.2-5,1.9-7.5c-0.3,0.1-1.2,0.4-1.4,0.5l0.1-0.5c0.3-0.1,1-0.4,1.5-0.5
			l0.4-1.6l1.4-0.4L88.2,73.5L88.2,73.5z M87.3,77.1c-0.1,0.3-0.2,0.8-0.2,1.1c0,0.4,0.3,0.6,0.7,0.6c1.4,0,2.3-2.8,2.3-3.9
			c0-0.6-0.3-1-1.1-1c-0.5,0-0.8,0.1-1,0.1L87.3,77.1L87.3,77.1z"/>
		<path d="M93.4,76c0.1-0.3,0.3-0.9,0.3-1.1c0-0.1,0-0.3-0.2-0.3c-0.3,0-0.8,0.5-1,0.7l-0.2-0.3c0.4-0.5,1.5-1.7,2.2-1.7
			c0.4,0,0.5,0.2,0.5,0.5c0,0.6-0.4,1.6-0.5,2.2l0,0c0.5-0.8,1.5-2.8,2.5-2.8c0.3,0,0.5,0.2,0.5,0.5c0,0.4-0.2,0.9-0.6,0.9
			c-0.3,0-0.3-0.1-0.5-0.1c-0.6,0-1.6,1.6-2.2,3.3c-0.2,0.4-0.3,0.9-0.3,1c-0.1,0.2-0.3,0.2-0.7,0.2c-0.5,0-0.6-0.1-0.6-0.2
			c0-0.1,0.2-0.7,0.3-0.9L93.4,76L93.4,76z"/>
		<path d="M103.2,75.7c0,1.8-1.4,3.5-3.4,3.5c-1.5,0-2.4-1.2-2.4-2.4c0-2,1.6-3.5,3.4-3.5C102.4,73.3,103.2,74.4,103.2,75.7
			L103.2,75.7z M101.8,75.1c0-0.6-0.1-1.3-1-1.3c-1.4,0-2,2.4-2,3.6c0,0.8,0.2,1.4,1,1.4C101.2,78.8,101.8,76.2,101.8,75.1
			L101.8,75.1z"/>
		<polygon class="st0" points="110.2,79 110.2,71.1 115.3,71.1 115.3,72.4 111.9,72.4 111.9,74.3 115.1,74.3 115.1,75.7 111.9,75.7 
			111.9,79 		"/>
		<path class="st0" d="M118.7,79.2c-1.8,0-2.9-1.2-2.9-2.9c0-1.7,1.1-2.9,2.9-2.9c1.8,0,2.9,1.2,2.9,2.9
			C121.6,78,120.5,79.2,118.7,79.2L118.7,79.2z M118.7,78.1c1,0,1.2-1,1.2-1.8c0-0.9-0.2-1.8-1.2-1.8c-1,0-1.2,1-1.2,1.8
			C117.6,77.2,117.7,78.1,118.7,78.1L118.7,78.1z"/>
		<path class="st0" d="M124.2,73.5l0,1h0c0.3-0.9,1.1-1.1,1.9-1.1v1.5h-0.7c-0.3,0-0.6,0.2-0.8,0.4c-0.2,0.3-0.2,0.6-0.2,1v2.7h-1.6
			v-4.4c0-0.2,0-0.7-0.1-1.1L124.2,73.5L124.2,73.5z"/>
		<path class="st0" d="M128.7,74.2L128.7,74.2c0.4-0.5,0.9-0.8,1.7-0.8c0.6,0,1.5,0.4,1.8,1c0.5-0.7,1-1,1.9-1c0.6,0,1.5,0.4,1.8,1
			c0.2,0.4,0.2,0.9,0.2,1.3V79h-1.6v-3.3c0-0.6-0.2-1.3-1-1.3c-0.5,0-1,0.5-1,1.3V79h-1.6v-3.3c0-0.6-0.2-1.3-1-1.3
			c-0.5,0-1,0.5-1,1.3V79h-1.6v-5.5h1.6L128.7,74.2L128.7,74.2z"/>
		<path class="st0" d="M137.5,75.1c0-0.7,0.3-1.1,0.8-1.4c0.5-0.3,1-0.3,1.6-0.3c1.1,0,2.4,0.4,2.4,2.1v3c0,0.3,0.1,0.4,0.1,0.6
			h-1.5c0-0.3-0.1-0.5-0.1-0.8h0c-0.4,0.6-1,0.9-1.7,0.9c-1,0-1.8-0.6-1.8-1.7c0-0.4,0.2-1.3,1.2-1.8c0.7-0.3,1.5-0.3,2.2-0.3V75
			c0-0.2-0.2-0.7-0.8-0.7c-0.6,0-0.8,0.5-0.8,0.8L137.5,75.1L137.5,75.1z M138.8,77.3c0,0.5,0.3,0.8,0.8,0.8c0.9,0,1-1,1-1.7
			C140,76.4,138.8,76.4,138.8,77.3L138.8,77.3z"/>
		<polygon class="st0" points="144,79.1 144,77.6 145.4,77.6 145.4,79.1 		"/>
	</g>
</g>
</svg>
