<?xml version="1.0" encoding="utf-8"?>
<!-- Generator: Adobe Illustrator 23.0.6, SVG Export Plug-In . SVG Version: 6.00 Build 0)  -->
<svg version="1.1" id="Layer_1" xmlns="http://www.w3.org/2000/svg" xmlns:xlink="http://www.w3.org/1999/xlink" x="0px" y="0px"
	 width="168.4px" height="151px" viewBox="0 0 168.4 151" style="enable-background:new 0 0 168.4 151;" xml:space="preserve">
<style type="text/css">
	.st0{fill-rule:evenodd;clip-rule:evenodd;fill:#D9222A;}
	.st1{fill-rule:evenodd;clip-rule:evenodd;fill:#1A1918;}
</style>
<g id="Page-1">
	<g id="simd-logo_vectors">
		<polyline id="Fill-1" class="st0" points="79.3,32.9 35.7,76.5 36.9,77.7 80.5,34.1 79.3,32.9 		"/>
		<polyline id="Fill-2" class="st0" points="36.9,32.9 35.7,34.1 79.3,77.7 80.5,76.5 36.9,32.9 		"/>
		<path id="Fill-3" class="st1" d="M89,85.4c-0.4,0.4-1,0.6-1.7,0.6c-0.7,0-1.3-0.2-1.7-0.7c-0.3-0.3-0.4-0.6-0.4-1h0.5
			c0,0.3,0.2,0.6,0.4,0.8c0.3,0.3,0.7,0.4,1.2,0.4c0.5,0,1-0.1,1.2-0.4c0.2-0.2,0.3-0.4,0.3-0.7c0-0.5-0.3-0.9-0.9-0.9l-1-0.1
			c-0.4-0.1-0.9-0.2-1.2-0.5c-0.2-0.2-0.3-0.5-0.3-0.8c0-0.4,0.2-0.7,0.4-1c0.4-0.3,0.9-0.5,1.4-0.5c0.6,0,1.2,0.2,1.5,0.6
			c0.2,0.3,0.4,0.6,0.4,0.9h-0.5c0-0.2-0.1-0.4-0.3-0.6c-0.2-0.3-0.6-0.5-1.2-0.5c-0.4,0-0.7,0.1-0.9,0.2c-0.3,0.2-0.4,0.4-0.4,0.7
			c0,0.4,0.2,0.8,1,0.9l1,0.1c1,0.1,1.4,0.8,1.4,1.4C89.4,84.9,89.2,85.2,89,85.4"/>
		<polyline id="Fill-4" class="st1" points="95.7,85.9 95.1,85.9 93.6,81.5 92.1,85.9 91.5,85.9 90.2,80.8 90.7,80.8 91.8,85.3 
			93.3,80.9 93.9,80.9 95.4,85.3 96.5,80.8 97,80.8 95.7,85.9 		"/>
		<path id="Fill-5" class="st1" d="M98.3,85.9h0.5v-5.1h-0.5V85.9z M98.2,79.4h0.7v-0.7h-0.7V79.4z"/>
		<path id="Fill-6" class="st1" d="M104,85.4c-0.4,0.4-1,0.6-1.7,0.6c-0.7,0-1.3-0.2-1.7-0.7c-0.3-0.3-0.4-0.6-0.4-1h0.5
			c0,0.3,0.2,0.6,0.4,0.8c0.3,0.3,0.7,0.4,1.2,0.4c0.5,0,1-0.1,1.2-0.4c0.2-0.2,0.3-0.4,0.3-0.7c0-0.5-0.3-0.9-0.9-0.9l-1-0.1
			c-0.4-0.1-0.9-0.2-1.2-0.5c-0.2-0.2-0.3-0.5-0.3-0.8c0-0.4,0.2-0.7,0.4-1c0.4-0.3,0.9-0.5,1.4-0.5c0.6,0,1.2,0.2,1.5,0.6
			c0.2,0.3,0.4,0.6,0.4,0.9h-0.5c0-0.2-0.1-0.4-0.3-0.6c-0.2-0.3-0.6-0.5-1.2-0.5c-0.4,0-0.7,0.1-0.9,0.2c-0.3,0.2-0.4,0.4-0.4,0.7
			c0,0.4,0.2,0.8,1,0.9l1,0.1c1,0.1,1.4,0.8,1.4,1.4C104.4,84.9,104.2,85.2,104,85.4"/>
		<path id="Fill-7" class="st1" d="M109.3,85.4c-0.4,0.4-1,0.6-1.7,0.6c-0.7,0-1.3-0.2-1.7-0.7c-0.3-0.3-0.4-0.6-0.4-1h0.5
			c0,0.3,0.2,0.6,0.4,0.8c0.3,0.3,0.7,0.4,1.2,0.4c0.5,0,1-0.1,1.2-0.4c0.2-0.2,0.3-0.4,0.3-0.7c0-0.5-0.3-0.9-0.9-0.9l-1-0.1
			c-0.4-0.1-0.9-0.2-1.2-0.5c-0.2-0.2-0.3-0.5-0.3-0.8c0-0.4,0.2-0.7,0.4-1c0.4-0.3,0.9-0.5,1.4-0.5c0.6,0,1.2,0.2,1.6,0.6
			c0.2,0.3,0.4,0.6,0.4,0.9H109c0-0.2-0.1-0.4-0.3-0.6c-0.2-0.3-0.6-0.5-1.2-0.5c-0.4,0-0.7,0.1-0.9,0.2c-0.3,0.2-0.4,0.4-0.4,0.7
			c0,0.4,0.2,0.8,1,0.9l1,0.1c1,0.1,1.4,0.8,1.4,1.4C109.6,84.9,109.5,85.2,109.3,85.4"/>
		<path id="Fill-8" class="st1" d="M85.7,96.2h0.5V91h-0.5V96.2z M85.7,89.6h0.7v-0.7h-0.7V89.6z"/>
		<path id="Fill-9" class="st1" d="M91.6,96.2v-3.4c0-0.9-0.4-1.4-1.3-1.4c-1.3,0-1.7,1.1-1.7,2.2v2.6h-0.5V91h0.5l0.1,0.9
			c0.3-0.6,1-1.1,1.7-1.1c1.2,0,1.8,0.7,1.8,1.9v3.4H91.6"/>
		<path id="Fill-10" class="st1" d="M95.5,96.2c-1,0-1.3-0.6-1.3-1.5v-3.2h-1V91h1v-1.4l0.5-0.1V91h1.6v0.5h-1.6v3.2
			c0,0.6,0.2,1,0.8,1c0.3,0,0.5,0,0.8-0.1v0.4C96.1,96.2,95.8,96.2,95.5,96.2"/>
		<path id="Fill-11" class="st1" d="M99.3,91.4c-1.1,0-1.7,0.9-1.7,1.9h3.4C100.9,92.3,100.3,91.4,99.3,91.4 M101.5,93.7h-3.9
			c0,0.6,0.2,1.1,0.5,1.5c0.3,0.3,0.7,0.5,1.2,0.5c0.5,0,0.8-0.2,1.1-0.5c0.2-0.2,0.3-0.4,0.4-0.7h0.5c-0.1,0.4-0.3,0.8-0.6,1.1
			c-0.4,0.4-0.9,0.6-1.5,0.6c-0.7,0-1.3-0.3-1.6-0.7c-0.4-0.5-0.7-1.2-0.7-1.9c0-0.6,0.1-1.3,0.5-1.8c0.4-0.6,1-0.9,1.7-0.9
			c1.4,0,2.2,1.2,2.2,2.5C101.5,93.5,101.5,93.6,101.5,93.7"/>
		<path id="Fill-12" class="st1" d="M105,91.5c-1.3,0-1.6,1.1-1.6,2.2v2.5h-0.5V91h0.5l0.1,1c0.2-0.7,0.9-1.1,1.6-1.1
			c0.2,0,0.3,0,0.5,0v0.5C105.4,91.5,105.2,91.5,105,91.5"/>
		<path id="Fill-13" class="st1" d="M109.9,93.5l-1.8,0.1c-0.8,0.1-1.3,0.5-1.3,1.1c0,0.7,0.6,1.1,1.3,1.1c1.3,0,1.8-1,1.8-2V93.5z
			 M110.7,96.2c-0.6,0-0.8-0.5-0.8-1c-0.3,0.7-1.1,1.1-1.8,1.1c-1,0-1.8-0.6-1.8-1.6c0-0.9,0.7-1.5,1.7-1.5l1.9-0.1v-0.5
			c0-0.9-0.6-1.2-1.4-1.2c-0.8,0-1.4,0.4-1.5,1.1h-0.5c0.1-1,0.9-1.6,2-1.6c0.7,0,1.5,0.2,1.7,0.9c0.1,0.3,0.1,0.6,0.1,1v2.3
			c0,0.3,0,0.6,0.4,0.6c0.1,0,0.1,0,0.1,0v0.5C110.8,96.2,110.8,96.2,110.7,96.2L110.7,96.2z"/>
		<path id="Fill-14" class="st1" d="M114,96.3c-0.6,0-1.1-0.2-1.5-0.6c-0.5-0.5-0.7-1.2-0.7-2.1c0-0.9,0.2-1.6,0.7-2.1
			c0.4-0.4,0.9-0.6,1.5-0.6c1.1,0,1.9,0.7,2,1.7h-0.5c-0.1-0.7-0.7-1.2-1.4-1.2c-0.5,0-0.9,0.2-1.1,0.4c-0.5,0.5-0.6,1.1-0.6,1.8
			c0,0.7,0.1,1.3,0.6,1.8c0.3,0.3,0.6,0.4,1.1,0.4c0.8,0,1.3-0.6,1.5-1.3h0.5C115.9,95.6,115.1,96.3,114,96.3"/>
		<path id="Fill-15" class="st1" d="M119.1,96.2c-1,0-1.3-0.6-1.3-1.5v-3.2h-1V91h1v-1.4l0.5-0.1V91h1.6v0.5h-1.6v3.2
			c0,0.6,0.2,1,0.9,1c0.3,0,0.5,0,0.8-0.1v0.4C119.7,96.2,119.4,96.2,119.1,96.2"/>
		<path id="Fill-16" class="st1" d="M121.2,96.2h0.5V91h-0.5V96.2z M121.1,89.6h0.7v-0.7h-0.7V89.6z"/>
		<polyline id="Fill-17" class="st1" points="125.4,96.2 124.9,96.2 122.9,91 123.5,91 125.2,95.4 126.9,91 127.4,91 125.4,96.2 		
			"/>
		<path id="Fill-18" class="st1" d="M130.2,91.4c-1.1,0-1.7,0.9-1.7,1.9h3.4C131.9,92.3,131.3,91.4,130.2,91.4 M132.4,93.7h-3.9
			c0,0.6,0.2,1.1,0.5,1.5c0.3,0.3,0.7,0.5,1.2,0.5c0.5,0,0.8-0.2,1.1-0.5c0.2-0.2,0.3-0.4,0.4-0.7h0.5c-0.1,0.4-0.3,0.8-0.6,1.1
			c-0.4,0.4-0.9,0.6-1.5,0.6c-0.7,0-1.3-0.3-1.6-0.7c-0.4-0.5-0.7-1.2-0.7-1.9c0-0.6,0.1-1.3,0.5-1.8c0.4-0.6,1-0.9,1.7-0.9
			c1.4,0,2.2,1.2,2.2,2.5C132.4,93.5,132.4,93.6,132.4,93.7"/>
		<path id="Fill-19" class="st1" d="M92.2,106.4v-3.4c0-0.9-0.3-1.4-1.2-1.4c-0.4,0-0.7,0.1-0.9,0.3c-0.4,0.4-0.6,0.9-0.6,1.5v2.9
			H89v-3.4c0-0.9-0.3-1.4-1.2-1.4c-0.4,0-0.7,0.1-0.9,0.3c-0.5,0.4-0.6,1.1-0.6,1.9v2.6h-0.5v-5.1h0.5l0.1,0.9c0.3-0.6,0.8-1,1.6-1
			c0.9,0,1.4,0.4,1.6,1.1c0.3-0.6,0.8-1.1,1.7-1.1c1.2,0,1.7,0.8,1.7,1.9v3.4H92.2"/>
		<path id="Fill-20" class="st1" d="M96.4,101.7c-1.1,0-1.7,0.9-1.7,1.9h3.4C98,102.5,97.4,101.7,96.4,101.7 M98.6,104h-3.9
			c0,0.6,0.2,1.1,0.5,1.5c0.3,0.3,0.7,0.5,1.2,0.5c0.5,0,0.8-0.2,1.1-0.4c0.2-0.2,0.3-0.4,0.4-0.7h0.5c-0.1,0.4-0.3,0.8-0.6,1.1
			c-0.4,0.4-0.9,0.6-1.5,0.6c-0.7,0-1.3-0.3-1.6-0.7c-0.4-0.5-0.7-1.2-0.7-1.9c0-0.6,0.1-1.3,0.5-1.8c0.4-0.6,1-0.9,1.7-0.9
			c1.4,0,2.2,1.2,2.2,2.5C98.6,103.8,98.6,103.9,98.6,104"/>
		<path id="Fill-21" class="st1" d="M102.9,102.1c-0.3-0.2-0.6-0.4-1.1-0.4c-0.5,0-0.8,0.2-1.1,0.5c-0.4,0.4-0.6,1.1-0.6,1.7
			c0,0.7,0.2,1.4,0.7,1.8c0.3,0.2,0.6,0.4,1,0.4c0.5,0,0.8-0.2,1-0.4c0.5-0.5,0.7-1.1,0.7-1.8C103.6,103.1,103.4,102.5,102.9,102.1
			 M103.6,106.4l-0.1-0.9c-0.3,0.6-1,1-1.7,1c-0.6,0-1-0.2-1.4-0.5c-0.6-0.5-0.8-1.3-0.8-2.2c0-0.8,0.3-1.7,0.8-2.2
			c0.3-0.3,0.8-0.5,1.4-0.5c0.7,0,1.4,0.4,1.7,1V99h0.5v7.4H103.6"/>
		<path id="Fill-22" class="st1" d="M105.9,106.4h0.5v-5.1h-0.5V106.4z M105.8,99.9h0.7v-0.7h-0.7V99.9z"/>
		<path id="Fill-23" class="st1" d="M111.5,103.8l-1.8,0.1c-0.8,0-1.2,0.5-1.2,1.1c0,0.7,0.6,1.1,1.3,1.1c1.3,0,1.8-1,1.8-2V103.8z
			 M112.3,106.5c-0.6,0-0.8-0.5-0.8-1c-0.3,0.7-1.1,1.1-1.8,1.1c-1,0-1.8-0.6-1.8-1.6c0-0.9,0.7-1.5,1.7-1.5l1.9-0.1v-0.5
			c0-0.9-0.6-1.2-1.4-1.2c-0.8,0-1.4,0.4-1.5,1.1h-0.5c0.1-1,0.9-1.6,2-1.6c0.7,0,1.5,0.2,1.7,0.9c0.1,0.3,0.1,0.6,0.1,1v2.3
			c0,0.3,0.1,0.6,0.4,0.6c0.1,0,0.1,0,0.1,0v0.5C112.4,106.4,112.4,106.5,112.3,106.5L112.3,106.5z"/>
		<path id="Fill-24" class="st1" d="M88.5,112.3c-0.3-0.2-0.6-0.4-1.1-0.4c-0.5,0-0.8,0.2-1.1,0.5c-0.4,0.4-0.6,1.1-0.6,1.7
			c0,0.7,0.2,1.4,0.7,1.8c0.3,0.2,0.6,0.4,1,0.4c0.5,0,0.8-0.2,1-0.4c0.5-0.5,0.7-1.1,0.7-1.8C89.2,113.4,89,112.8,88.5,112.3
			 M89.2,116.7l-0.1-0.9c-0.3,0.6-1,1-1.7,1c-0.6,0-1-0.2-1.4-0.5c-0.6-0.5-0.8-1.3-0.8-2.2c0-0.8,0.3-1.7,0.8-2.2
			c0.3-0.3,0.8-0.5,1.4-0.5c0.7,0,1.4,0.4,1.7,1v-3.1h0.5v7.4H89.2"/>
		<path id="Fill-25" class="st1" d="M93.4,111.9c-1.1,0-1.7,0.9-1.7,1.9H95C95,112.8,94.4,111.9,93.4,111.9 M95.5,114.2h-3.9
			c0,0.6,0.2,1.1,0.5,1.5c0.3,0.3,0.7,0.5,1.2,0.5c0.5,0,0.8-0.2,1.1-0.5c0.2-0.2,0.3-0.4,0.4-0.7h0.5c-0.1,0.4-0.3,0.8-0.6,1.1
			c-0.4,0.4-0.9,0.6-1.5,0.6c-0.7,0-1.3-0.3-1.6-0.7c-0.4-0.5-0.7-1.2-0.7-1.9c0-0.6,0.1-1.3,0.5-1.8c0.4-0.6,1-0.9,1.7-0.9
			c1.4,0,2.2,1.2,2.2,2.5C95.6,114,95.5,114.1,95.5,114.2"/>
		<path id="Fill-26" class="st1" d="M100.4,116.2c-0.4,0.4-1,0.6-1.7,0.6c-0.7,0-1.3-0.2-1.7-0.7c-0.3-0.3-0.4-0.6-0.4-1h0.5
			c0,0.3,0.2,0.6,0.4,0.8c0.3,0.3,0.7,0.4,1.2,0.4c0.5,0,1-0.1,1.2-0.4c0.2-0.2,0.3-0.4,0.3-0.7c0-0.5-0.3-0.9-0.9-0.9l-1-0.1
			c-0.4-0.1-0.9-0.2-1.2-0.5c-0.2-0.2-0.3-0.5-0.3-0.8c0-0.4,0.2-0.7,0.4-1c0.4-0.3,0.9-0.5,1.4-0.5c0.6,0,1.2,0.2,1.5,0.6
			c0.2,0.3,0.4,0.6,0.4,0.9h-0.5c0-0.2-0.1-0.4-0.3-0.6c-0.2-0.3-0.6-0.4-1.2-0.4c-0.4,0-0.7,0.1-0.9,0.2c-0.3,0.2-0.4,0.4-0.4,0.7
			c0,0.4,0.2,0.8,1,0.9l1,0.1c1,0.1,1.4,0.8,1.4,1.4C100.7,115.6,100.6,115.9,100.4,116.2"/>
		<path id="Fill-27" class="st1" d="M102.2,116.7h0.5v-5.1h-0.5V116.7z M102.1,110.1h0.7v-0.7h-0.7V110.1z"/>
		<path id="Fill-28" class="st1" d="M106.3,111.9c-0.8,0-1.4,0.5-1.4,1.3c0,0.8,0.6,1.3,1.4,1.3c0.8,0,1.4-0.5,1.4-1.3
			C107.7,112.4,107.1,111.9,106.3,111.9 M108.1,116.8c-0.2-0.2-0.6-0.4-1.2-0.4h-1.4c-0.4,0.1-0.8,0.5-0.8,1.1
			c0,0.3,0.1,0.5,0.3,0.6c0.4,0.3,1,0.4,1.5,0.4s1.2-0.1,1.6-0.5c0.2-0.2,0.3-0.4,0.3-0.6C108.3,117.2,108.2,117,108.1,116.8
			 M108.4,118.4c-0.4,0.5-1.2,0.6-2,0.6c-0.8,0-1.5-0.2-1.9-0.6c-0.2-0.2-0.4-0.5-0.4-0.9c0-0.5,0.3-1,0.8-1.2
			c-0.4-0.1-0.6-0.5-0.6-0.8c0-0.4,0.2-0.7,0.6-1c-0.3-0.3-0.5-0.7-0.5-1.3c0-1.1,0.8-1.8,1.9-1.8c0.5,0,0.9,0.1,1.2,0.3
			c0.1-0.4,0.6-0.7,1-0.7c0.1,0,0.1,0,0.2,0v0.4c-0.1,0-0.1,0-0.2,0c-0.4,0-0.6,0.2-0.7,0.6c0.3,0.3,0.4,0.7,0.4,1.1
			c0,1.1-0.9,1.8-1.9,1.8c-0.4,0-0.7-0.1-1-0.2c-0.3,0.1-0.5,0.3-0.5,0.6c0,0.2,0.2,0.4,0.4,0.5c0.2,0.1,0.5,0.1,0.7,0.1h1.1
			c0.7,0,1.2,0.2,1.5,0.5c0.2,0.2,0.4,0.5,0.4,1C108.8,117.9,108.7,118.2,108.4,118.4"/>
		<path id="Fill-29" class="st1" d="M113.5,116.7v-3.4c0-0.9-0.4-1.4-1.3-1.4c-1.3,0-1.7,1.1-1.7,2.2v2.6h-0.5v-5.1h0.5l0.1,0.9
			c0.3-0.6,1-1.1,1.7-1.1c1.2,0,1.8,0.7,1.8,1.9v3.4H113.5"/>
		<path id="Fill-30" class="st1" d="M44.6,52.8c0.7,0.7,0.9,1.7,0.9,2.7c0,0.9-0.2,1.9-0.9,2.6c-0.5,0.5-1.2,0.9-2,0.9v-1.6
			c0.4,0,0.8-0.2,1-0.4c0.4-0.4,0.5-0.9,0.5-1.4c0-0.6-0.1-1.2-0.5-1.5c-0.2-0.2-0.4-0.3-0.8-0.3c-0.6,0-0.9,0.5-1,1
			c-0.1,0.6-0.1,1.3-0.2,1.9c-0.2,1.2-1,2.2-2.4,2.2c-0.7,0-1.2-0.3-1.7-0.7c-0.6-0.6-0.9-1.5-0.9-2.5c0-0.9,0.3-1.8,0.8-2.4
			c0.5-0.5,1.1-0.9,1.8-0.9v1.6c-0.3,0-0.6,0.2-0.8,0.4C38.2,54.4,38,55,38,55.4c0,0.5,0.1,1,0.5,1.4c0.2,0.2,0.4,0.3,0.7,0.3
			c0.6,0,0.8-0.4,0.9-0.9c0.1-0.5,0.1-1.3,0.2-1.9c0.2-1.3,1-2.4,2.5-2.4C43.6,52,44.2,52.3,44.6,52.8"/>
		<polygon id="Fill-31" class="st1" points="56.9,42.7 58.4,42.7 58.4,34.1 56.9,34.1 		"/>
		<polyline id="Fill-32" class="st1" points="70.8,58.7 76.9,58.7 70.9,56.4 70.9,55.3 76.9,53.1 70.8,53.1 70.8,51.6 79.3,51.6 
			79.3,53.7 73.2,55.9 79.3,58.2 79.3,60.2 70.8,60.2 70.8,58.7 		"/>
		<path id="Fill-33" class="st1" d="M56.5,74.6c0.3,0.3,0.7,0.5,1.2,0.5h1.8v-5.8h-1.8c-0.5,0-0.9,0.2-1.2,0.5
			c-0.6,0.6-0.6,1.6-0.6,2.4C55.9,73,55.9,74,56.5,74.6 M55.3,68.9c0.6-0.6,1.4-0.9,2.4-0.9H61v8.6h-3.3c-1,0-1.8-0.3-2.4-0.9
			c-0.9-0.9-1-2.2-1-3.4C54.3,71.1,54.4,69.8,55.3,68.9"/>
	</g>
</g>
</svg>
